<?xml version="1.0" encoding="utf-8"?>
<!-- Generator: Adobe Illustrator 26.1.0, SVG Export Plug-In . SVG Version: 6.00 Build 0)  -->
<svg version="1.1" id="Layer_1" xmlns="http://www.w3.org/2000/svg" xmlns:xlink="http://www.w3.org/1999/xlink" x="0px" y="0px"
	 viewBox="0 0 398 345.8" style="enable-background:new 0 0 398 345.8;" xml:space="preserve">
<style type="text/css">
	.stDM0{fill:#E78FBC;}
	.stDM1{fill:#BD4D99;}
	.stDM2{fill:#FAAB62;}
	.stDM3{fill:#D2633C;}
	.stDM4{fill:#EBACCE;}
	.stDM5{fill:#D6CCE5;}
	.stDM6{fill:#635CA8;}
	.stDM7{fill:#FFFFFF;}
	.stDM8{fill:#817DBB;}
	.stDM9{fill:url(#SVGID_1_);}
	.stDM10{fill:url(#SVGID_00000073683174163915343330000002839345638075470235_);}
	.stDM11{fill:#D43C8E;}
	.stDM12{fill:url(#SVGID_00000132780162496754981280000002078873997592896680_);}
	.stDM13{fill:url(#SVGID_00000112590617154875195840000007402989562466550430_);}
	.stDM14{fill:#1EB24B;}
	.stDM15{fill:#176433;}
</style>
<path class="stDM0" d="M317.1,68.4c-1,14.3-12.9,25.6-27.5,25.6C274.4,94,262,81.7,262,66.5c0-14.6,11.3-26.5,25.6-27.5V17.1
	c-26.4,1-47.5,22.7-47.5,49.4c0,27.3,22.1,49.4,49.4,49.4c26.6,0,48.3-21.1,49.4-47.5H317.1z"/>
<path class="stDM1" d="M289.6,116.5c-27.6,0-50.1-22.5-50.1-50.1c0-27,21.1-49,48.1-50l0.7,0v23.2l-0.6,0c-14,1-25,12.8-25,26.8
	c0,14.8,12.1,26.9,26.9,26.9c14.1,0,25.9-11,26.8-25l0-0.6h23.2l0,0.7C338.6,95.4,316.6,116.5,289.6,116.5z M287,17.8
	c-25.9,1.3-46.2,22.6-46.2,48.7c0,26.9,21.9,48.8,48.8,48.8c26.1,0,47.3-20.2,48.7-46.2h-20.6c-1.3,14.4-13.5,25.6-28.1,25.6
	c-15.6,0-28.2-12.7-28.2-28.2c0-14.5,11.2-26.8,25.6-28.1V17.8z"/>
<path class="stDM2" d="M291.5,17.1V39c13.7,1,24.6,11.9,25.5,25.5H339C338,38.8,317.3,18.1,291.5,17.1z"/>
<path class="stDM3" d="M339.6,65.2h-23.2l0-0.6c-0.9-13.3-11.6-24-24.9-24.9l-0.6,0V16.4l0.7,0c25.9,1,47,22.1,48,48L339.6,65.2z
	 M317.7,63.9h20.6c-1.3-24.7-21.4-44.8-46.1-46.1v20.6C305.6,39.6,316.4,50.4,317.7,63.9z"/>
<path class="stDM0" d="M131.9,243.4H36.8c-5.2,0-9.4-4.2-9.4-9.4v-76.9c0-5.2,4.2-9.4,9.4-9.4h95.2c5.2,0,9.4,4.2,9.4,9.4v76.9
	C141.4,239.1,137.1,243.4,131.9,243.4z"/>
<path class="stDM4" d="M131.9,244H36.8c-5.5,0-10.1-4.5-10.1-10.1v-76.9c0-5.5,4.5-10.1,10.1-10.1h95.2c5.5,0,10.1,4.5,10.1,10.1v76.9
	C142,239.5,137.5,244,131.9,244z M36.8,148.3c-4.8,0-8.8,3.9-8.8,8.8v76.9c0,4.8,3.9,8.8,8.8,8.8h95.2c4.8,0,8.8-3.9,8.8-8.8v-76.9
	c0-4.8-3.9-8.8-8.8-8.8H36.8z"/>
<path class="stDM5" d="M9.5,227.3H2.6c-1.4,0-2.6-1.2-2.6-2.6v-25.9c0-1.4,1.2-2.6,2.6-2.6h6.9c1.4,0,2.6,1.2,2.6,2.6v25.9
	C12.1,226.2,10.9,227.3,9.5,227.3z"/>
<path class="stDM5" d="M30.8,227.3h-6.9c-1.4,0-2.6-1.2-2.6-2.6v-41.1c0-1.4,1.2-2.6,2.6-2.6h6.9c1.4,0,2.6,1.2,2.6,2.6v41.1
	C33.4,226.2,32.2,227.3,30.8,227.3z"/>
<path class="stDM5" d="M52.1,227.3h-6.9c-1.4,0-2.6-1.2-2.6-2.6v-16.1c0-1.4,1.2-2.6,2.6-2.6h6.9c1.4,0,2.6,1.2,2.6,2.6v16.1
	C54.7,226.2,53.6,227.3,52.1,227.3z"/>
<path class="stDM6" d="M73.5,227.3h-6.9c-1.4,0-2.6-1.2-2.6-2.6V169c0-1.4,1.2-2.6,2.6-2.6h6.9c1.4,0,2.6,1.2,2.6,2.6v55.7
	C76,226.2,74.9,227.3,73.5,227.3z"/>
<path class="stDM5" d="M94.8,227.3h-6.9c-1.4,0-2.6-1.2-2.6-2.6v-33.1c0-1.4,1.2-2.6,2.6-2.6h6.9c1.4,0,2.6,1.2,2.6,2.6v33.1
	C97.4,226.2,96.2,227.3,94.8,227.3z"/>
<path class="stDM5" d="M281.3,265.8H120.1c-5.7,0-10.3-4.6-10.3-10.3V73.6c0-5.7,4.6-10.3,10.3-10.3h161.2c5.7,0,10.3,4.6,10.3,10.3
	v181.9C291.6,261.2,287,265.8,281.3,265.8z"/>
<path class="stDM7" d="M268,83.2H165.3c-1.8,0-3.2-1.4-3.2-3.2l0,0c0-1.8,1.4-3.2,3.2-3.2H268c1.8,0,3.2,1.4,3.2,3.2l0,0
	C271.2,81.8,269.8,83.2,268,83.2z"/>
<path class="stDM0" d="M268,83.9H165.3c-2.1,0-3.8-1.7-3.8-3.8c0-2.1,1.7-3.8,3.8-3.8H268c2.1,0,3.8,1.7,3.8,3.8
	C271.8,82.2,270.1,83.9,268,83.9z M165.3,77.5c-1.4,0-2.5,1.1-2.5,2.5s1.1,2.5,2.5,2.5H268c1.4,0,2.5-1.1,2.5-2.5s-1.1-2.5-2.5-2.5
	H165.3z"/>
<path class="stDM7" d="M249.7,97h-84.4c-1.8,0-3.2-1.4-3.2-3.2l0,0c0-1.8,1.4-3.2,3.2-3.2h84.4c1.8,0,3.2,1.4,3.2,3.2l0,0
	C252.9,95.5,251.4,97,249.7,97z"/>
<path class="stDM0" d="M249.7,97.6h-84.4c-2.1,0-3.8-1.7-3.8-3.8c0-2.1,1.7-3.8,3.8-3.8h84.4c2.1,0,3.8,1.7,3.8,3.8
	C253.5,95.9,251.8,97.6,249.7,97.6z M165.3,91.2c-1.4,0-2.5,1.1-2.5,2.5s1.1,2.5,2.5,2.5h84.4c1.4,0,2.5-1.1,2.5-2.5
	s-1.1-2.5-2.5-2.5H165.3z"/>
<path class="stDM7" d="M268,235.7h-74.7c-1.8,0-3.2-1.4-3.2-3.2l0,0c0-1.8,1.4-3.2,3.2-3.2H268c1.8,0,3.2,1.4,3.2,3.2l0,0
	C271.2,234.2,269.8,235.7,268,235.7z"/>
<path class="stDM0" d="M268,236.3h-74.7c-2.1,0-3.8-1.7-3.8-3.8c0-2.1,1.7-3.8,3.8-3.8H268c2.1,0,3.8,1.7,3.8,3.8
	C271.8,234.6,270.1,236.3,268,236.3z M193.3,229.9c-1.4,0-2.5,1.1-2.5,2.5s1.1,2.5,2.5,2.5H268c1.4,0,2.5-1.1,2.5-2.5
	s-1.1-2.5-2.5-2.5H193.3z"/>
<path class="stDM7" d="M249.7,249.4h-56.4c-1.8,0-3.2-1.4-3.2-3.2l0,0c0-1.8,1.4-3.2,3.2-3.2h56.4c1.8,0,3.2,1.4,3.2,3.2l0,0
	C252.9,247.9,251.4,249.4,249.7,249.4z"/>
<path class="stDM0" d="M249.7,250h-56.4c-2.1,0-3.8-1.7-3.8-3.8c0-2.1,1.7-3.8,3.8-3.8h56.4c2.1,0,3.8,1.7,3.8,3.8
	C253.5,248.3,251.8,250,249.7,250z M193.3,243.6c-1.4,0-2.5,1.1-2.5,2.5s1.1,2.5,2.5,2.5h56.4c1.4,0,2.5-1.1,2.5-2.5
	s-1.1-2.5-2.5-2.5H193.3z"/>
<path class="stDM6" d="M176.7,239.3c0,5.8-4.7,10.5-10.5,10.5c-5.8,0-10.5-4.7-10.5-10.5c0-5.8,4.7-10.5,10.5-10.5
	C172,228.8,176.7,233.5,176.7,239.3z"/>
<path class="stDM8" d="M166.2,250.4c-6.1,0-11.1-5-11.1-11.1s5-11.1,11.1-11.1s11.1,5,11.1,11.1S172.4,250.4,166.2,250.4z
	 M166.2,229.5c-5.4,0-9.8,4.4-9.8,9.8s4.4,9.8,9.8,9.8s9.8-4.4,9.8-9.8S171.6,229.5,166.2,229.5z"/>
<path class="stDM7" d="M169.8,235.7c-1.9-1.9-4.9-1.9-6.8,0c-1.6,1.6-1.8,4-0.7,5.8l-0.6,2.3l2.4-0.6c1.8,1,4.2,0.8,5.7-0.8
	C171.7,240.6,171.7,237.6,169.8,235.7z"/>
<linearGradient id="SVGID_1_" gradientUnits="userSpaceOnUse" x1="164.2282" y1="239.0883" x2="165.8003" y2="239.0883">
	<stop  offset="0" style="stop-color:#6C64AD"/>
	<stop  offset="1" style="stop-color:#625BA8"/>
</linearGradient>
<circle class="stDM9" cx="165" cy="239.1" r="0.8"/>
<linearGradient id="SVGID_00000002361305303556746900000003757403219606226344_" gradientUnits="userSpaceOnUse" x1="167.103" y1="239.0883" x2="168.675" y2="239.0883">
	<stop  offset="0" style="stop-color:#6C64AD"/>
	<stop  offset="1" style="stop-color:#625BA8"/>
</linearGradient>
<path style="fill:url(#SVGID_00000002361305303556746900000003757403219606226344_);" d="M168.7,239.1c0,0.4-0.4,0.8-0.8,0.8
	c-0.4,0-0.8-0.4-0.8-0.8s0.4-0.8,0.8-0.8C168.3,238.3,168.7,238.7,168.7,239.1z"/>
<path class="stDM6" d="M272.5,214.1H128.9c-3,0-5.5-2.4-5.5-5.5v-92.4c0-3,2.4-5.5,5.5-5.5h143.7c3,0,5.5,2.4,5.5,5.5v92.4
	C278,211.6,275.6,214.1,272.5,214.1z"/>
<path class="stDM8" d="M272.5,214.7H128.9c-3.4,0-6.1-2.7-6.1-6.1v-92.4c0-3.4,2.7-6.1,6.1-6.1h143.7c3.4,0,6.1,2.7,6.1,6.1v92.4
	C278.6,212,275.9,214.7,272.5,214.7z M128.9,111.4c-2.7,0-4.8,2.2-4.8,4.8v92.4c0,2.7,2.2,4.8,4.8,4.8h143.7c2.7,0,4.8-2.2,4.8-4.8
	v-92.4c0-2.7-2.2-4.8-4.8-4.8H128.9z"/>
<ellipse transform="matrix(0.9326 -0.3609 0.3609 0.9326 -22.3382 54.1722)" class="stDM6" cx="133.9" cy="86.9" rx="10.5" ry="10.5"/>
<circle class="stDM7" cx="133.9" cy="83.9" r="3.5"/>
<path class="stDM7" d="M133.9,89.2c-3.4,0-6.4,1.6-8.3,4.1c1.9,2.5,4.9,4.1,8.3,4.1c3.4,0,6.4-1.6,8.3-4.1
	C140.2,90.8,137.3,89.2,133.9,89.2z"/>
<path class="stDM8" d="M133.9,98c-6.1,0-11.1-5-11.1-11.1s5-11.1,11.1-11.1c6.1,0,11.1,5,11.1,11.1S140,98,133.9,98z M133.9,77.1
	c-5.4,0-9.8,4.4-9.8,9.8s4.4,9.8,9.8,9.8s9.8-4.4,9.8-9.8S139.3,77.1,133.9,77.1z"/>
<ellipse transform="matrix(0.9326 -0.3609 0.3609 0.9326 -77.3424 64.4429)" class="stDM11" cx="133.9" cy="239.3" rx="10.5" ry="10.5"/>
<path class="stDM0" d="M133.9,250.4c-6.1,0-11.1-5-11.1-11.1s5-11.1,11.1-11.1c6.1,0,11.1,5,11.1,11.1S140,250.4,133.9,250.4z
	 M133.9,229.5c-5.4,0-9.8,4.4-9.8,9.8s4.4,9.8,9.8,9.8s9.8-4.4,9.8-9.8S139.3,229.5,133.9,229.5z"/>
<path class="stDM7" d="M133.9,243.5l-0.7-0.6c-2.4-2.2-3.9-3.6-3.9-5.3c0-1.4,1.1-2.5,2.5-2.5c0.8,0,1.6,0.4,2.1,1
	c0.5-0.6,1.3-1,2.1-1c1.4,0,2.5,1.1,2.5,2.5c0,1.7-1.6,3.2-3.9,5.3L133.9,243.5z M133.9,243.5"/>
<path class="stDM7" d="M144.2,198.3c-0.7,0-1.3-0.6-1.3-1.3v-69.1c0-0.7,0.6-1.3,1.3-1.3s1.3,0.6,1.3,1.3V197
	C145.5,197.7,144.9,198.3,144.2,198.3z"/>
<path class="stDM7" d="M166.8,198.3c-0.7,0-1.3-0.6-1.3-1.3v-69.1c0-0.7,0.6-1.3,1.3-1.3s1.3,0.6,1.3,1.3V197
	C168.1,197.7,167.5,198.3,166.8,198.3z"/>
<path class="stDM7" d="M189.4,198.3c-0.7,0-1.3-0.6-1.3-1.3v-69.1c0-0.7,0.6-1.3,1.3-1.3s1.3,0.6,1.3,1.3V197
	C190.7,197.7,190.1,198.3,189.4,198.3z"/>
<path class="stDM7" d="M212,198.3c-0.7,0-1.3-0.6-1.3-1.3v-69.1c0-0.7,0.6-1.3,1.3-1.3s1.3,0.6,1.3,1.3V197
	C213.3,197.7,212.7,198.3,212,198.3z"/>
<path class="stDM7" d="M234.6,198.3c-0.7,0-1.3-0.6-1.3-1.3v-69.1c0-0.7,0.6-1.3,1.3-1.3s1.3,0.6,1.3,1.3V197
	C235.9,197.7,235.3,198.3,234.6,198.3z"/>
<path class="stDM7" d="M257.2,198.3c-0.7,0-1.3-0.6-1.3-1.3v-69.1c0-0.7,0.6-1.3,1.3-1.3s1.3,0.6,1.3,1.3V197
	C258.5,197.7,258,198.3,257.2,198.3z"/>
<path class="stDM2" d="M210.1,284.5h-50.4c-12.3,0-22.3,10-22.3,22.3v1.4c0,12.3,10,22.3,22.3,22.3h1.2v13.9l17.1-13.9h32.1
	c12.3,0,22.3-10,22.3-22.3v-1.4C232.4,294.5,222.4,284.5,210.1,284.5z"/>
<path class="stDM3" d="M160.3,345.8v-14.6h-0.6c-12.7,0-23-10.3-23-23v-1.4c0-12.7,10.3-23,23-23h50.4c12.7,0,23,10.3,23,23v1.4
	c0,12.7-10.3,23-23,23h-31.8L160.3,345.8z M159.7,285.2c-11.9,0-21.7,9.7-21.7,21.7v1.4c0,11.9,9.7,21.7,21.7,21.7h1.9v13.2
	l16.2-13.2h32.3c11.9,0,21.7-9.7,21.7-21.7v-1.4c0-11.9-9.7-21.7-21.7-21.7H159.7z"/>
<circle class="stDM6" cx="160.5" cy="307.5" r="10.5"/>
<path class="stDM8" d="M160.5,318.6c-6.1,0-11.1-5-11.1-11.1s5-11.1,11.1-11.1s11.1,5,11.1,11.1S166.6,318.6,160.5,318.6z
	 M160.5,297.7c-5.4,0-9.8,4.4-9.8,9.8s4.4,9.8,9.8,9.8s9.8-4.4,9.8-9.8S165.9,297.7,160.5,297.7z"/>
<path class="stDM7" d="M189.3,310.3h-5.7V308l5.6-7.1h3v7.1h1.6v2.3h-1.6v2.3h-2.9V310.3z M189.3,308.1V304h0l-3.1,4v0H189.3z"/>
<path class="stDM7" d="M194.5,306.9c0-3.9,1.7-6.2,5.1-6.2c2.8,0,4.3,1.4,4.3,3.7c0,0.2,0,0.5,0,0.6h-2.5c0-0.2,0-0.4,0-0.5
	c0-1-0.6-1.5-1.7-1.5c-1.6,0-2.3,1.4-2.3,3.6v0.7h0c0.2-1,1.2-1.6,3-1.6c2.5,0,3.9,1.2,3.9,3.1c0,2.4-1.7,3.9-4.7,3.9
	C196.1,312.8,194.5,310.6,194.5,306.9z M201.6,308.9c0-0.8-0.7-1.3-1.9-1.3c-1.3,0-2.1,0.5-2.1,1.4c0.1,1,0.9,1.5,2.1,1.5
	C200.9,310.5,201.6,309.9,201.6,308.9z"/>
<path class="stDM7" d="M205.4,306.7c0-3.7,1.6-6,4.9-6c3.3,0,4.9,2.2,4.9,6c0,3.6-1.5,6.1-4.9,6.1
	C206.9,312.8,205.4,310.3,205.4,306.7z M212.4,306.7c0-2.4-0.7-3.7-2.1-3.7c-1.4,0-2.1,1.3-2.1,3.7c0,2.4,0.6,3.8,2.1,3.8
	C211.8,310.5,212.4,309.1,212.4,306.7z"/>
<linearGradient id="SVGID_00000156556128961669015980000014753951733373774755_" gradientUnits="userSpaceOnUse" x1="155.3188" y1="308.4866" x2="157.1993" y2="308.4866">
	<stop  offset="0" style="stop-color:#F7F7F7"/>
	<stop  offset="1" style="stop-color:#E3E3E3"/>
</linearGradient>
<rect x="155.3" y="305.7" style="fill:url(#SVGID_00000156556128961669015980000014753951733373774755_);" width="1.9" height="5.6"/>
<linearGradient id="SVGID_00000129883922895009627460000012605073339492326319_" gradientUnits="userSpaceOnUse" x1="158.1396" y1="306.6061" x2="165.6617" y2="306.6061">
	<stop  offset="0" style="stop-color:#F7F7F7"/>
	<stop  offset="1" style="stop-color:#E3E3E3"/>
</linearGradient>
<path style="fill:url(#SVGID_00000129883922895009627460000012605073339492326319_);" d="M165.7,306.1c0-0.5-0.4-0.9-0.9-0.9h-3
	l0.4-2.1c0,0,0-0.1,0-0.1c0-0.2-0.1-0.4-0.2-0.5l-0.5-0.5l-3.1,3.1c-0.2,0.2-0.3,0.4-0.3,0.7v4.7c0,0.5,0.4,0.9,0.9,0.9h4.2
	c0.4,0,0.7-0.2,0.9-0.6l1.4-3.3c0-0.1,0.1-0.2,0.1-0.3V306.1L165.7,306.1L165.7,306.1z"/>
<path class="stDM8" d="M377.1,141h-43c-11.1,0-20.2,9-20.2,20.2l0,0c0,11.1,9,20.2,20.2,20.2h43c11.1,0,20.2-9,20.2-20.2l0,0
	C397.3,150,388.3,141,377.1,141z"/>
<path class="stDM6" d="M377.1,182h-43c-11.5,0-20.8-9.3-20.8-20.8s9.3-20.8,20.8-20.8h43c11.5,0,20.8,9.3,20.8,20.8
	S388.6,182,377.1,182z M334.1,141.6c-10.8,0-19.5,8.8-19.5,19.5s8.8,19.5,19.5,19.5h43c10.8,0,19.5-8.8,19.5-19.5
	s-8.8-19.5-19.5-19.5H334.1z"/>
<polygon class="stDM7" points="341.6,151 344.6,157 351.2,157.9 346.4,162.6 347.5,169.1 341.6,166 335.7,169.1 336.9,162.6 
	332.1,157.9 338.7,157 "/>
<polygon class="stDM7" points="369.6,151 372.6,157 379.2,157.9 374.4,162.6 375.5,169.1 369.6,166 363.7,169.1 364.9,162.6 
	360.1,157.9 366.7,157 "/>
<path class="stDM14" d="M330.3,291.8h-75.5c-5.7,0-10.3-4.6-10.3-10.3V206c0-5.7,4.6-10.3,10.3-10.3h75.5c5.7,0,10.3,4.6,10.3,10.3
	v75.5C340.6,287.2,336,291.8,330.3,291.8z"/>
<path class="stDM7" d="M294.6,279.2h-34c-1.8,0-3.2-1.4-3.2-3.2l0,0c0-1.8,1.4-3.2,3.2-3.2h34c1.8,0,3.2,1.4,3.2,3.2l0,0
	C297.7,277.8,296.3,279.2,294.6,279.2z"/>
<path class="stDM6" d="M294.6,279.9h-34c-2.1,0-3.8-1.7-3.8-3.8s1.7-3.8,3.8-3.8h34c2.1,0,3.8,1.7,3.8,3.8S296.7,279.9,294.6,279.9z
	 M260.5,273.5c-1.4,0-2.5,1.1-2.5,2.5s1.1,2.5,2.5,2.5h34c1.4,0,2.5-1.1,2.5-2.5s-1.1-2.5-2.5-2.5H260.5z"/>
<path class="stDM7" d="M324.5,279.2H307c-1.8,0-3.2-1.4-3.2-3.2l0,0c0-1.8,1.4-3.2,3.2-3.2h17.5c1.8,0,3.2,1.4,3.2,3.2l0,0
	C327.7,277.8,326.2,279.2,324.5,279.2z"/>
<path class="stDM6" d="M324.5,279.9H307c-2.1,0-3.8-1.7-3.8-3.8s1.7-3.8,3.8-3.8h17.5c2.1,0,3.8,1.7,3.8,3.8S326.6,279.9,324.5,279.9z
	 M307,273.5c-1.4,0-2.5,1.1-2.5,2.5s1.1,2.5,2.5,2.5h17.5c1.4,0,2.5-1.1,2.5-2.5s-1.1-2.5-2.5-2.5H307z"/>
<path class="stDM7" d="M322.5,247.5h-60c-2.9,0-5.2-2.3-5.2-5.2v-28.5c0-2.9,2.3-5.2,5.2-5.2h60c2.9,0,5.2,2.3,5.2,5.2v28.5
	C327.7,245.2,325.4,247.5,322.5,247.5z"/>
<path class="stDM5" d="M322.5,248.1h-60c-3.2,0-5.8-2.6-5.8-5.8v-28.5c0-3.2,2.6-5.8,5.8-5.8h60c3.2,0,5.8,2.6,5.8,5.8v28.5
	C328.3,245.5,325.7,248.1,322.5,248.1z M262.5,209.3c-2.5,0-4.5,2-4.5,4.5v28.5c0,2.5,2,4.5,4.5,4.5h60c2.5,0,4.5-2,4.5-4.5v-28.5
	c0-2.5-2-4.5-4.5-4.5H262.5z"/>
<path class="stDM11" d="M297.8,226.9l-9.1-5.2c-0.9-0.5-1.9,0.1-1.9,1.1v10.5c0,1,1.1,1.6,1.9,1.1l9.1-5.2
	C298.7,228.7,298.7,227.4,297.8,226.9z"/>
<path class="stDM7" d="M325.4,261h-65.9c-0.7,0-1.3-0.6-1.3-1.3s0.6-1.3,1.3-1.3h65.9c0.7,0,1.3,0.6,1.3,1.3S326.2,261,325.4,261z"/>
<path class="stDM11" d="M280.3,261h-20.7c-0.7,0-1.3-0.6-1.3-1.3s0.6-1.3,1.3-1.3h20.7c0.7,0,1.3,0.6,1.3,1.3S281,261,280.3,261z"/>
<circle class="stDM11" cx="278.5" cy="259.7" r="4.3"/>
<path class="stDM14" d="M135,24.8H84.6c-12.3,0-22.3,10-22.3,22.3v1.4c0,12.3,10,22.3,22.3,22.3h1.2v13.9l17.1-13.9H135
	c12.3,0,22.3-10,22.3-22.3v-1.4C157.3,34.8,147.3,24.8,135,24.8z"/>
<path class="stDM15" d="M85.1,86.1V71.5h-0.6c-12.7,0-23-10.3-23-23v-1.4c0-12.7,10.3-23,23-23H135c12.7,0,23,10.3,23,23v1.4
	c0,12.7-10.3,23-23,23h-31.8L85.1,86.1z M84.6,25.5c-11.9,0-21.7,9.7-21.7,21.7v1.4c0,11.9,9.7,21.7,21.7,21.7h1.9v13.2l16.2-13.2
	H135c11.9,0,21.7-9.7,21.7-21.7v-1.4c0-11.9-9.7-21.7-21.7-21.7H84.6z"/>
<path class="stDM2" d="M95.8,47.8c0,5.8-4.7,10.5-10.5,10.5s-10.5-4.7-10.5-10.5c0-5.8,4.7-10.5,10.5-10.5S95.8,42,95.8,47.8z"/>
<path class="stDM3" d="M85.3,58.9c-6.1,0-11.1-5-11.1-11.1s5-11.1,11.1-11.1s11.1,5,11.1,11.1S91.5,58.9,85.3,58.9z M85.3,38
	c-5.4,0-9.8,4.4-9.8,9.8c0,5.4,4.4,9.8,9.8,9.8s9.8-4.4,9.8-9.8C95.2,42.4,90.8,38,85.3,38z"/>
<path class="stDM7" d="M85.3,52.6l-0.7-0.6c-2.4-2.2-4-3.7-4-5.5c0-1.5,1.1-2.6,2.6-2.6c0.8,0,1.6,0.4,2.1,1c0.5-0.6,1.3-1,2.1-1
	c1.5,0,2.6,1.1,2.6,2.6c0,1.8-1.6,3.2-4,5.5L85.3,52.6z M85.3,52.6"/>
<path class="stDM7" d="M113.3,45.9h-2.5V44l1.4,0c1.2,0,1.6-0.7,1.6-2.8h2.4v11.7h-2.9V45.9z"/>
<path class="stDM7" d="M118.4,49.8c0-0.2,0-0.4,0-0.5h2.6c0,0.1,0,0.2,0,0.3c0,0.8,0.8,1.2,2.1,1.2c1.2,0,1.8-0.7,1.8-1.8
	c0-1.1-0.7-1.7-1.9-1.7c-1,0-1.7,0.4-1.9,1.1l-2.6-0.2l0.5-6.8h8v2.3h-5.7l-0.2,3.3l0,0c0.3-0.9,1.3-1.4,2.8-1.4
	c2.5,0,3.8,1.4,3.8,3.6c0,2.6-1.8,4.1-4.6,4.1C120.1,53.1,118.4,51.9,118.4,49.8z"/>
<path class="stDM7" d="M128.8,47c0-3.7,1.6-6,4.9-6c3.3,0,4.9,2.2,4.9,6c0,3.6-1.5,6.1-4.9,6.1C130.3,53.1,128.8,50.6,128.8,47z
	 M135.8,47c0-2.4-0.7-3.7-2.1-3.7c-1.4,0-2.1,1.3-2.1,3.7c0,2.4,0.6,3.8,2.1,3.8C135.2,50.8,135.8,49.4,135.8,47z"/>
<path class="stDM6" d="M221.3,45.1h-1.9v-1.9c0-0.4-0.3-0.6-0.6-0.6s-0.6,0.3-0.6,0.6v1.9h-1.9c-0.4,0-0.6,0.3-0.6,0.6
	s0.3,0.6,0.6,0.6h1.9v1.9c0,0.4,0.3,0.6,0.6,0.6s0.6-0.3,0.6-0.6v-1.9h1.9c0.4,0,0.6-0.3,0.6-0.6S221.7,45.1,221.3,45.1z"/>
<path class="stDM6" d="M110.6,317.7c-0.4,0-0.6-0.3-0.6-0.6v-5.1c0-0.4,0.3-0.6,0.6-0.6s0.6,0.3,0.6,0.6v5.1
	C111.3,317.4,111,317.7,110.6,317.7z"/>
<path class="stDM6" d="M113.2,315.1h-5.1c-0.4,0-0.6-0.3-0.6-0.6s0.3-0.6,0.6-0.6h5.1c0.4,0,0.6,0.3,0.6,0.6S113.5,315.1,113.2,315.1z
	"/>
<path class="stDM2" d="M89.1,120.6h-3.5v-3.5c0-0.7-0.6-1.3-1.3-1.3s-1.3,0.6-1.3,1.3v3.5h-3.5c-0.7,0-1.3,0.6-1.3,1.3
	s0.6,1.3,1.3,1.3h3.5v3.5c0,0.7,0.6,1.3,1.3,1.3s1.3-0.6,1.3-1.3v-3.5h3.5c0.7,0,1.3-0.6,1.3-1.3S89.8,120.6,89.1,120.6z"/>
<path class="stDM11" d="M265.6,325.2c-0.7,0-1.3-0.6-1.3-1.3v-9.5c0-0.7,0.6-1.3,1.3-1.3s1.3,0.6,1.3,1.3v9.5
	C266.9,324.7,266.3,325.2,265.6,325.2z"/>
<path class="stDM11" d="M270.4,320.5h-9.5c-0.7,0-1.3-0.6-1.3-1.3s0.6-1.3,1.3-1.3h9.5c0.7,0,1.3,0.6,1.3,1.3S271.1,320.5,270.4,320.5
	z"/>
<path class="stDM14" d="M353.7,112.7h-1.9v-1.9c0-0.4-0.3-0.6-0.6-0.6s-0.6,0.3-0.6,0.6v1.9h-1.9c-0.4,0-0.6,0.3-0.6,0.6
	s0.3,0.6,0.6,0.6h1.9v1.9c0,0.4,0.3,0.6,0.6,0.6s0.6-0.3,0.6-0.6V114h1.9c0.4,0,0.6-0.3,0.6-0.6S354.1,112.7,353.7,112.7z"/>
<path class="stDM0" d="M168.7,10.1c-2.8,0-5.1-2.3-5.1-5.1s2.3-5.1,5.1-5.1s5.1,2.3,5.1,5.1S171.5,10.1,168.7,10.1z M168.7,2.6
	c-1.4,0-2.5,1.1-2.5,2.5s1.1,2.5,2.5,2.5s2.5-1.1,2.5-2.5S170,2.6,168.7,2.6z"/>
<path class="stDM3" d="M373.4,221.7c-2.8,0-5.1-2.3-5.1-5.1s2.3-5.1,5.1-5.1s5.1,2.3,5.1,5.1S376.2,221.7,373.4,221.7z M373.4,214.2
	c-1.4,0-2.5,1.1-2.5,2.5s1.1,2.5,2.5,2.5s2.5-1.1,2.5-2.5S374.8,214.2,373.4,214.2z"/>
<path class="stDM14" d="M73.8,277.9c-2.8,0-5.1-2.3-5.1-5.1s2.3-5.1,5.1-5.1s5.1,2.3,5.1,5.1S76.6,277.9,73.8,277.9z M73.8,270.3
	c-1.4,0-2.5,1.1-2.5,2.5s1.1,2.5,2.5,2.5s2.5-1.1,2.5-2.5S75.1,270.3,73.8,270.3z"/>
<path class="stDM2" d="M213.2,174.9c-14.6,0-31.1-6.7-43.3-11.8c-5.3-2.2-9.8-4-12.7-4.7c-6.1-1.4-12,0.4-19.4,2.6
	c-3.7,1.1-7.9,2.4-12.5,3.4c-10.9,2.3-21.8-1.8-27.4-4.5c-2.1-1-2.9-3.7-1.7-5.7l0,0c1.1-1.7,3.3-2.4,5.1-1.5
	c4.6,2.2,13.7,5.7,22.3,3.9c4.3-0.9,8.1-2.1,11.8-3.3c8.2-2.5,15.3-4.7,23.6-2.8c3.5,0.8,8.1,2.7,13.9,5.1c12.6,5.2,30,12.3,43.6,11
	c14.1-1.3,29.7-10,46.6-25.8c1-0.9,2-1.9,3-3c7.6-7.7,17-17.3,42.5-12.9c2.2,0.4,3.7,2.6,3.2,4.8l0,0c-0.5,2.1-2.5,3.5-4.6,3.1
	c-21.3-3.7-28.2,3.2-35.5,10.6c-1,1.1-2.1,2.1-3.2,3.2c-18.2,17.1-35.4,26.5-51.3,27.9C216,174.9,214.6,174.9,213.2,174.9z"/>
</svg>
