<?xml version="1.0" encoding="utf-8"?>
<!-- Generator: Adobe Illustrator 26.1.0, SVG Export Plug-In . SVG Version: 6.00 Build 0)  -->
<svg version="1.1" id="Layer_1" xmlns="http://www.w3.org/2000/svg" xmlns:xlink="http://www.w3.org/1999/xlink" x="0px" y="0px"
	 viewBox="0 0 308.61 353.79" style="enable-background:new 0 0 308.61 353.79;" xml:space="preserve">
<style type="text/css">
	.hc0{opacity:0.78;fill:#FFFFFF;enable-background:new    ;}
	.hc1{fill:#36B3B6;}
	.hc2{fill:#123A60;}
	.hc3{fill:#F47C2A;}
	.hc4{fill:#FFFFFF;}
	.hc5{fill:#BB2025;}
	.hc6{fill:#CDE3E8;}
	.hc7{fill:#A0C3D3;}
	.hc8{fill:#22608A;}
</style>
<g>
	<path class="hc0" d="M303.41,262.51c0,2.87-2.04,6.41-4.52,7.84l-142.65,82.36c-2.5,1.44-6.57,1.44-9.06,0L4.53,270.35
		c-2.5-1.44-4.53-4.97-4.53-7.84V97.79c0-2.88,2.04-6.41,4.53-7.84L147.18,7.59c2.49-1.44,6.56-1.44,9.06,0l142.65,82.36
		c2.48,1.44,4.52,4.97,4.52,7.84L303.41,262.51L303.41,262.51z"/>
	<path class="hc1" d="M299.69,260.49c0,2.81-1.99,6.25-4.41,7.65l-139.16,80.34c-2.43,1.4-6.41,1.4-8.84,0L8.13,268.14
		c-2.43-1.4-4.42-4.85-4.42-7.65V99.81c0-2.81,1.99-6.25,4.42-7.65l139.16-80.34c2.42-1.4,6.4-1.4,8.84,0l139.16,80.34
		c2.42,1.4,4.41,4.85,4.41,7.65v160.68H299.69z"/>
	<rect x="142.3" y="37.55" class="hc2" width="18.91" height="34.45"/>
	<g>
		<g>
			<defs>
				<path id="SVGID_1_" d="M300.04,260.14c0,2.81-1.99,6.25-4.41,7.65l-139.16,80.34c-2.43,1.4-6.41,1.4-8.84,0L8.49,267.79
					c-2.43-1.4-4.42-4.85-4.42-7.65V99.46c0-2.8,1.99-6.25,4.42-7.65l139.15-80.34c2.43-1.4,6.4-1.4,8.84,0L295.63,91.8
					c2.42,1.4,4.41,4.85,4.41,7.65V260.14z"/>
			</defs>
			<clipPath id="SVGID_00000086681719685845453130000017059871416406546616_">
				<use xlink:href="#SVGID_1_"  style="overflow:visible;"/>
			</clipPath>
		</g>
	</g>
	<g>
		<g>
			<g>
				<g>
					<path class="hc2" d="M290.69,38.18c-2.86,1.07-4.07,1.81-4.65,2.45c-0.47,0.52-1.68,2.18-1.66,5.85
						c0.01,2.6-0.47,19.45,3.75,30.24c0.42,0.84,1.23,0.54,1.65-0.1c0.55-0.82,1.44-6.6,0.84-7.07c-0.6-0.46-1.83-0.96-2.38-1.97
						c-0.56-1.01,0.14-18.75,0.46-19.64c0.33-0.91,1.4-0.75,2.17-0.63C290.25,43.19,290.69,38.18,290.69,38.18z"/>
				</g>
			</g>
		</g>
		<g>
			<path class="hc3" d="M306.47,48.71H183.76c-1.19,0-2.14,0.96-2.14,2.15v159.09c0,1.18,0.96,2.14,2.14,2.14h122.71
				c1.19,0,2.14-0.96,2.14-2.14V50.86C308.61,49.67,307.65,48.71,306.47,48.71z"/>
			<path class="hc4" d="M292.2,176.33c-0.03,0.03-13.74,14.66-13.61,14.66h-78.98c-0.88,0-1.59-0.7-1.59-1.58V71.42
				c0-0.88,0.71-1.58,1.59-1.58h91c0.88,0,1.58,0.71,1.58,1.58v104.91H292.2z"/>
			<path class="hc5" d="M267.23,44.88H223c-1.08,0-1.96,0.88-1.96,1.96c0,1.08,0.88,1.96,1.96,1.96h3.42
				c-0.46,0.72-0.74,1.57-0.74,2.49c0,2.56,2.08,4.64,4.64,4.64h29.61c2.56,0,4.64-2.08,4.64-4.64c0-0.92-0.28-1.77-0.75-2.49h3.42
				c1.08,0,1.96-0.88,1.96-1.96C269.19,45.76,268.31,44.88,267.23,44.88z"/>
			<rect x="211.76" y="87.39" class="hc6" width="66.71" height="2.71"/>
			<rect x="211.76" y="99.02" class="hc6" width="66.71" height="2.71"/>
			<rect x="211.76" y="111.46" class="hc6" width="66.71" height="2.71"/>
			<rect x="211.76" y="123.09" class="hc6" width="66.71" height="2.7"/>
			<rect x="211.76" y="135.53" class="hc6" width="66.71" height="2.71"/>
			<rect x="211.76" y="147.16" class="hc6" width="66.71" height="2.71"/>
			<rect x="211.76" y="159.6" class="hc6" width="66.71" height="2.71"/>
			<g>
				<path class="hc7" d="M280.13,176.28h12.1l-13.69,14.75v-13.16C278.54,176.99,279.25,176.28,280.13,176.28z"/>
			</g>
		</g>
		<g>
			<g>
				<path class="hc2" d="M297.79,154.63c0,0-0.97,2.35-1.47,2.35c-0.49,0-1.54-2.43-1.54-2.43L297.79,154.63z"/>
				<path class="hc4" d="M297.79,154.7c1.19-2.66,2.17-10.92,2.3-12.52l-7.53,0.04c0.08,2.53,1.62,10.79,2.26,12.51
					C296.55,154.71,297.57,154.71,297.79,154.7z"/>
				<path class="hc2" d="M300.04,142.45c0.78-3.86,2.3-59.34,2.3-59.34l-12.56-0.02c0,0,2.06,55.53,2.84,59.4
					C297.09,142.57,299.28,142.46,300.04,142.45z"/>
				<path class="hc3" d="M296.09,38.68h0.04c0,0,0,0,0.01-0.01l6.29-0.42c0-0.54,0.47-8.01-6.3-8.12l0,0c-0.02,0-0.03,0-0.04,0
					s-0.02,0-0.04,0l0,0c-6.77,0.12-6.29,7.58-6.29,8.12l6.29,0.42c0,0.01,0,0.01,0,0.01H296.09z"/>
				<path class="hc2" d="M296.07,81.36l1.76,0.18v-0.37l4.63-0.15c0-0.38,0.37-42.02-0.07-44.04c-2.93-0.06-5-0.06-6.32-0.04
					c-1.32-0.02-3.39-0.02-6.31,0.04c-0.45,2.02,0.2,43.29,0.2,43.67l4.35,0.52v0.37L296.07,81.36z"/>
				<path class="hc4" d="M289.7,83.68c-0.15,0-0.27-0.11-0.27-0.25v-3.15c0-0.14,0.12-0.25,0.27-0.25h13.12
					c0.14,0,0.27,0.12,0.27,0.25v3.15c0,0.14-0.13,0.25-0.27,0.25H289.7z"/>
			</g>
		</g>
	</g>
	<g>
		<path class="hc8" d="M166.39,146.8c0-10.93,8.86-19.79,19.79-19.79s19.79,8.86,19.79,19.79s-8.86,19.79-19.79,19.79
			C175.25,166.59,166.39,157.73,166.39,146.8z"/>
		<g>
			<g>
				<g>
					<g>
						<path class="hc2" d="M195.78,165.5c5.17,13.96,11.19,32.67,11.2,52.54l0,0c0,9.76-1.46,19.82-5.23,29.68l0,0
							c-2.77,7.16-7.19,13.3-12.63,18.27l0,0c-4.24,9.09-11.8,16.88-20.94,22.71l0,0c-10.77,6.84-23.78,11-36.63,11.01l0,0
							c-6.46,0-12.87-1.06-18.89-3.41l0,0c-16.91-6.56-25.72-17.75-29.94-28.61l0,0c-4.27-10.84-4-21.12-4.22-26.85l8.79-0.4
							c-0.61,5.8-2.15,15.32,1.59,24.82l0,0c3.78,9.47,10.92,18.86,26.19,24.87l0,0c5.16,2.01,10.74,2.96,16.48,2.95l0,0
							c11.4,0.01,23.34-3.76,33.07-9.97l0,0c3.41-2.16,6.53-4.61,9.27-7.28l0,0c-6.96,3.04-14.44,4.65-21.72,4.67l0,0
							c-7.88,0-15.6-1.91-22.13-6.15l0,0c-6.53-4.22-11.78-10.79-14.63-19.61l0,0c-1.79-5.48-2.62-10.69-2.62-15.58l0,0
							c-0.02-11.84,5-21.68,12.77-28.31l0,0c7.76-6.66,18.17-10.24,29.11-10.24l0,0c3.24,0,6.53,0.32,9.82,0.96l0,0
							c16.77,3.33,29.45,20.06,29.43,41.42l0,0c0,2.25-0.14,4.56-0.43,6.9l0,0c0.78-1.46,1.48-2.98,2.07-4.55l0,0
							c3.44-8.99,4.8-18.21,4.8-27.31l0,0c0.01-18.95-5.95-37.27-11.12-51.12L195.78,165.5z M129.87,215.88
							c-6.4,5.53-10.44,13.31-10.46,23.28l0,0c0,4.13,0.72,8.65,2.3,13.53l0,0c2.46,7.5,6.66,12.66,11.94,16.1l0,0
							c5.27,3.42,11.7,5.08,18.52,5.08l0,0c10.95,0.03,22.67-4.33,31.5-11.92l0,0c0.4-0.95,0.75-1.91,1.05-2.89l0,0
							c1.77-5.64,2.56-11.04,2.56-16.07l0,0c-0.02-18.83-11.03-32.4-24.07-34.92l0,0c-2.87-0.56-5.73-0.83-8.54-0.83l0,0
							c-0.01,0-0.01,0-0.02,0l0,0C145.15,207.25,136.28,210.38,129.87,215.88L129.87,215.88z"/>
					</g>
				</g>
				<g>
					<path class="hc6" d="M185.96,123.33c-13.01,0-23.55,10.54-23.55,23.54s10.54,23.55,23.55,23.55c13,0,23.54-10.54,23.54-23.55
						C209.5,133.87,198.96,123.33,185.96,123.33z M186.26,164.72c-9.99,0-18.1-8.11-18.1-18.09c0-10,8.1-18.1,18.1-18.1
						c9.99,0,18.09,8.1,18.09,18.1C204.36,156.61,196.25,164.72,186.26,164.72z"/>
					<g>
						<path class="hc4" d="M186.49,132.02c-7.77,0-14.08,6.31-14.08,14.09s6.31,14.09,14.08,14.09c7.78,0,14.09-6.31,14.09-14.09
							S194.28,132.02,186.49,132.02z M186.49,155.52c-5.2,0-9.42-4.22-9.42-9.42s4.22-9.42,9.42-9.42c5.21,0,9.43,4.22,9.43,9.42
							C195.92,151.31,191.7,155.52,186.49,155.52z"/>
						<path class="hc4" d="M194.42,146.1c0,4.38-3.55,7.92-7.92,7.92c-4.38,0-7.93-3.55-7.93-7.92c0-4.38,3.54-7.93,7.93-7.93
							C190.87,138.17,194.42,141.72,194.42,146.1z"/>
					</g>
				</g>
				<g>
					<g>
						<path class="hc2" d="M48,167.13c-0.82-2.3-4.51-1.82-7.59-0.53c-2.47,1.03-1.17,3.83-0.62,6.17
							c0.42,1.79,5.67,21.65,10.27,31.86c4.02,8.93,13.39,23.62,34.17,22.56c14.3-0.73,22.16-6.3,29.16-22.23
							c7.09-16.12,12.09-34.16,12.23-35.84c0.14-1.54-0.49-2.59-2.62-3.05c-2.13-0.45-4.11-0.92-4.76,0.31
							c-0.66,1.22-9.31,32.2-14.04,39.98c-4.65,7.65-9.4,13.2-20.29,13.06c-10.56-0.13-21.98-3.32-29-27.61
							C49.06,171.64,48,167.13,48,167.13z"/>
					</g>
					<g>
						<path class="hc4" d="M44.14,162.66c-3.41-12-8.57-31.95-8.56-49.46c0-1.11,0.02-2.2,0.06-3.26
							c0.84-20.38,9.7-27.35,15.58-28.58c2.37-0.5,5.14-0.69,7.95-0.69c4.78,0,9.67,0.54,13.18,0.85l0.33-2.91l0,0
							c-3.45-0.3-8.46-0.86-13.51-0.86c-2.98,0-5.98,0.19-8.73,0.77c-7.94,1.7-17.3,10.3-18.12,31.3c-0.05,1.1-0.07,2.22-0.07,3.37
							c0.01,18.23,4.28,36.31,8.31,50.33L44.14,162.66z"/>
						<g>
							<path class="hc2" d="M68.55,83.46c-0.5-0.22-0.74-1.15-0.69-2.78c0.05-1.63,0.2-3.72,1.02-4.04
								c0.82-0.33,4.32-1.65,7.05-1.47c2.59,0.17,5.36,1.26,5.63,4.8c0.22,2.82-0.89,5.82-5.57,5.88
								C71.52,85.92,68.55,83.46,68.55,83.46z"/>
						</g>
					</g>
					<g>
						<path class="hc4" d="M134.48,110.34c-0.32-21.01-9.48-29.79-17.37-31.64c-2.74-0.63-5.73-0.88-8.71-0.93
							c-5.04-0.09-10.08,0.37-13.52,0.61l0.26,2.92c3.51-0.24,8.42-0.69,13.19-0.61c2.82,0.05,5.58,0.29,7.94,0.84
							c5.85,1.33,14.54,8.47,14.9,28.85c0.02,1.06,0.01,2.14-0.02,3.26c-0.4,17.69-6.32,37.46-10.07,49.33
							c0.76,0.13,3.29,0.75,4.09,0.89c3.62-12.15,8.87-32.19,9.3-50.16C134.5,112.55,134.5,111.43,134.48,110.34z"/>
						<g>
							<path class="hc2" d="M100.4,83.04c0.5-0.24,0.69-1.17,0.57-2.8c-0.12-1.62-0.35-3.7-1.18-3.99c-0.83-0.3-4.39-1.47-7.11-1.17
								c-2.58,0.28-5.3,1.49-5.43,5.04c-0.1,2.82,1.14,5.78,5.82,5.64C97.54,85.62,100.4,83.04,100.4,83.04z"/>
						</g>
					</g>
				</g>
				<g>
					<g>
						<path class="hc2" d="M71.77,229.28c0.3,0.74,6.82,16.71,6.82,16.71h8.1c0,0,6.16-16.23,6.35-16.75
							c-2.21,0.62-5.99,1.45-8.65,1.5C79.02,230.84,76.05,230.54,71.77,229.28z"/>
					</g>
				</g>
			</g>
		</g>
	</g>
	<g>
		<g>
			<g>
				<path class="hc1" d="M145.72,100.57c-1.22-0.74-2.48-1.84-3.41-2.73c2.75,15.13,7.07,34.1,7.03,62.8l3.68-0.03
					c-0.53-28.9,4.13-48.23,6.58-63.36c-0.92,0.99-2.65,2.68-4.64,3.68C152.55,102.15,148.87,102.49,145.72,100.57z"/>
				<path class="hc4" d="M149.75,164.35c0.01,0.96,0.61,1.74,1.35,1.73h0.33c0.74-0.01,1.33-0.79,1.33-1.75l0.28-4.01h-3.58
					L149.75,164.35z"/>
				<path class="hc4" d="M155.38,21.27c-1.01,3.3-0.19-4.15-5.11-3.93c-4.87,0.21-6.54,8.15-7.58,5.11
					c-0.69-2.04-4.68-1.73-6.44-3.05c-0.2,0.98-0.28,2.41-0.36,3.59c-1.51,24.42,5.33,70.91,6.12,74.57c0,0,1.92,1.87,4.16,3.24
					c3.03,1.85,6.56,1.52,8.87,0.35c2.83-1.43,4.64-4.06,4.64-4.06c0.71-3.67,6.18-50.15,4.16-74.54c-0.09-0.97-0.18-1.89-0.27-2.79
					C160.4,20.81,156.23,18.48,155.38,21.27z M156.46,43.56l0.2,23.09c0.01,1.55-1.18,2.82-2.67,2.83l-7.13,0.07
					c-1.49,0.01-2.71-1.24-2.72-2.79l-0.21-23.09c-0.01-1.55,1.19-2.82,2.67-2.84l7.14-0.06C155.23,40.76,156.45,42.01,156.46,43.56
					z"/>
				<path class="hc6" d="M149.9,58.67l-1.27,0.01l0.01,1.27h1.26L149.9,58.67z M149.89,54.13h-1.27l0.01,1.27h1.27L149.89,54.13z
					 M148.51,66.35l3.66-0.01c1.18,0,2.13-0.87,2.13-1.94l-0.06-18.95c0-1.07-0.96-1.93-2.14-1.92l-3.67,0.01
					c-1.18,0-2.14,0.87-2.13,1.93l0.06,18.94C146.36,65.49,147.32,66.36,148.51,66.35z M147.98,50.78l0.51-0.51h0.44v0.63h-0.31
					v1.27h1.27l-0.01-0.63h0.64v0.63h1.27V50.9h-0.33l0.01-0.63h0.44l0.51,0.5v1.52l-0.5,0.51l-1.52,0.01l-0.19-0.19l-0.19,0.19
					h-1.52l-0.5-0.5L147.98,50.78z M147.99,54l0.5-0.51l3.42-0.01l0.51,0.5v1.52l-0.5,0.51h-0.45l0.01-0.64h0.31l-0.01-1.26h-1.26
					v1.4l-0.51,0.51l-1.52,0.01l-0.51-0.51L147.99,54L147.99,54z M147.99,56.72h0.63l0.01,0.63H148L147.99,56.72z M148,58.55
					l0.5-0.51l3.42-0.01l0.51,0.51v1.52l-0.5,0.51h-0.44l-0.01-0.64h0.32v-1.26h-1.27v1.39l-0.51,0.51h-1.52l-0.5-0.5V58.55z"/>
				<path class="hc3" d="M144.6,28.4c-0.07-3.11,2.38-5.36,5.5-5.38c3.11-0.01,5.58,2.47,5.59,5.59c0.01,0.52,0.21,0.74,0.08,1.21
					c0.61-1.12,0.77-2.65,1.1-3.74c0.89-2.94,4.78-6.11,6.72-6.24C161.56,1.81,156.32,0.1,150.23,0l-0.07,0.02
					c-6.3,0.01-12.2,2.29-13.95,19.73c0.34,0.2,5.78,3.51,6.45,5.61c0.53,1.62,1.29,4.08,1.9,4.47
					C144.55,29.83,144.62,29.42,144.6,28.4z"/>
				<path class="hc3" d="M152.86,28.75c0,1.39-1.12,2.51-2.51,2.52c-1.38,0.01-2.51-1.12-2.52-2.5c-0.01-1.39,1.11-2.52,2.5-2.52
					C151.73,26.25,152.85,27.37,152.86,28.75z"/>
			</g>
		</g>
	</g>
</g>
</svg>
