<?xml version="1.0" encoding="utf-8"?>
<!-- Generator: Adobe Illustrator 26.3.1, SVG Export Plug-In . SVG Version: 6.00 Build 0)  -->
<svg version="1.1" id="Layer_1" xmlns="http://www.w3.org/2000/svg" xmlns:xlink="http://www.w3.org/1999/xlink" x="0px" y="0px"
	 viewBox="0 0 280.8 316.8" style="enable-background:new 0 0 280.8 316.8;" xml:space="preserve">
<style type="text/css">
	.wecreate0{fill:#8771B3;}
	.wecreate1{fill:#6659A6;}
	.wecreate2{fill:#55C2B1;}
	.wecreate3{opacity:0.5;}
	.wecreate4{opacity:0.7;}
	.wecreate5{opacity:0.3;}
	.wecreate6{opacity:0.7;fill:#55C2B1;}
	.wecreate7{opacity:0.6;}
	.wecreate8{opacity:0.2;}
	.wecreate9{fill:#FAFBFB;}
	.wecreate10{opacity:0.5;fill:#FFFFFF;}
	.wecreate11{fill:#E1E1E1;}
	.wecreate12{fill:#2B464F;}
	.wecreate13{opacity:0.8;}
	.wecreate14{fill:#385A65;}
	.wecreate15{opacity:0.4;}
	.wecreate16{fill:#FFFFFF;}
	.wecreate17{opacity:0.15;}
	.wecreate18{opacity:0.9;fill:#2B464F;}
	.wecreate19{fill:#192E35;}
	.wecreate20{fill:#F5F6F6;}
	.wecreate21{opacity:0.6;fill:#FFFFFF;}
</style>
<g>
	<ellipse id="Floor_7_" class="wecreate0" cx="140.4" cy="218.5" rx="140.4" ry="98.3"/>
	<path id="Shadow_18_" class="wecreate1" d="M242.2,248.4l28.3-16.3c1-0.6,1-1.5,0-2.1l-155.8-90c-1-0.6-2.6-0.6-3.6,0l-28.3,16.3
		c-1,0.6-1,1.5,0,2.1l155.8,90C239.6,248.9,241.2,248.9,242.2,248.4z"/>
	<g id="PC">
		<g id="Monitor">
			<g id="XMLID_947_">
				<g id="XMLID_1161_">
					<path id="XMLID_1162_" class="wecreate2" d="M144.2,222.8l-22.8-13.2c-2.3-1.4-3.5-3.1-3.5-4.9c0-1.8,0-3.2,0-3.2l27.4-15.5
						c1.3-0.7,2.3-2.5,2.3-3.9v-28.1l39.8,23l0,28.1c0,1.4-1,3.2-2.3,3.9l-23.9,13.8C156.5,225.5,148.9,225.5,144.2,222.8z"/>
				</g>
				<g id="XMLID_941_" class="wecreate3">
					<path id="XMLID_942_" d="M144.2,222.8l-22.8-13.2c-2.3-1.4-3.5-3.1-3.5-4.9c0-1.8,0-3.2,0-3.2l27.4-15.5
						c1.3-0.7,2.3-2.5,2.3-3.9v-28.1l39.8,23l0,28.1c0,1.4-1,3.2-2.3,3.9l-23.9,13.8C156.5,225.5,148.9,225.5,144.2,222.8z"/>
				</g>
				<path id="XMLID_950_" class="wecreate2" d="M177.8,210.1v3.2l7.3-4.2c1.2-0.7,2.3-2.5,2.3-3.9V177l-7.6-4.4c-0.2,1.9-0.3,3.9-0.5,5.8
					l5.3,3.1v21.9c0,1.5-1,3.2-2.3,3.9L177.8,210.1z"/>
				<path id="XMLID_2232_" class="wecreate4" d="M177.8,210.1v3.2l7.3-4.2c1.2-0.7,2.3-2.5,2.3-3.9V177l-7.6-4.4c-0.2,1.9-0.3,3.9-0.5,5.8
					l5.3,3.1v21.9c0,1.5-1,3.2-2.3,3.9L177.8,210.1z"/>
				<path id="XMLID_949_" class="wecreate2" d="M184.6,203.5c0,1.4-1,3.2-2.3,3.9l-21.1,12.2c-4.7,2.7-12.3,2.7-17,0l-22.8-13.2
					c-4.7-2.7-4.7-7.1,0-9.8l21.1-12.2c1.3-0.7,2.3-2.5,2.3-3.9l0-21.9l39.8,23V203.5z"/>
				<path id="XMLID_939_" class="wecreate5" d="M184.6,203.5c0,1.4-1,3.2-2.3,3.9l-21.1,12.2c-4.7,2.7-12.3,2.7-17,0l-22.8-13.2
					c-4.7-2.7-4.7-7.1,0-9.8l21.1-12.2c1.3-0.7,2.3-2.5,2.3-3.9l0-21.9l39.8,23V203.5z"/>
				<path id="XMLID_948_" class="wecreate6" d="M137.9,187.1L137.9,187.1l4.6-2.7c1.3-0.7,2.3-2.5,2.3-3.9l0-21.9l39.8,23v21.9
					c0,1.4-1,3.2-2.3,3.9l-4.5,2.6L137.9,187.1z"/>
				<path id="XMLID_938_" class="wecreate7" d="M137.9,187.1L137.9,187.1l4.6-2.7c1.3-0.7,2.3-2.5,2.3-3.9l0-21.9l39.8,23v21.9
					c0,1.4-1,3.2-2.3,3.9l-4.5,2.6L137.9,187.1z"/>
				<path id="XMLID_2604_" class="wecreate2" d="M117.9,201.6c0,0,0,1.4,0,3.2c0,1.8,1.2,3.5,3.5,4.9l22.8,13.2c2.3,1.3,5.2,2,8.1,2v-3.2
					c-2.9,0-5.9-0.7-8.1-2l-22.8-13.2C119.1,205.1,117.9,203.3,117.9,201.6z"/>
				<path id="XMLID_940_" class="wecreate8" d="M117.9,201.6c0,0,0,1.4,0,3.2c0,1.8,1.2,3.5,3.5,4.9l22.8,13.2c2.3,1.3,5.2,2,8.1,2v-3.2
					c-2.9,0-5.9-0.7-8.1-2l-22.8-13.2C119.1,205.1,117.9,203.3,117.9,201.6z"/>
			</g>
			<path id="XMLID_946_" class="wecreate2" d="M248.4,233.8c-1.5,0.8-3.9,0.8-5.5-0.1c-19.5-11.3-134.2-77.5-153.8-88.8
				c-1.6-0.9-2.8-3.1-2.8-4.9V5.4c0-1.8,1.2-4,2.7-4.8c1.5-0.8,3.9-0.8,5.5,0.1l153.8,88.8c1.6,0.9,2.8,3.1,2.8,4.9l0,134.6
				C251.1,230.8,249.9,232.9,248.4,233.8z"/>
			<path id="XMLID_1163_" class="wecreate5" d="M248.4,233.8c-1.5,0.8-3.9,0.8-5.5-0.1c-19.5-11.3-134.2-77.5-153.8-88.8
				c-1.6-0.9-2.8-3.1-2.8-4.9V5.4c0-1.8,1.2-4,2.7-4.8c1.5-0.8,3.9-0.8,5.5,0.1l153.8,88.8c1.6,0.9,2.8,3.1,2.8,4.9l0,134.6
				C251.1,230.8,249.9,232.9,248.4,233.8z"/>
			<path id="XMLID_945_" class="wecreate2" d="M242.9,233.7L89.1,144.9c-1.6-0.9-2.8-3.1-2.8-4.9V5.4c0-1.8,1.3-2.5,2.8-1.6l153.8,88.8
				c1.6,0.9,2.8,3.1,2.8,4.9l0,134.6C245.7,233.9,244.5,234.6,242.9,233.7z"/>
			<path id="XMLID_944_" class="wecreate2" d="M242.9,233.7L89.1,144.9c-1.6-0.9-2.8-3.1-2.8-4.9V5.4c0-1.8,1.3-2.5,2.8-1.6l153.8,88.8
				c1.6,0.9,2.8,3.1,2.8,4.9l0,134.6C245.7,233.9,244.5,234.6,242.9,233.7z"/>
			<path id="XMLID_2052_" class="wecreate3" d="M242.9,233.7L89.1,144.9c-1.6-0.9-2.8-3.1-2.8-4.9V5.4c0-1.8,1.3-2.5,2.8-1.6l153.8,88.8
				c1.6,0.9,2.8,3.1,2.8,4.9l0,134.6C245.7,233.9,244.5,234.6,242.9,233.7z"/>
			<path id="XMLID_2461_" class="wecreate2" d="M243.3,233.9c1.6,0.7,3.7,0.7,5.1-0.1c1.5-0.9,2.7-3,2.7-4.8v-15.1l-5.3,3.1v15.1
				C245.8,233.7,244.7,234.5,243.3,233.9z"/>
			<path id="XMLID_937_" class="wecreate4" d="M243.3,233.9c1.6,0.7,3.7,0.7,5.1-0.1c1.5-0.9,2.7-3,2.7-4.8v-15.1l-5.3,3.1v15.1
				C245.8,233.7,244.7,234.5,243.3,233.9z"/>
			<path id="XMLID_2302_" class="wecreate2" d="M245.7,216.9l0,15.1c0,1.8-1.3,2.5-2.8,1.6L89.1,144.9c-1.6-0.9-2.8-3.1-2.8-4.9v-15.1
				L245.7,216.9z"/>
			<g id="XMLID_427_" class="wecreate3">
				<path d="M245.7,216.9l0,15.1c0,1.8-1.3,2.5-2.8,1.6L89.1,144.9c-1.6-0.9-2.8-3.1-2.8-4.9v-15.1L245.7,216.9z"/>
			</g>
			<path id="XMLID_943_" class="wecreate9" d="M240.4,205.8l0-106.5c0-1.1-0.8-2.4-1.7-2.9l-145.4-84c-0.9-0.5-1.7-0.1-1.7,1l0,106.5
				c0,1.1,0.8,2.4,1.7,2.9l145.4,83.9C239.7,207.3,240.4,206.8,240.4,205.8z"/>
			<path id="XMLID_413_" class="wecreate2" d="M166,177c1.5,0.8,2.7,2.9,2.7,4.6c0,1.7-1.2,2.4-2.7,1.5c-1.5-0.8-2.7-2.9-2.7-4.6
				C163.4,176.9,164.6,176.2,166,177z"/>
			<path id="XMLID_2130_" class="wecreate10" d="M166,177c1.5,0.8,2.7,2.9,2.7,4.6c0,1.7-1.2,2.4-2.7,1.5c-1.5-0.8-2.7-2.9-2.7-4.6
				C163.4,176.9,164.6,176.2,166,177z"/>
			<path id="XMLID_412_" class="wecreate2" d="M244.9,94.7c0.5,0.9,0.8,1.9,0.8,2.8v119.5l5.3-3.1V94.4c0-0.9-0.3-1.9-0.8-2.8L244.9,94.7z
				"/>
			<path id="XMLID_2093_" class="wecreate4" d="M244.9,94.7c0.5,0.9,0.8,1.9,0.8,2.8v119.5l5.3-3.1V94.4c0-0.9-0.3-1.9-0.8-2.8L244.9,94.7
				z"/>
		</g>
	</g>
	<g id="Keyboard">
		<path id="Shadow_19_" class="wecreate11" d="M189.7,264.5l-38.4,22.2c-1.2,0.7-3.1,0.7-4.3,0L33.5,221.3c-1.2-0.7-1.2-1.8,0-2.5
			l38.4-22.2c1.2-0.7,3.1-0.7,4.3,0L189.7,262C190.9,262.7,190.9,263.8,189.7,264.5z"/>
		<g id="Keyboard_1_">
			<g id="XMLID_2228_">
				<path id="XMLID_2231_" class="wecreate2" d="M35.8,214.9c0-0.4,0.3-0.9,0.9-1.2l36.1-20.8c1.2-0.7,3.1-0.7,4.3,0l110.1,63.7
					c0.6,0.3,0.9,0.8,0.9,1.2c0,0.4,0,3.3,0,3.8c0,0.5-0.3,0.9-0.9,1.2l-36.1,20.8c-1.2,0.7-3.1,0.7-4.3,0L36.7,220
					c-0.6-0.3-0.9-0.8-0.9-1.2C35.8,218.3,35.8,215.3,35.8,214.9z"/>
				<path id="XMLID_2237_" class="wecreate3" d="M35.8,214.9c0-0.4,0.3-0.9,0.9-1.2l36.1-20.8c1.2-0.7,3.1-0.7,4.3,0l110.1,63.7
					c0.6,0.3,0.9,0.8,0.9,1.2c0,0.4,0,3.3,0,3.8c0,0.5-0.3,0.9-0.9,1.2l-36.1,20.8c-1.2,0.7-3.1,0.7-4.3,0L36.7,220
					c-0.6-0.3-0.9-0.8-0.9-1.2C35.8,218.3,35.8,215.3,35.8,214.9z"/>
				<path id="XMLID_2230_" class="wecreate2" d="M151.2,279.7l36.1-20.7c1.2-0.7,1.2-1.8,0-2.5L77.1,192.8c-1.2-0.7-3.1-0.7-4.3,0
					l-36.1,20.8c-1.2,0.7-1.2,1.8,0,2.5l110.2,63.6C148.1,280.4,150,280.4,151.2,279.7z"/>
				<path id="XMLID_2234_" class="wecreate5" d="M151.2,279.7l36.1-20.7c1.2-0.7,1.2-1.8,0-2.5L77.1,192.8c-1.2-0.7-3.1-0.7-4.3,0
					l-36.1,20.8c-1.2,0.7-1.2,1.8,0,2.5l110.2,63.6C148.1,280.4,150,280.4,151.2,279.7z"/>
				<path id="XMLID_2229_" class="wecreate2" d="M149.2,280.2v3.9c0.7,0,1.5-0.2,2-0.5l36.1-20.8c0.6-0.3,0.9-0.8,0.9-1.2v-3.8
					c0,0.4-0.3,0.9-0.9,1.2l-36.1,20.8C150.6,280,149.9,280.2,149.2,280.2z"/>
				<path id="XMLID_2236_" class="wecreate4" d="M149.2,280.2v3.9c0.7,0,1.5-0.2,2-0.5l36.1-20.8c0.6-0.3,0.9-0.8,0.9-1.2v-3.8
					c0,0.4-0.3,0.9-0.9,1.2l-36.1,20.8C150.6,280,149.9,280.2,149.2,280.2z"/>
			</g>
			<g>
				<path class="wecreate12" d="M103.1,219.6L99,222c-0.1,0.1-0.2,0.1-0.3,0.1l-3.8-2.1l4.4-2.5L103.1,219.6z"/>
				<path class="wecreate12" d="M98.2,216.7l-4.1,2.4c-0.1,0-0.2,0.1-0.2,0.1l-0.2,0l-3.6-2.1l4.4-2.5L98.2,216.7z"/>
				<path class="wecreate12" d="M111.4,224.4l-4.1,2.4c-0.1,0-0.2,0.1-0.2,0.1l-6.1-3.5l4.4-2.5L111.4,224.4z"/>
				<path class="wecreate12" d="M116.4,227.3l-4.1,2.4c-0.1,0-0.2,0.1-0.2,0.1l-3.8-2.1l4.4-2.5L116.4,227.3z"/>
				<path class="wecreate12" d="M139,264.7l-3.8-2.1l4.4-2.5l3.7,2.2l-4.1,2.4C139.2,264.6,139.1,264.7,139,264.7z"/>
				<path class="wecreate12" d="M121.3,230.1l-4.1,2.4c-0.1,0.1-0.2,0.1-0.3,0.1l-3.8-2.1l4.4-2.5L121.3,230.1z"/>
				<path class="wecreate12" d="M93.8,220.7l3.7,2.2l-4.1,2.4c-0.1,0-0.2,0.1-0.3,0.1l-3.8-2.1L93.8,220.7z"/>
				<path class="wecreate12" d="M107.6,240.1l-3.8-2.1l4.4-2.5l3.7,2.2l-4.1,2.4C107.8,240.1,107.7,240.1,107.6,240.1z"/>
				<path class="wecreate12" d="M88.2,222.4l-3.8-2.1l4.4-2.5l3.7,2.2l-4.1,2.4C88.4,222.4,88.3,222.4,88.2,222.4z"/>
				<path class="wecreate12" d="M112.5,242.9l-3.8-2.1l4.4-2.5l3.7,2.2l-4.1,2.4C112.7,242.9,112.6,242.9,112.5,242.9z"/>
				<path class="wecreate12" d="M117.5,245.8l-3.8-2.1l4.4-2.5l3.7,2.2l-4.1,2.4C117.7,245.8,117.6,245.8,117.5,245.8z"/>
				<path class="wecreate12" d="M97.7,234.4l-8-4.5l10-5.7l4.3,2.5l-5.2,3c-0.1,0-0.1,0.1-0.1,0.2c0,0.1,0,0.1,0.1,0.2l3.3,1.9l-4.1,2.4
					C97.9,234.4,97.8,234.4,97.7,234.4z"/>
				<path class="wecreate12" d="M131.2,235.8l-4.1,2.4c-0.1,0-0.2,0.1-0.2,0.1l-3.8-2.1l4.4-2.5L131.2,235.8z"/>
				<path class="wecreate12" d="M102.7,237.2l-3.8-2.1l4.4-2.5l3.7,2.2l-4.1,2.4C102.8,237.2,102.7,237.2,102.7,237.2z"/>
				<path class="wecreate12" d="M159,263.3l-3.8-2.1l4.4-2.5l3.7,2.2l-4.1,2.4C159.2,263.3,159.1,263.3,159,263.3z"/>
				<path class="wecreate12" d="M170.8,258.7l-4.1,2.4c-0.1,0-0.2,0-0.2,0l-0.2,0l-3.6-2.1l4.4-2.5L170.8,258.7z"/>
				<path class="wecreate12" d="M152.1,265.8l-0.2,0l-3.6-2.1l4.4-2.5l3.7,2.2l-4.1,2.4C152.3,265.8,152.2,265.8,152.1,265.8z"/>
				<path class="wecreate12" d="M148.9,270.4l-3.8-2.1l4.4-2.5l3.7,2.2l-4.1,2.4C149,270.4,148.9,270.4,148.9,270.4z"/>
				<path class="wecreate12" d="M165.9,255.8l-4.1,2.4c-0.1,0-0.2,0.1-0.2,0.1l-3.8-2.1l4.4-2.5L165.9,255.8z"/>
				<path class="wecreate12" d="M143.9,267.5l-3.8-2.1l4.4-2.5l3.7,2.2l-4.1,2.4C144.1,267.5,144,267.5,143.9,267.5z"/>
				<path class="wecreate12" d="M151,247.3l-4.1,2.4c-0.1,0-0.2,0.1-0.2,0.1l-3.8-2.1l4.4-2.5L151,247.3z"/>
				<path class="wecreate12" d="M146.1,244.4l-4.1,2.4c-0.1,0-0.2,0.1-0.3,0.1l-3.8-2.1l4.4-2.5L146.1,244.4z"/>
				<path class="wecreate12" d="M141.1,241.6l-4.1,2.4c-0.1,0.1-0.2,0.1-0.3,0.1l-3.8-2.1l4.4-2.5L141.1,241.6z"/>
				<path class="wecreate12" d="M156,250.1l-4.1,2.4c-0.1,0.1-0.2,0.1-0.3,0.1l-3.8-2.1l4.4-2.5L156,250.1z"/>
				<path class="wecreate12" d="M136.2,238.7l-4.1,2.4c0,0-0.1,0.1-0.2,0.1L128,239l4.4-2.5L136.2,238.7z"/>
				<path class="wecreate12" d="M160.9,253l-4.1,2.4c-0.1,0-0.2,0.1-0.2,0.1l-3.8-2.1l4.4-2.5L160.9,253z"/>
				<path class="wecreate12" d="M126.3,233l-4.1,2.4c-0.1,0-0.2,0-0.2,0l-3.8-2.1l4.4-2.5L126.3,233z"/>
				<path class="wecreate12" d="M113.9,232.3l-4.1,2.4c-0.1,0.1-0.2,0.1-0.3,0.1l-0.2,0l-3.6-2.1l4.4-2.5L113.9,232.3z"/>
				<path class="wecreate12" d="M87.2,210.4l-4.1,2.4c-0.1,0.1-0.2,0.1-0.3,0.1l-3.8-2.1l4.4-2.5L87.2,210.4z"/>
				<path class="wecreate12" d="M82.3,207.6l-4.1,2.4c-0.1,0-0.2,0.1-0.3,0.1l-3.8-2.1l4.4-2.5L82.3,207.6z"/>
				<path class="wecreate12" d="M118.9,235.2l-4.1,2.4c-0.1,0.1-0.2,0.1-0.3,0.1l-3.8-2.1l4.4-2.5L118.9,235.2z"/>
				<path class="wecreate12" d="M77.3,204.7l-4.1,2.4c-0.1,0.1-0.2,0.1-0.3,0.1l-3.8-2.1l4.4-2.5L77.3,204.7z"/>
				<path class="wecreate12" d="M104.6,231.9l-0.2,0l-3.6-2.1l4.4-2.5l3.7,2.2l-4.1,2.4C104.8,231.9,104.7,231.9,104.6,231.9z"/>
				<path class="wecreate12" d="M81.6,213.7l-4.1,2.4c-0.1,0.1-0.2,0.1-0.3,0.1l-3.8-2.1l4.4-2.5L81.6,213.7z"/>
				<path class="wecreate12" d="M71.7,207.9l-4.1,2.4c-0.1,0.1-0.2,0.1-0.3,0.1l-3.8-2.1l4.4-2.5L71.7,207.9z"/>
				<path class="wecreate12" d="M72.3,213.2l-3.8-2.1l4.4-2.5l3.7,2.2l-4.1,2.4C72.5,213.2,72.4,213.2,72.3,213.2z"/>
				<path class="wecreate12" d="M57,210.7c-0.1,0-0.2,0-0.2,0l-0.2,0l-3.6-2.1l10-5.7l3.7,2.2L57,210.7z"/>
				<path class="wecreate12" d="M123.8,238l-4.1,2.4c-0.1,0.1-0.2,0.1-0.3,0.1l-0.2,0l-3.6-2.1l4.4-2.5L123.8,238z"/>
				<path class="wecreate12" d="M66.7,216.5l-0.2,0l-3.6-2.1l4.4-2.5l3.7,2.2l-4.1,2.4C66.9,216.5,66.8,216.5,66.7,216.5z"/>
				<path class="wecreate12" d="M61.8,213.6l-3.8-2.1l4.4-2.5l3.7,2.2l-4.1,2.4C61.9,213.6,61.8,213.6,61.8,213.6z"/>
				<path class="wecreate12" d="M148.6,252.3l-4.1,2.4c-0.1,0.1-0.2,0.1-0.3,0.1l-3.8-2.1l4.4-2.5L148.6,252.3z"/>
				<path class="wecreate12" d="M158.4,258l-4.1,2.4c-0.1,0.1-0.2,0.1-0.3,0.1l-0.2,0l-3.6-2.1l4.4-2.5L158.4,258z"/>
				<path class="wecreate12" d="M142.2,260.1l-3.8-2.1l4.4-2.5l3.7,2.2l-4.1,2.4C142.4,260,142.3,260.1,142.2,260.1z"/>
				<path class="wecreate12" d="M147.2,262.9l-3.8-2.1l4.4-2.5l3.7,2.2l-4.1,2.4C147.4,262.9,147.3,262.9,147.2,262.9z"/>
				<path class="wecreate12" d="M137.3,257.2l-0.2,0l-3.6-2.1l4.4-2.5l3.7,2.2l-4.1,2.4C137.5,257.2,137.3,257.2,137.3,257.2z"/>
				<path class="wecreate12" d="M128.8,240.9l-4.1,2.4c-0.1,0-0.2,0.1-0.3,0.1l-0.2,0l-3.6-2.1l4.4-2.5L128.8,240.9z"/>
				<path class="wecreate12" d="M127.4,251.5l-3.8-2.1l4.4-2.5l3.7,2.2l-4.1,2.4C127.6,251.5,127.4,251.5,127.4,251.5z"/>
				<path class="wecreate12" d="M132.3,254.4l-3.8-2.1l4.4-2.5l3.7,2.2l-4.1,2.4C132.5,254.3,132.4,254.4,132.3,254.4z"/>
				<path class="wecreate12" d="M138.7,246.6l-4.1,2.4c-0.1,0.1-0.2,0.1-0.3,0.1l-3.8-2.1l4.4-2.5L138.7,246.6z"/>
				<path class="wecreate12" d="M153.5,255.2l-4.1,2.4c-0.1,0.1-0.2,0.1-0.3,0.1l-3.8-2.1l4.4-2.5L153.5,255.2z"/>
				<path class="wecreate12" d="M133.7,243.7l-4.1,2.4c-0.1,0.1-0.2,0.1-0.3,0.1l-3.8-2.1l4.4-2.5L133.7,243.7z"/>
				<path class="wecreate12" d="M143.6,249.4l-4.1,2.4c-0.1,0.1-0.2,0.1-0.3,0.1l-0.2,0l-3.6-2.1l4.4-2.5L143.6,249.4z"/>
				<path class="wecreate12" d="M122.4,248.6l-3.8-2.1l4.4-2.5l3.7,2.2l-4.1,2.4C122.6,248.6,122.5,248.6,122.4,248.6z"/>
				<path class="wecreate12" d="M93.2,213.9l-4.1,2.4c-0.1,0-0.2,0.1-0.2,0.1l-3.8-2.1l4.4-2.5L93.2,213.9z"/>
				<path class="wecreate12" d="M172,259.4l3.7,2.2l-4.1,2.4c-0.1,0-0.2,0.1-0.2,0.1l-0.2,0l-3.6-2.1L172,259.4z"/>
				<path class="wecreate12" d="M164.6,261.6l5.6,3.2l-4.1,2.4c-0.1,0-0.2,0.1-0.2,0.1l-0.2,0l-5.5-3.2L164.6,261.6z"/>
				<path class="wecreate12" d="M178,255l4.5,2.6l-4.1,2.4c-0.1,0.1-0.2,0.1-0.3,0.1l-4.6-2.6L178,255z"/>
				<path class="wecreate12" d="M154.5,268.6l4.5,2.6l-4.1,2.4c-0.1,0.1-0.2,0.1-0.3,0.1l-4.6-2.6L154.5,268.6z"/>
				<path class="wecreate12" d="M157.7,264l6.9,4l-4.1,2.4c-0.1,0-0.2,0.1-0.2,0.1l-0.2,0l-6.8-3.9L157.7,264z"/>
				<path class="wecreate12" d="M170.3,255.5l-3.8-2.1l4.4-2.5l3.7,2.2l-4.1,2.4C170.5,255.5,170.4,255.5,170.3,255.5z"/>
				<path class="wecreate12" d="M153.4,274.5l-4.1,2.4c-0.1,0-0.2,0.1-0.3,0.1l-5.6-3.2l4.4-2.5L153.4,274.5z"/>
				<path class="wecreate12" d="M165.3,252.7l-3.8-2.1l4.4-2.5l3.7,2.2l-4.1,2.4C165.5,252.6,165.4,252.7,165.3,252.7z"/>
				<path class="wecreate12" d="M143.4,240l-0.2,0l-3.6-2.1l4.4-2.5l3.7,2.2l-4.1,2.4C143.6,240,143.5,240,143.4,240z"/>
				<path class="wecreate12" d="M138.5,237.1l-3.8-2.1l4.4-2.5l3.7,2.2l-4.1,2.4C138.6,237.1,138.5,237.1,138.5,237.1z"/>
				<path class="wecreate12" d="M148.3,242.8l-0.2,0l-3.6-2.1l4.4-2.5l3.7,2.2l-4.1,2.4C148.5,242.8,148.4,242.8,148.3,242.8z"/>
				<path class="wecreate12" d="M155.4,246.9l-0.2,0l-3.6-2.1l4.4-2.5l3.7,2.2l-4.1,2.4C155.6,246.9,155.5,246.9,155.4,246.9z"/>
				<path class="wecreate12" d="M160.4,249.8l-3.8-2.1l4.4-2.5l3.7,2.2l-4.1,2.4C160.6,249.8,160.5,249.8,160.4,249.8z"/>
				<path class="wecreate12" d="M54.9,217.6l-4.1,2.4c-0.1,0-0.2,0-0.2,0l-0.2,0l-3.6-2.1l4.4-2.5L54.9,217.6z"/>
				<path class="wecreate12" d="M80.7,232.5l-4.1,2.4c-0.1,0.1-0.2,0.1-0.3,0.1l-3.8-2.1l4.4-2.5L80.7,232.5z"/>
				<path class="wecreate12" d="M64.8,223.3l-4.1,2.4c-0.1,0.1-0.2,0.1-0.3,0.1l-0.2,0l-8.6-5l4.4-2.5L64.8,223.3z"/>
				<path class="wecreate12" d="M75.8,229.7l-4.1,2.4c-0.1,0.1-0.2,0.1-0.3,0.1l-3.8-2.1l4.4-2.5L75.8,229.7z"/>
				<path class="wecreate12" d="M70.8,226.8l-4.1,2.4c-0.1,0.1-0.2,0.1-0.3,0.1l-3.8-2.1l4.4-2.5L70.8,226.8z"/>
				<path class="wecreate12" d="M133.5,234.3l-0.2,0l-3.6-2.1l4.4-2.5l3.7,2.2l-4.1,2.4C133.7,234.3,133.6,234.3,133.5,234.3z"/>
				<path class="wecreate12" d="M51.9,209.4l3.7,2.2l-9.7,5.6c-0.1,0-0.1,0-0.2,0l-0.2,0l-3.6-2.1L51.9,209.4z"/>
				<path class="wecreate12" d="M140.9,267.3l-4.1,2.4c-0.1,0.1-0.2,0.1-0.3,0.1l-4.6-2.6l4.4-2.5L140.9,267.3z"/>
				<path class="wecreate12" d="M135.2,263.9l-4.1,2.4c-0.1,0.1-0.2,0.1-0.3,0.1l-0.2,0l-28.1-16.2l4.4-2.5L135.2,263.9z"/>
				<path class="wecreate12" d="M134,261.8l-3.8-2.1l4.4-2.5l3.7,2.2l-4.1,2.4C134.2,261.8,134.1,261.8,134,261.8z"/>
				<path class="wecreate12" d="M146.6,270.6l-4.1,2.4c-0.1,0.1-0.2,0.1-0.3,0.1l-4.6-2.6l4.4-2.5L146.6,270.6z"/>
				<path class="wecreate12" d="M105.7,247l-4.1,2.4c-0.1,0.1-0.2,0.1-0.3,0.1l-0.2,0l-4.4-2.6l4.4-2.5L105.7,247z"/>
				<path class="wecreate12" d="M94.3,240.3l-4.1,2.4c-0.1,0-0.2,0.1-0.3,0.1l-0.2,0l-4.4-2.6l4.4-2.5L94.3,240.3z"/>
				<path class="wecreate12" d="M100,243.6l-4.1,2.4c-0.1,0-0.2,0.1-0.2,0.1l-4.6-2.6l4.4-2.5L100,243.6z"/>
				<path class="wecreate12" d="M88.5,237l-4.1,2.4c-0.1,0.1-0.2,0.1-0.3,0.1l-0.2,0l-5.5-3.2l4.4-2.5L88.5,237z"/>
				<path class="wecreate12" d="M83.2,219.6l-0.2,0l-3.6-2.1l4.4-2.5l3.7,2.2l-4.1,2.4C83.4,219.5,83.3,219.6,83.2,219.6z"/>
				<path class="wecreate12" d="M77,228.9l-0.2,0l-3.6-2.1l4.4-2.5l3.7,2.2l-4.1,2.4C77.2,228.9,77.1,228.9,77,228.9z"/>
				<path class="wecreate12" d="M94.5,238.9l-10.3-5.9l4.4-2.5l10.3,5.9l-4.1,2.4C94.7,238.9,94.6,238.9,94.5,238.9z"/>
				<path class="wecreate12" d="M66.1,222.6l-0.2,0l-3.6-2.1l4.4-2.5l3.7,2.2l-4.1,2.4C66.2,222.5,66.2,222.6,66.1,222.6z"/>
				<path class="wecreate12" d="M61.1,219.7l-0.2,0l-3.6-2.1l4.4-2.5l3.7,2.2l-4.1,2.4C61.3,219.7,61.2,219.7,61.1,219.7z"/>
				<path class="wecreate12" d="M99.4,241.8l-3.8-2.1l4.4-2.5l3.7,2.2l-4.1,2.4C99.6,241.8,99.5,241.8,99.4,241.8z"/>
				<path class="wecreate12" d="M71.7,219.3l-0.2,0l-3.6-2.1l4.4-2.5l3.7,2.2l-4.1,2.4C71.8,219.3,71.7,219.3,71.7,219.3z"/>
				<path class="wecreate12" d="M124.1,256.1l-3.8-2.1l4.4-2.5l3.7,2.2l-4.1,2.4C124.3,256.1,124.2,256.1,124.1,256.1z"/>
				<path class="wecreate12" d="M104.3,244.7l-3.8-2.1l4.4-2.5l3.7,2.2l-4.1,2.4C104.6,244.6,104.5,244.7,104.3,244.7z"/>
				<path class="wecreate12" d="M129.1,258.9l-0.2,0l-3.6-2.1l4.4-2.5l3.7,2.2l-4.1,2.4C129.3,258.9,129.2,258.9,129.1,258.9z"/>
				<path class="wecreate12" d="M119.2,253.2l-3.8-2.1l4.4-2.5l3.7,2.2l-4.1,2.4C119.4,253.2,119.3,253.2,119.2,253.2z"/>
				<path class="wecreate12" d="M114.2,250.4l-0.2,0l-3.6-2.1l4.4-2.5l3.7,2.2l-4.1,2.4C114.4,250.4,114.3,250.4,114.2,250.4z"/>
				<path class="wecreate12" d="M109.3,247.5l-0.2,0l-3.6-2.1l4.4-2.5l3.7,2.2l-4.1,2.4C109.5,247.5,109.4,247.5,109.3,247.5z"/>
				<path class="wecreate12" d="M121.5,227.3l-3.8-2.1l4.4-2.5l3.7,2.2l-4.1,2.4C121.6,227.3,121.5,227.3,121.5,227.3z"/>
				<path class="wecreate12" d="M56.2,216.8l-0.2,0l-3.6-2.1l4.4-2.5l3.7,2.2l-4.1,2.4C56.3,216.8,56.3,216.8,56.2,216.8z"/>
				<path class="wecreate12" d="M111.6,221.6l-3.8-2.1l4.4-2.5l3.7,2.2l-4.1,2.4C111.7,221.6,111.6,221.6,111.6,221.6z"/>
				<path class="wecreate12" d="M100.6,215.3l-3.8-2.1l4.4-2.5l3.7,2.2l-4.1,2.4C100.7,215.3,100.6,215.3,100.6,215.3z"/>
				<path class="wecreate12" d="M105.5,218.1l-3.8-2.1l4.4-2.5l3.7,2.2l-4.1,2.4C105.7,218.1,105.6,218.1,105.5,218.1z"/>
				<path class="wecreate12" d="M126.4,230.2l-3.8-2.1l4.4-2.5l3.7,2.2l-4.1,2.4C126.6,230.2,126.5,230.2,126.4,230.2z"/>
				<path class="wecreate12" d="M116.5,224.5l-0.2,0l-3.6-2.1l4.4-2.5l3.7,2.2l-4.1,2.4C116.7,224.5,116.6,224.5,116.5,224.5z"/>
				<path class="wecreate12" d="M95.6,212.4l-3.8-2.1l4.4-2.5l3.7,2.2l-4.1,2.4C95.8,212.4,95.7,212.4,95.6,212.4z"/>
				<path class="wecreate12" d="M76.2,199.6l-3.8-2.1l2.4-1.3l3.7,2.2l-2.1,1.2C76.4,199.5,76.3,199.6,76.2,199.6z"/>
				<path class="wecreate12" d="M68,204.3l-3.8-2.1l4.4-2.5l3.7,2.2l-4.1,2.4C68.2,204.3,68,204.3,68,204.3z"/>
				<path class="wecreate12" d="M91.1,208.1l-0.2,0l-3.6-2.1l2.4-1.3l3.7,2.2l-2.1,1.2C91.2,208.1,91.1,208.1,91.1,208.1z"/>
				<path class="wecreate12" d="M86.1,205.3l-0.2,0l-3.6-2.1l2.4-1.3l3.7,2.2l-2.1,1.2C86.3,205.2,86.2,205.3,86.1,205.3z"/>
				<path class="wecreate12" d="M81.2,202.4l-3.8-2.1l2.4-1.3l3.7,2.2l-2.1,1.2C81.3,202.4,81.3,202.4,81.2,202.4z"/>
			</g>
		</g>
	</g>
	<g>
		<g id="XMLID_392_">
			<g id="XMLID_2378_" class="wecreate13">
				<g>
					<g id="XMLID_00000057866545768343785720000018444511622053964165_">
						<path class="wecreate14" d="M75.5,16v106.9c0,1.4,1,3.1,2.2,3.8L221.8,210c0.3,0.1,0.5,0.2,0.7,0.2c0.1,0,0.2,0,0.3,0
							c0.1,0,0.1,0,0.2-0.1c0,0,0.1,0,0.1-0.1c0,0,0.1-0.1,0.1-0.1c0,0,0.1-0.1,0.1-0.1c0.2-0.2,0.3-0.4,0.4-0.6
							c0.1-0.3,0.2-0.7,0.2-1.1V101.8c0-1.4-1-3.1-2.2-3.8L77.8,14.7c-0.6-0.3-1.1-0.4-1.5-0.2c-0.1,0-0.1,0.1-0.2,0.1c0,0,0,0,0,0
							c-0.1,0-0.1,0.1-0.1,0.1c0,0,0,0.1-0.1,0.1c0,0-0.1,0.1-0.1,0.1c-0.1,0.1-0.1,0.2-0.1,0.3c0,0.1,0,0.1-0.1,0.2c0,0,0,0,0,0
							c0,0.1,0,0.1,0,0.2C75.5,15.8,75.5,15.9,75.5,16z"/>
						<path class="wecreate14" d="M76.8,15.4c0.1,0,0.2,0,0.5,0.2l144.1,83.3c0.9,0.5,1.7,1.9,1.7,3v106.3c0,0.3-0.1,0.5-0.1,0.7
							c-0.1,0.1-0.1,0.2-0.2,0.3l-0.1,0l0,0l0,0l0,0c0,0,0,0-0.1,0c0,0-0.1,0-0.2-0.1L78.3,125.8c-0.9-0.5-1.7-1.9-1.7-3V16
							c0-0.1,0-0.1,0-0.2l0,0l0,0l0.1-0.2l0,0L76.8,15.4L76.8,15.4C76.7,15.4,76.7,15.4,76.8,15.4 M76.8,14.4c-0.2,0-0.4,0-0.5,0.1
							c-0.1,0-0.1,0.1-0.2,0.1c0,0,0,0,0,0c-0.1,0-0.1,0.1-0.1,0.1c0,0,0,0.1-0.1,0.1c0,0-0.1,0.1-0.1,0.1c-0.1,0.1-0.1,0.2-0.1,0.3
							c0,0.1,0,0.1-0.1,0.2c0,0,0,0,0,0c0,0.1,0,0.1,0,0.2c0,0.1,0,0.2,0,0.3v106.9c0,1.4,1,3.1,2.2,3.8L221.8,210
							c0.2,0.1,0.5,0.2,0.7,0.2c0,0,0,0,0,0c0.1,0,0.2,0,0.3,0c0.1,0,0.1,0,0.2-0.1c0,0,0.1,0,0.1-0.1c0,0,0.1-0.1,0.1-0.1
							c0,0,0.1-0.1,0.1-0.1c0.2-0.2,0.3-0.4,0.4-0.6c0.1-0.3,0.2-0.7,0.2-1.1V101.8c0-1.4-1-3.1-2.2-3.8L77.8,14.7
							C77.4,14.5,77.1,14.4,76.8,14.4L76.8,14.4z"/>
					</g>
				</g>
				<g>
					<g id="XMLID_00000137853215115847270550000012430385446393961111_" class="wecreate4">
						<path class="wecreate14" d="M75.5,16v106.9c0,1.4,1,3.1,2.2,3.8L221.8,210c0.3,0.1,0.5,0.2,0.7,0.2c0.1,0,0.2,0,0.3,0
							c0.1,0,0.1,0,0.2-0.1c0,0,0.1,0,0.1-0.1c0,0,0.1-0.1,0.1-0.1c0,0,0.1-0.1,0.1-0.1c0.2-0.2,0.3-0.4,0.4-0.6
							c0.1-0.3,0.2-0.7,0.2-1.1V101.8c0-1.4-1-3.1-2.2-3.8L77.8,14.7c-0.6-0.3-1.1-0.4-1.5-0.2c-0.1,0-0.1,0.1-0.2,0.1c0,0,0,0,0,0
							c-0.1,0-0.1,0.1-0.1,0.1c0,0,0,0.1-0.1,0.1c0,0-0.1,0.1-0.1,0.1c-0.1,0.1-0.1,0.2-0.1,0.3c0,0.1,0,0.1-0.1,0.2c0,0,0,0,0,0
							c0,0.1,0,0.1,0,0.2C75.5,15.8,75.5,15.9,75.5,16z"/>
					</g>
				</g>
			</g>
			<g id="XMLID_2368_">
				<g id="XMLID_2292_">
					<path class="wecreate2" d="M76.3,14.5c0.4-0.2,0.9-0.1,1.5,0.2L221.8,98c1.2,0.7,2.2,2.4,2.2,3.8v7.3l2.8-1.7v-7.2
						c0-1.4-1-3.1-2.2-3.8L80.6,13.1c-0.6-0.4-1.2-0.4-1.6-0.1C78.6,13.2,76.7,14.2,76.3,14.5z"/>
				</g>
				<path id="XMLID_2375_" class="wecreate2" d="M75.5,15.9c0-1.4,1-2,2.2-1.3L221.8,98c1.2,0.7,2.2,2.4,2.2,3.8l0,7.3L75.5,23.2V15.9z"/>
				<g id="XMLID_2373_" class="wecreate15">
					<path class="wecreate16" d="M77.8,14.7L221.8,98c0.6,0.4,1.2,1,1.6,1.6l2.8-1.6c-0.4-0.7-0.9-1.3-1.5-1.6L80.6,13.1
						c-0.6-0.4-1.2-0.4-1.6-0.1c-0.4,0.2-2.2,1.3-2.7,1.5C76.7,14.3,77.2,14.3,77.8,14.7z"/>
				</g>
				<path id="XMLID_2369_" class="wecreate17" d="M226.9,107.4l0-7.2c0-0.7-0.3-1.5-0.7-2.2l-2.8,1.6c0.4,0.7,0.7,1.5,0.7,2.2v7.3
					L226.9,107.4z"/>
			</g>
			<g id="XMLID_2325_">
				<path id="XMLID_2332_" class="wecreate14" d="M88.9,24.2c0.7,0.4,1.3,1.6,1.3,2.7c0,1.1-0.6,1.6-1.3,1.2c-0.7-0.4-1.3-1.6-1.3-2.7
					C87.7,24.3,88.2,23.8,88.9,24.2z"/>
				<path id="XMLID_2331_" class="wecreate14" d="M84.4,21.6c0.7,0.4,1.3,1.6,1.3,2.7c0,1.1-0.6,1.6-1.3,1.2c-0.7-0.4-1.3-1.6-1.3-2.7
					S83.7,21.2,84.4,21.6z"/>
				<path id="XMLID_2330_" class="wecreate14" d="M79.9,19c0.7,0.4,1.3,1.6,1.3,2.7c0,1.1-0.6,1.6-1.3,1.2c-0.7-0.4-1.3-1.6-1.3-2.7
					S79.2,18.6,79.9,19z"/>
			</g>
			<path id="XMLID_2294_" class="wecreate18" d="M223.2,210c0.1-0.1,0.2-0.1,0.3-0.2c0.2-0.1,0.4-0.3,0.7-0.4l0,0c0.1-0.1,0.2-0.1,0.4-0.2
				c0,0,0,0,0,0c0.2-0.1,0.4-0.2,0.6-0.3c0.2-0.1,0.4-0.2,0.5-0.3c0.1-0.1,0.2-0.1,0.3-0.2c0.1-0.1,0.3-0.2,0.4-0.3
				c0.1-0.1,0.2-0.3,0.3-0.5c0.2-0.3,0.3-0.7,0.3-1.2v-99.1l-2.8,1.7v99.1c0,0.4-0.1,0.8-0.2,1.1c-0.1,0.2-0.2,0.4-0.4,0.6
				C223.4,209.9,223.3,209.9,223.2,210C223.3,210,223.3,210,223.2,210z"/>
		</g>
		<g id="XMLID_394_">
			<g id="XMLID_387_">
				<path id="XMLID_338_" class="wecreate19" d="M175.9,146.1c0,0,5.2-3.4,5.9-3.4c0.7,0,14.9-0.5,14.9-0.5l-5.9,3.2v0.3L175.9,146.1z"/>
				<path id="XMLID_2346_" class="wecreate9" d="M175.9,158.5v-12.4l14.9-0.5v-0.3l-14.9-17.8v-12.4l25.5,31.8v9.3L175.9,158.5z"/>
				<polygon id="XMLID_259_" class="wecreate14" points="175.9,115.2 181.8,111.8 207.4,143.5 201.4,147 				"/>
				<polygon id="XMLID_332_" class="wecreate12" points="207.4,143.5 207.4,152.9 201.4,156.3 201.4,147 				"/>
			</g>
			<g id="XMLID_389_">
				<path id="XMLID_2362_" class="wecreate9" d="M140.9,80l7.6,4.4l19.8,72.5l-7.9-4.6L140.9,80z"/>
				<polygon id="XMLID_365_" class="wecreate14" points="140.9,80 146.9,76.6 154.5,81 148.6,84.4 				"/>
				<polygon id="XMLID_375_" class="wecreate12" points="154.5,81 148.6,84.4 168.4,156.9 174.3,153.5 				"/>
			</g>
			<g id="XMLID_391_">
				<polygon id="XMLID_377_" class="wecreate19" points="139.3,118.1 133.4,121.5 118.5,103.6 124.4,100.2 				"/>
				<g id="XMLID_2333_">
					<path id="XMLID_2366_" class="wecreate9" d="M118.5,103.9l14.9,17.7v12.4l-25.5-31.7v-9.3l25.5-2.3v12.4l-14.9,0.6V103.9z"/>
				</g>
				<polygon id="XMLID_376_" class="wecreate14" points="139.3,87.3 133.4,90.7 107.9,92.9 113.8,89.5 				"/>
				<polyline id="XMLID_384_" class="wecreate12" points="133.4,90.7 133.4,103.1 139.3,99.6 139.3,87.3 				"/>
				<polygon id="XMLID_385_" class="wecreate12" points="139.3,118.1 133.4,121.5 133.4,133.9 139.3,130.5 				"/>
			</g>
		</g>
	</g>
	<g id="XMLID_2070_">
		<g id="XMLID_397_">
			<g id="XMLID_2295_" class="wecreate13">
				<g>
					<g id="XMLID_00000072268893703723300630000005278828786040505734_">
						<path class="wecreate14" d="M29,34.4v106.9c0,1.4,1,3.1,2.2,3.8l61.4,35.4c0.3,0.1,0.5,0.2,0.7,0.2c0.1,0,0.2,0,0.3,0
							c0.1,0,0.1,0,0.2-0.1c0,0,0.1,0,0.1-0.1c0,0,0.1-0.1,0.1-0.1c0,0,0.1-0.1,0.1-0.1c0.2-0.2,0.3-0.4,0.4-0.6
							c0.1-0.3,0.2-0.7,0.2-1.1V72.3c0-1.4-1-3.1-2.2-3.8L31.2,33.1c-0.6-0.3-1.1-0.4-1.5-0.2c-0.1,0-0.1,0.1-0.2,0.1c0,0,0,0,0,0
							c-0.1,0-0.1,0.1-0.1,0.1c0,0,0,0.1-0.1,0.1c0,0-0.1,0.1-0.1,0.1c-0.1,0.1-0.1,0.2-0.1,0.3c0,0.1,0,0.1-0.1,0.2c0,0,0,0,0,0
							c0,0.1,0,0.1,0,0.2C29,34.2,29,34.3,29,34.4z"/>
						<path class="wecreate14" d="M30.3,33.8c0.1,0,0.2,0,0.5,0.2l61.4,35.4c0.9,0.5,1.7,1.9,1.7,3v106.3c0,0.3-0.1,0.5-0.1,0.7
							c-0.1,0.1-0.1,0.2-0.2,0.3l-0.1,0l0,0l0,0l0,0c0,0,0,0-0.1,0c0,0-0.1,0-0.2-0.1l-61.4-35.4c-0.9-0.5-1.7-1.9-1.7-3V34.4
							c0-0.1,0-0.1,0-0.2l0,0l0,0l0.1-0.2l0,0L30.3,33.8L30.3,33.8C30.2,33.8,30.2,33.8,30.3,33.8 M30.3,32.8c-0.2,0-0.4,0-0.5,0.1
							c-0.1,0-0.1,0.1-0.2,0.1c0,0,0,0,0,0c-0.1,0-0.1,0.1-0.1,0.1c0,0,0,0.1-0.1,0.1c0,0-0.1,0.1-0.1,0.1c-0.1,0.1-0.1,0.2-0.1,0.3
							c0,0.1,0,0.1-0.1,0.2c0,0,0,0,0,0c0,0.1,0,0.1,0,0.2c0,0.1,0,0.2,0,0.3v106.9c0,1.4,1,3.1,2.2,3.8l61.4,35.4
							c0.2,0.1,0.5,0.2,0.7,0.2c0,0,0,0,0,0c0.1,0,0.2,0,0.3,0c0.1,0,0.1,0,0.2-0.1c0,0,0.1,0,0.1-0.1c0,0,0.1-0.1,0.1-0.1
							c0,0,0.1-0.1,0.1-0.1c0.2-0.2,0.3-0.4,0.4-0.6c0.1-0.3,0.2-0.7,0.2-1.1V72.3c0-1.4-1-3.1-2.2-3.8L31.2,33.1
							C30.9,32.9,30.6,32.8,30.3,32.8L30.3,32.8z"/>
					</g>
				</g>
				<g>
					<g id="XMLID_00000130608204735250167310000002364927037214348977_" class="wecreate13">
						<path class="wecreate14" d="M29,34.4v106.9c0,1.4,1,3.1,2.2,3.8l61.4,35.4c0.3,0.1,0.5,0.2,0.7,0.2c0.1,0,0.2,0,0.3,0
							c0.1,0,0.1,0,0.2-0.1c0,0,0.1,0,0.1-0.1c0,0,0.1-0.1,0.1-0.1c0,0,0.1-0.1,0.1-0.1c0.2-0.2,0.3-0.4,0.4-0.6
							c0.1-0.3,0.2-0.7,0.2-1.1V72.3c0-1.4-1-3.1-2.2-3.8L31.2,33.1c-0.6-0.3-1.1-0.4-1.5-0.2c-0.1,0-0.1,0.1-0.2,0.1c0,0,0,0,0,0
							c-0.1,0-0.1,0.1-0.1,0.1c0,0,0,0.1-0.1,0.1c0,0-0.1,0.1-0.1,0.1c-0.1,0.1-0.1,0.2-0.1,0.3c0,0.1,0,0.1-0.1,0.2c0,0,0,0,0,0
							c0,0.1,0,0.1,0,0.2C29,34.2,29,34.3,29,34.4z"/>
					</g>
				</g>
			</g>
			<g id="XMLID_411_">
				<g id="XMLID_962_">
					<path class="wecreate2" d="M29.8,32.9c0.4-0.2,0.9-0.1,1.5,0.2l61.4,35.4c1.2,0.7,2.2,2.4,2.2,3.8v7.3l2.8-1.7v-7.2
						c0-1.4-1-3.1-2.2-3.8L34.1,31.5c-0.6-0.4-1.2-0.4-1.6-0.1C32.1,31.6,30.2,32.7,29.8,32.9z"/>
				</g>
				<path id="XMLID_961_" class="wecreate2" d="M29,34.4c0-1.4,1-2,2.2-1.3l61.4,35.4c1.2,0.7,2.2,2.4,2.2,3.8l0,7.3L29,41.7V34.4z"/>
				<g id="XMLID_952_" class="wecreate15">
					<path class="wecreate16" d="M31.2,33.1l61.4,35.4c0.6,0.4,1.2,1,1.6,1.6l2.8-1.6c-0.4-0.7-0.9-1.3-1.5-1.6L34.1,31.5
						c-0.6-0.4-1.2-0.4-1.6-0.1c-0.4,0.2-2.2,1.3-2.7,1.5C30.2,32.7,30.7,32.8,31.2,33.1z"/>
				</g>
				<path id="XMLID_951_" class="wecreate17" d="M97.7,78l0-7.2c0-0.7-0.3-1.5-0.7-2.2l-2.8,1.6c0.4,0.7,0.7,1.5,0.7,2.2v7.3L97.7,78z"/>
			</g>
			<g id="XMLID_399_">
				<path id="XMLID_409_" class="wecreate14" d="M42.4,42.6c0.7,0.4,1.3,1.6,1.3,2.7s-0.6,1.6-1.3,1.2c-0.7-0.4-1.3-1.6-1.3-2.7
					C41.1,42.8,41.7,42.2,42.4,42.6z"/>
				<path id="XMLID_401_" class="wecreate14" d="M37.9,40c0.7,0.4,1.3,1.6,1.3,2.7s-0.6,1.6-1.3,1.2c-0.7-0.4-1.3-1.6-1.3-2.7
					C36.6,40.2,37.2,39.6,37.9,40z"/>
				<path id="XMLID_400_" class="wecreate14" d="M33.4,37.4c0.7,0.4,1.3,1.6,1.3,2.7s-0.6,1.6-1.3,1.2c-0.7-0.4-1.3-1.6-1.3-2.7
					S32.7,37,33.4,37.4z"/>
			</g>
			<path id="XMLID_398_" class="wecreate18" d="M94.1,180.6c0.1-0.1,0.2-0.1,0.3-0.2c0.2-0.1,0.4-0.3,0.7-0.4l0,0c0.1-0.1,0.2-0.1,0.4-0.2
				c0,0,0,0,0,0c0.2-0.1,0.4-0.2,0.6-0.3c0.2-0.1,0.4-0.2,0.5-0.3c0.1-0.1,0.2-0.1,0.3-0.2c0.1-0.1,0.3-0.2,0.4-0.3
				c0.1-0.1,0.2-0.3,0.3-0.5c0.2-0.3,0.3-0.7,0.3-1.2V77.9l-2.8,1.7v99.1c0,0.4-0.1,0.8-0.2,1.1c-0.1,0.2-0.2,0.4-0.4,0.6
				C94.2,180.4,94.2,180.5,94.1,180.6C94.1,180.5,94.1,180.5,94.1,180.6z"/>
		</g>
		<g id="XMLID_2042_">
			<g id="XMLID_396_">
				<path id="XMLID_2053_" class="wecreate2" d="M89.4,86.5c0,0.1,0,0.2-0.1,0.3l-1.6,1.5c0,0-0.1,0-0.1,0c0,0,0,0,0,0
					c0,0-0.1-0.1-0.1-0.2c0-0.1-0.1-0.1-0.1-0.2v-1.1c0-0.1,0-0.2,0-0.3c0-0.1,0.1-0.1,0.1-0.2l0.8-0.8l-0.8-1.7
					c-0.1-0.1-0.1-0.2-0.1-0.3c0-0.1,0-0.2,0-0.3V82c0-0.1,0-0.1,0.1-0.2c0,0,0.1,0,0.1,0c0,0,0,0,0,0c0,0,0,0,0.1,0.1l1.6,3.3
					c0.1,0.1,0.1,0.3,0.1,0.4V86.5z"/>
				<path id="XMLID_2055_" class="wecreate2" d="M86.3,89c0,0,0,0.1,0,0.1c0,0.1,0,0.1-0.1,0.2c0,0-0.1,0-0.1,0L85.6,89
					c-0.1-0.1-0.2-0.2-0.2-0.3c-0.1-0.1-0.1-0.2-0.1-0.3l-2.7-11.7c0,0,0-0.1,0-0.1c0-0.1,0-0.1,0.1-0.2c0,0,0.1,0,0.1,0l0.6,0.3
					c0.1,0.1,0.2,0.1,0.2,0.3c0.1,0.1,0.1,0.2,0.1,0.3L86.3,89z"/>
				<path id="XMLID_2057_" class="wecreate2" d="M79.3,79.8c0-0.1,0-0.2,0.1-0.3l1.6-1.5c0,0,0.1,0,0.1,0c0,0,0,0,0,0c0,0,0.1,0.1,0.1,0.2
					c0,0.1,0.1,0.1,0.1,0.2v1.1c0,0.1,0,0.2,0,0.3c0,0.1-0.1,0.1-0.1,0.2l-0.8,0.8l0.8,1.7c0.1,0.1,0.1,0.2,0.1,0.3
					c0,0.1,0,0.2,0,0.3v1.1c0,0.1,0,0.1-0.1,0.2c0,0-0.1,0-0.1,0c0,0,0,0,0,0c0,0,0,0-0.1-0.1l-1.6-3.3c-0.1-0.1-0.1-0.3-0.1-0.4
					V79.8z"/>
				<path id="XMLID_2060_" class="wecreate2" d="M75.7,80.3c0.1,0,0.1,0.1,0.2,0.2c0,0.1,0.1,0.2,0.1,0.3V82c0,0.1,0,0.2-0.1,0.2
					c0,0-0.1,0-0.2,0l-0.8-0.4c-0.1,0-0.1-0.1-0.2-0.2c0-0.1-0.1-0.2-0.1-0.3v-1.2c0-0.1,0-0.2,0.1-0.2c0,0,0.1,0,0.2,0L75.7,80.3z"
					/>
				<path id="XMLID_2063_" class="wecreate2" d="M73.1,78.9c0.1,0,0.1,0.1,0.2,0.2c0,0.1,0.1,0.2,0.1,0.3v1.2c0,0.1,0,0.2-0.1,0.2
					c0,0-0.1,0-0.2,0l-0.8-0.4c-0.1,0-0.1-0.1-0.2-0.2c0-0.1-0.1-0.2-0.1-0.3v-1.2c0-0.1,0-0.2,0.1-0.2c0,0,0.1,0,0.2,0L73.1,78.9z"
					/>
				<path id="XMLID_2068_" class="wecreate2" d="M70.6,77.4c0.1,0,0.1,0.1,0.2,0.2c0,0.1,0.1,0.2,0.1,0.3v1.2c0,0.1,0,0.2-0.1,0.2
					c0,0-0.1,0-0.2,0l-0.8-0.4c-0.1,0-0.1-0.1-0.2-0.2c0-0.1-0.1-0.2-0.1-0.3v-1.2c0-0.1,0-0.2,0.1-0.2c0,0,0.1,0,0.2,0L70.6,77.4z"
					/>
			</g>
			<path id="XMLID_959_" class="wecreate2" d="M88.7,94.5L51.9,73.2c-0.4-0.3-0.8-0.1-0.8,0.4s0.4,1.1,0.8,1.3l36.9,21.3
				c0.4,0.3,0.8,0.1,0.8-0.4C89.5,95.4,89.2,94.8,88.7,94.5z"/>
			<path id="XMLID_1876_" class="wecreate11" d="M76.9,108.2L40,86.9c-0.4-0.3-0.8-0.1-0.8,0.4c0,0.5,0.4,1.1,0.8,1.3l36.9,21.3
				c0.4,0.3,0.8,0.1,0.8-0.4C77.7,109,77.3,108.5,76.9,108.2z"/>
			<path id="XMLID_1877_" class="wecreate11" d="M76.9,115l-17.7-10.2c-0.4-0.3-0.8-0.1-0.8,0.4s0.4,1.1,0.8,1.3l17.7,10.2
				c0.4,0.3,0.8,0.1,0.8-0.4C77.7,115.9,77.3,115.3,76.9,115z"/>
			<path id="XMLID_1878_" class="wecreate11" d="M76.9,121.9l-17.7-10.2c-0.4-0.3-0.8-0.1-0.8,0.4s0.4,1.1,0.8,1.3l17.7,10.2
				c0.4,0.3,0.8,0.1,0.8-0.4C77.7,122.7,77.3,122.1,76.9,121.9z"/>
			<path id="XMLID_964_" class="wecreate2" d="M48.8,71.5L34.1,63c-0.4-0.3-0.8-0.1-0.8,0.4s0.4,1.1,0.8,1.3l14.7,8.5
				c0.4,0.3,0.8,0.1,0.8-0.4C49.6,72.3,49.2,71.7,48.8,71.5z"/>
			<path id="XMLID_2051_" class="wecreate2" d="M88.7,169.7l-36.9-21.3c-0.4-0.3-0.8-0.1-0.8,0.4s0.4,1.1,0.8,1.3l36.9,21.3
				c0.4,0.3,0.8,0.1,0.8-0.4C89.5,170.6,89.2,170,88.7,169.7z"/>
			<path id="XMLID_2050_" class="wecreate2" d="M48.8,146.6l-14.7-8.5c-0.4-0.3-0.8-0.1-0.8,0.4s0.4,1.1,0.8,1.3l14.7,8.5
				c0.4,0.3,0.8,0.1,0.8-0.4C49.6,147.5,49.2,146.9,48.8,146.6z"/>
			<path id="XMLID_1891_" class="wecreate2" d="M48.8,126.2l-14.7-8.5c-0.4-0.3-0.8-0.1-0.8,0.4c0,0.5,0.4,1.1,0.8,1.3l14.7,8.5
				c0.4,0.3,0.8,0.1,0.8-0.4C49.6,127,49.2,126.4,48.8,126.2z"/>
			<path id="XMLID_1893_" class="wecreate2" d="M48.8,133l-14.7-8.5c-0.4-0.3-0.8-0.1-0.8,0.4s0.4,1.1,0.8,1.3l14.7,8.5
				c0.4,0.3,0.8,0.1,0.8-0.4C49.6,133.9,49.2,133.3,48.8,133z"/>
			<path id="XMLID_1153_" class="wecreate20" d="M88.7,162.9l-36.9-21.3c-0.4-0.3-0.8-0.1-0.8,0.4s0.4,1.1,0.8,1.3l36.9,21.3
				c0.4,0.3,0.8,0.1,0.8-0.4C89.5,163.7,89.2,163.1,88.7,162.9z"/>
			<path id="XMLID_1892_" class="wecreate2" d="M61.3,133.4l-8.3-4.8c-0.4-0.3-0.8-0.1-0.8,0.4c0,0.5,0.4,1.1,0.8,1.3l8.3,4.8
				c0.4,0.3,0.8,0.1,0.8-0.4C62.1,134.2,61.8,133.6,61.3,133.4z"/>
			<g id="XMLID_1135_">
				<path id="XMLID_1119_" class="wecreate2" d="M88.7,101.4L67.2,89c-0.4-0.3-0.8-0.1-0.8,0.4s0.4,1.1,0.8,1.3l21.5,12.4
					c0.4,0.3,0.8,0.1,0.8-0.4C89.5,102.2,89.2,101.6,88.7,101.4z"/>
				<path id="XMLID_960_" class="wecreate21" d="M88.7,101.4L67.2,89c-0.4-0.3-0.8-0.1-0.8,0.4s0.4,1.1,0.8,1.3l21.5,12.4
					c0.4,0.3,0.8,0.1,0.8-0.4C89.5,102.2,89.2,101.6,88.7,101.4z"/>
			</g>
			<g id="XMLID_1154_">
				<path id="XMLID_1156_" class="wecreate2" d="M88.7,108.2l-7.3-4.2c-0.4-0.3-0.8-0.1-0.8,0.4s0.4,1.1,0.8,1.3l7.3,4.2
					c0.4,0.3,0.8,0.1,0.8-0.4C89.5,109.1,89.2,108.5,88.7,108.2z"/>
				<path id="XMLID_1155_" class="wecreate21" d="M88.7,108.2l-7.3-4.2c-0.4-0.3-0.8-0.1-0.8,0.4s0.4,1.1,0.8,1.3l7.3,4.2
					c0.4,0.3,0.8,0.1,0.8-0.4C89.5,109.1,89.2,108.5,88.7,108.2z"/>
			</g>
			<g id="XMLID_1166_">
				<path id="XMLID_1168_" class="wecreate2" d="M88.7,115l-7.3-4.2c-0.4-0.3-0.8-0.1-0.8,0.4s0.4,1.1,0.8,1.3l7.3,4.2
					c0.4,0.3,0.8,0.1,0.8-0.4C89.5,115.9,89.2,115.3,88.7,115z"/>
				<path id="XMLID_1167_" class="wecreate21" d="M88.7,115l-7.3-4.2c-0.4-0.3-0.8-0.1-0.8,0.4s0.4,1.1,0.8,1.3l7.3,4.2
					c0.4,0.3,0.8,0.1,0.8-0.4C89.5,115.9,89.2,115.3,88.7,115z"/>
			</g>
			<g id="XMLID_1349_">
				<path id="XMLID_1766_" class="wecreate2" d="M88.7,121.9l-7.3-4.2c-0.4-0.3-0.8-0.1-0.8,0.4c0,0.5,0.4,1.1,0.8,1.3l7.3,4.2
					c0.4,0.3,0.8,0.1,0.8-0.4C89.5,122.7,89.2,122.1,88.7,121.9z"/>
				<path id="XMLID_1765_" class="wecreate21" d="M88.7,121.9l-7.3-4.2c-0.4-0.3-0.8-0.1-0.8,0.4c0,0.5,0.4,1.1,0.8,1.3l7.3,4.2
					c0.4,0.3,0.8,0.1,0.8-0.4C89.5,122.7,89.2,122.1,88.7,121.9z"/>
			</g>
			<g id="XMLID_1805_">
				<path id="XMLID_1809_" class="wecreate2" d="M88.7,128.7l-7.3-4.2c-0.4-0.3-0.8-0.1-0.8,0.4s0.4,1.1,0.8,1.3l7.3,4.2
					c0.4,0.3,0.8,0.1,0.8-0.4C89.5,129.6,89.2,129,88.7,128.7z"/>
				<path id="XMLID_1806_" class="wecreate21" d="M88.7,128.7l-7.3-4.2c-0.4-0.3-0.8-0.1-0.8,0.4s0.4,1.1,0.8,1.3l7.3,4.2
					c0.4,0.3,0.8,0.1,0.8-0.4C89.5,129.6,89.2,129,88.7,128.7z"/>
			</g>
			<g id="XMLID_1126_">
				<path id="XMLID_965_" class="wecreate2" d="M64.2,87.2l-9.4-5.4c-0.4-0.3-0.8-0.1-0.8,0.4s0.4,1.1,0.8,1.3l9.4,5.4
					c0.4,0.3,0.8,0.1,0.8-0.4C65,88,64.6,87.4,64.2,87.2z"/>
				<path id="XMLID_1125_" class="wecreate21" d="M64.2,87.2l-9.4-5.4c-0.4-0.3-0.8-0.1-0.8,0.4s0.4,1.1,0.8,1.3l9.4,5.4
					c0.4,0.3,0.8,0.1,0.8-0.4C65,88,64.6,87.4,64.2,87.2z"/>
			</g>
			<g id="XMLID_1888_">
				<path id="XMLID_1890_" class="wecreate20" d="M68,123.6l-21.5-12.4c-0.4-0.3-0.8-0.1-0.8,0.4c0,0.5,0.4,1.1,0.8,1.3L68,125.3
					c0.4,0.3,0.8,0.1,0.8-0.4C68.8,124.4,68.5,123.8,68,123.6z"/>
			</g>
			<g id="XMLID_1886_">
				<path id="XMLID_1889_" class="wecreate20" d="M55.6,123.3l-21.5-12.4c-0.4-0.3-0.8-0.1-0.8,0.4c0,0.5,0.4,1.1,0.8,1.3L55.6,125
					c0.4,0.3,0.8,0.1,0.8-0.4C56.4,124.1,56.1,123.5,55.6,123.3z"/>
			</g>
			<g id="XMLID_1881_">
				<path id="XMLID_1887_" class="wecreate20" d="M43.5,109.4l-9.4-5.4c-0.4-0.3-0.8-0.1-0.8,0.4s0.4,1.1,0.8,1.3l9.4,5.4
					c0.4,0.3,0.8,0.1,0.8-0.4C44.2,110.2,43.9,109.6,43.5,109.4z"/>
			</g>
			<g id="XMLID_1160_">
				<path id="XMLID_1165_" class="wecreate2" d="M76.9,101.4L55.4,88.9c-0.4-0.3-0.8-0.1-0.8,0.4s0.4,1.1,0.8,1.3l21.5,12.4
					c0.4,0.3,0.8,0.1,0.8-0.4C77.7,102.2,77.3,101.6,76.9,101.4z"/>
				<path id="XMLID_1164_" class="wecreate21" d="M76.9,101.4L55.4,88.9c-0.4-0.3-0.8-0.1-0.8,0.4s0.4,1.1,0.8,1.3l21.5,12.4
					c0.4,0.3,0.8,0.1,0.8-0.4C77.7,102.2,77.3,101.6,76.9,101.4z"/>
			</g>
			<g id="XMLID_1157_">
				<path id="XMLID_1159_" class="wecreate2" d="M52.3,87.2L43,81.8c-0.4-0.3-0.8-0.1-0.8,0.4c0,0.5,0.4,1.1,0.8,1.3l9.4,5.4
					c0.4,0.3,0.8,0.1,0.8-0.4C53.1,88,52.8,87.4,52.3,87.2z"/>
				<path id="XMLID_1158_" class="wecreate21" d="M52.3,87.2L43,81.8c-0.4-0.3-0.8-0.1-0.8,0.4c0,0.5,0.4,1.1,0.8,1.3l9.4,5.4
					c0.4,0.3,0.8,0.1,0.8-0.4C53.1,88,52.8,87.4,52.3,87.2z"/>
			</g>
		</g>
	</g>
</g>
</svg>
