<?xml version="1.0" encoding="utf-8"?>
<!-- Generator: Adobe Illustrator 26.3.1, SVG Export Plug-In . SVG Version: 6.00 Build 0)  -->
<svg version="1.1" id="Layer_1" xmlns="http://www.w3.org/2000/svg" xmlns:xlink="http://www.w3.org/1999/xlink" x="0px" y="0px"
	 viewBox="0 0 388.6 240.8" style="enable-background:new 0 0 388.6 240.8;" xml:space="preserve">
<style type="text/css">
	.weown0{opacity:0.9;fill:#BBBDBF;enable-background:new    ;}
	.weown1{fill:#C2C1C6;}
	.weown2{fill:#D3D3D7;}
	.weown3{fill:#E9E8EC;}
	.weown4{fill:#607773;}
	.weown5{fill:#2D2D2C;}
	.weown6{fill:#5B5B5D;}
	.weown7{fill:#6E7D85;}
	.weown8{fill:#F8CB8F;}
	.weown9{fill:#231F20;}
	.weown10{fill:#0F938A;}
	.weown11{fill:#01AAA3;}
	.weown12{fill:#484846;}
	.weown13{fill:#EAB675;}
	.weown14{fill:#FCF282;}
	.weown15{fill:#A85525;}
	.weown16{display:none;}
	.weown17{display:inline;fill:#5B5B5D;}
	.weown18{display:inline;}
	.weown19{display:inline;fill:#6E7D85;}
	.weown20{fill:#E2E2E9;}
	.weown21{fill:#3B2416;}
	.weown22{fill:#FFFFFF;}
	.weown23{fill:#B2937D;}
	.weown24{fill:#4A2F20;}
	.weown25{fill:#C3B69B;}
	.weown26{fill:#1E241C;}
	.weown27{fill:#060606;}
	.weown28{fill:#EF7B73;}
	.weown29{fill:#DB5453;}
	.weown30{fill:#644E31;}
	.weown31{fill:#FAFBFC;}
	.weown32{fill:#EEBE84;}
	.weown33{fill:#0C0E0E;}
	.weown34{fill:#9E9E9E;}
	.weown35{fill:#992520;}
	.weown36{fill:none;stroke:#231F20;stroke-width:0.8215;stroke-miterlimit:10;}
	.weown37{fill:#181818;}
	.weown38{fill:#191919;}
	.weown39{fill:#D87F5C;}
	.weown40{fill:#EEC269;}
	.weown41{opacity:0.3;fill:url(#SVGID_1_);enable-background:new    ;}
	.weown42{fill:#FFFFFD;}
	.weown43{fill:none;stroke:#595A5C;stroke-width:0.7446;stroke-miterlimit:10;}
	.weown44{fill:#929497;}
	.weown45{fill:none;stroke:#BE202E;stroke-width:0.7446;stroke-linejoin:round;stroke-miterlimit:10;}
	.weown46{fill:none;}
	.weown47{fill:#E6E7E7;}
	.weown48{fill:none;stroke:#BBBDBF;stroke-width:0.5;stroke-linecap:round;stroke-linejoin:round;stroke-miterlimit:10;}
	.weown49{opacity:0.3;fill:url(#SVGID_00000123412891434784509310000000729542284247633305_);enable-background:new    ;}
	.weown50{opacity:0.3;fill:url(#SVGID_00000055675882868255048580000016971768933382637492_);enable-background:new    ;}
	.weown51{fill:#F2F2F2;}
	.weown52{fill:#A2909E;}
	.weown53{fill:#5B96CB;}
	.weown54{fill:#F04E44;}
	.weown55{fill:#F8A81B;}
	.weown56{fill:#FFCD66;}
	.weown57{fill:none;stroke:#A7A9AC;stroke-width:0.2087;stroke-miterlimit:10;}
	.weown58{fill:none;stroke:#A7A9AC;stroke-width:0.1322;stroke-miterlimit:10;}
	.weown59{fill:#303132;}
	.weown60{fill:#3C6481;}
	.weown61{fill:#F6B55F;}
	.weown62{fill:#BE202E;}
	.weown63{opacity:0.3;fill:url(#SVGID_00000090973753730117775110000003442163603050188464_);enable-background:new    ;}
	.weown64{fill:#FFFFFD;stroke:#FFFFFF;stroke-width:2;stroke-linejoin:round;stroke-miterlimit:10;}
	.weown65{fill:#CCCCCC;}
	.weown66{fill:#40403F;}
	.weown67{fill:#E5B18C;}
	.weown68{fill:#F4C48D;}
	.weown69{fill:#F7B354;}
	.weown70{fill:#CE3143;}
	.weown71{fill:#70441D;}
	.weown72{fill:#F8CDB3;}
	.weown73{fill:#FAAF43;}
	.weown74{fill:#603A17;}
	.weown75{fill:#F6C6A0;}
	.weown76{fill:#5A4226;}
	.weown77{fill:#2FBCB3;}
</style>
<g>
	<path class="weown0" d="M321.2,204.7c-6.4,0-12.5,0.3-18.1,0.8c-6.5-3-15.9-5.8-27.5-8.1c0.3-0.5,0.5-1.1,0.6-1.7
		c0.5-6.3-15.9-12.8-36.7-14.6s-38.1,1.9-38.6,8.2c0,0.3,0,0.6,0,0.8c-5.6-0.1-11.4-0.2-17.2-0.2c-62.2,0-114.1,8.6-126.6,20.1
		c-20.3,1.5-35.1,5.8-35.1,11c0,6.3,22.2,11.4,49.7,11.4c4.8,0,9.5-0.2,13.9-0.5c23.7,5.4,58.9,8.9,98.2,8.9
		c51.1,0,95.4-5.8,116.4-14.3c6.4,0.7,13.5,1.1,21.1,1.1c27.4,0,49.7-5.1,49.7-11.4C370.9,209.9,348.7,204.7,321.2,204.7z"/>
	<g>
		<g>
			<polygon class="weown1" points="90.4,201.1 85.5,201.1 83.3,109 92.6,109 			"/>
			<polygon class="weown2" points="89.1,201.1 84.1,201.1 81.9,109 91.2,109 			"/>
			<polygon class="weown3" points="85.8,200.8 84.1,200.8 83.2,109.1 86,109.1 			"/>
		</g>
		<g>
			<polygon class="weown1" points="289.7,201.1 284.8,201.1 282.6,109 291.9,109 			"/>
			<polygon class="weown2" points="288.4,201.1 283.4,201.1 281.2,109 290.5,109 			"/>
			<polygon class="weown3" points="285.1,200.8 283.4,200.8 282.5,109.1 285.3,109.1 			"/>
		</g>
	</g>
	<g>
		<ellipse class="weown4" cx="49.5" cy="183.8" rx="4.3" ry="1.3"/>
		<rect x="46.5" y="161.2" class="weown2" width="5.9" height="33.3"/>
		<rect x="50.8" y="161.2" class="weown3" width="1.4" height="33.3"/>
		<path class="weown4" d="M53.7,197.3c0,0-2.2,0.5-4.3,0.5s-4.3-0.5-4.3-0.5v-13.7c0,0,1.4,0.9,4.3,0.9c2.9,0,4.3-0.9,4.3-0.9V197.3z"
			/>
		<path class="weown4" d="M90.4,201.9c-3.3-2.5-27.7-2.5-32.8-3.9c-4.5-1.2-5.1-3.7-5.1-3.7h-6.1c0,0-0.5,2.5-5.1,3.7
			c-5.1,1.4-29.5,1.5-32.8,3.9c-3.3,2.5-5,10.3-5,10.3l3.2,0.8c0,0,1.8-4.9,5.8-7.8c2.6-1.9,31.3,0.2,31.3,0.2l3.4,9.9h0.6h1.6l0,0
			h2.2l3.4-9.9c0,0,28.6-2.1,31.3-0.2c4,2.9,5.8,7.8,5.8,7.8l3.2-0.8C95.4,212.3,93.7,204.4,90.4,201.9z"/>
		<path class="weown5" d="M54.4,215.7c0,2.7-2.2,5-5,5c-2.7,0-5-2.2-5-5c0-2.7,2.2-5,5-5S54.4,212.9,54.4,215.7z"/>
		<path class="weown5" d="M9.9,215.7c0,2.7-2.2,5-5,5c-2.7,0-5-2.2-5-5c0-2.7,2.2-5,5-5S9.9,212.9,9.9,215.7z"/>
		<circle class="weown5" cx="93.7" cy="215.7" r="5"/>
		<polygon class="weown4" points="59.1,163.3 39.7,163.2 38.1,157.2 60.9,157.2 		"/>
		<path class="weown6" d="M81.1,156.5c0,0.9-1,1.7-2.1,1.7H23.8c-1.2,0-2.2-0.7-2.2-1.7l0,0c0-0.9,1-1.7,2.2-1.7H79
			C80.1,154.9,81.1,155.6,81.1,156.5L81.1,156.5z"/>
		<path class="weown6" d="M5.9,88.1c-0.6,0.5-1,1.9-0.8,4.6S6,116,6.8,118.9c0.9,22.6,6.3,29.2,9.4,33.3c1.2,1.5,2.1,3.8,5.6,3.7
			c-0.6-1.5-1.6-7.6-1.6-10.8c-5.1-0.7-7.8-15.2-7.6-22.9c0.1-6.1-3-35.3-3-35.3S7.3,86.9,5.9,88.1z"/>
		<path class="weown7" d="M11.4,125.5c0.6,2.8,10.2,0.7,11.1-1.5c2.3-5.7,1.6-10.2-0.3-18.2c-1.5-6.4-3.9-29.5-4.3-32.4
			c-0.8-6.7-1.6-7.4-4.2-7.4S7,66.8,6.5,69.2C6,71.5,8.3,91.9,9.5,100c0.3,1.9,0.4,3.5,0.4,4.6C9.9,110.5,11.1,124.2,11.4,125.5z"/>
		<path class="weown7" d="M84.2,154c0,1.1-1.1,2-2.5,2H22.8c-1.4,0-2.5-0.9-2.5-2v-8.6c0-1.1,0.6-2.4,5.4-2c5.9,0.5,10.9,1.6,28.3,1.1
			s19.3-1.7,24.5-1.4c4.3,0.2,5.7,1.3,5.7,2.4V154z"/>
	</g>
	<g>
		<path class="weown8" d="M98.1,196.8c0,0,5.5-1.8,6.7-1.7c-0.6,4.1,2,4.7,5.6,10.4c4.3,6.9,13.1,10.5,10.4,12.5
			c-2.6,1.9-11.9-3.1-14.2-4.2c-2.3-1.1-6.8-0.2-8.8-1.7s-0.1-5.7,0.9-8.4S98,198,98,198L98.1,196.8L98.1,196.8z"/>
		<path class="weown9" d="M117.1,212c-3.8,3-14.6-3.4-18.6-6.1c-0.2-0.2-0.5-0.3-0.7-0.5c-0.4,1.1-1.2,2.6-1.2,5.5
			c0.7,3.6,3.4,8.9,3.4,8.9h0.7c0,0-0.2-5.5,1.1-6.7c1.2,0.7,3.7,2.1,5.8,3.8c2.4,2,12,5.8,17.4,1.4
			C126.2,217.3,121.4,215.4,117.1,212z"/>
		<path class="weown8" d="M81.8,198.1c0,0,6-2,7.3-1.9c-0.6,4.5,1.8,6.5,5.6,12.6c4.7,7.5,14.6,10.1,11.7,12.1
			c-2.8,2.1-13-3.4-15.4-4.6c-2.5-1.2-6.3-0.8-8.5-2.5c-2.1-1.7-1.2-5.5-0.1-8.5s-0.7-6.2-0.7-6.2L81.8,198.1L81.8,198.1z"/>
		<path class="weown9" d="M99.2,213.8c2.2,1.8,1.4,3.7-1.5,3.4c-4.6-0.5-13-6.9-15.5-8.6c-0.2-0.2-0.5-0.3-0.7-0.5
			c-0.4,1.1-0.4,1.9-0.4,4.9c0.7,3.6,2.6,9.5,2.6,9.5h0.7c0,0-0.2-5.5,1.1-6.7c1.2,0.7,3.7,2.1,5.8,3.8c2.4,2,12.1,5.9,17.4,1.4
			C110.5,219.4,102.8,217.3,99.2,213.8z"/>
	</g>
	<g>
		<g>
			<path class="weown10" d="M50.7,114.6c0.1,4.7,7.5,16.3,17.9,24.2c9.8,7.4,14.9,6.5,17.3,10.6L98,200.6h10.6c0,0-5.3-54.3-11.2-62.4
				c-4.9-6.8-4-6-20.4-16.4l-2.7-6.8L50.7,114.6z"/>
		</g>
		<g>
			<path class="weown11" d="M32.9,116.9c0.1,4.7-1.3,7.9-1.1,12.7c0.1,2.7-2.2,4.5,1.2,10.2c2.1,3.5,7.8,5.9,20.9,5.9
				c1.8,0,15.8,4.5,18.3,8.7l8.9,46.3l10.1,0.2c0,0,0.1-48.5-4.6-55.4c-4.6-6.7-9.2-11-25.7-21.4l-4.4-6.7L32.9,116.9z"/>
		</g>
	</g>
	<g>
		<path class="weown12" d="M69.8,73.3c0,0-0.3-4.5,4.6-7.5c3.1-1.9,6.4-2.6,7.8,1.1c1.1,3,4.9,18.9,6.8,24.4c1.9,5.6,2.9,9.3,0.9,12.8
			s-12.7,13-12.7,13l-4.7-0.5c0,0-3.9-2.4-3.9-9.4c0-4.1,6-2.6,5-10.6c-1.7-13.4-3.1-16-3.7-17.9C69.3,76.6,69.8,73.3,69.8,73.3z"/>
		<g>
			<path class="weown13" d="M60.7,61.6l-2.9,5c0,0,5.4,4.5,6,19c0.5,14.5,0,21.4,0,21.4l-1.3,8.7l9.3,0.4c0,0-2.7-2.4-3.2-8.3
				c-0.3-3.3,3-3.6,4.5-6.3c1.1-2.2,0.4-6.2,0.2-8C72,83.2,70,80.3,69.6,76.9c-0.8-7.4,4.1-11.1,4.1-11.1L60.7,61.6z"/>
			<path class="weown13" d="M69.7,77.3c0-0.1,0-0.3-0.1-0.4c-0.8-7.4,4.1-11.1,4.1-11.1l-13-4.2l-2.9,5c0,0,3.2,2.6,4.9,10.3
				C64.9,77.6,67.3,77.6,69.7,77.3z"/>
			<path class="weown14" d="M69.7,77.3c-2.4,0.3-4.8,0.2-7-0.5c0.5,2.4,0.9,5.3,1.1,8.7c0.5,14.5,0,21.4,0,21.4l-1.3,8.7l9.3,0.4
				c0,0-2.7-2.4-3.2-8.3c-0.3-3.3,3-3.6,4.5-6.3c1.1-2.2,0.4-6.2,0.2-8C72.1,83.6,70.2,80.5,69.7,77.3z"/>
			<path class="weown12" d="M65.6,81c-0.9-9.4-3.3-12.9-4.5-14.2c-1.2-1.3-9.7-2.5-17.6,6.9c-2.9,3.5-0.9,23.8-3.3,27.6
				c-7.2,11.3-13.5,32.3-13.5,32.3s8.3,6.5,13.4,9.1c5.1,2.5,0-4,6.3-9.7c6.3-5.7,14.6-18.5,18.4-21.9C69,102.6,65.6,81,65.6,81z"/>
			<g>
				<path class="weown8" d="M78.6,49.9c0.5,1.3-0.1,0.9,0,3.3c0.1,1.5,0.5,2.5,0.6,4.4c0.2,2.4-0.3,4.7-0.3,4.7s-0.7,5.9-3.5,7.3
					c-1.8,0.9-9.8-1.5-11.9-3.5c-0.9-0.8-1.4-2-1.7-3c-0.1-0.3-0.1-0.5-0.2-0.8c-2,2.8-9.9-6.5-3.2-6.8C58.6,55.4,71.5,32,78.6,49.9
					z"/>
				<path class="weown15" d="M71.7,45.5c-1.1,2-3,4.6-4.6,5.6c-1.5,1-2.1,1.9-1.9,3.4s-1,4.5-2,4.5c-1.3-0.1-1.5-2.6-4.6-3.5
					c-1.2-0.1-2.8,0.6-2.5,2.2c0.6,4.1,4.9,5.1,4.9,5.1s0,3.9-1,4.9c-0.9,1-2.8,2-4.6,1.6c-2.7-0.7-4.7-1.2-7.9,1.2
					c-8,5.9-5,13.3-6.7,14.8c-2.8,2.4-7.5,0.8-6.7-0.6c1.2-0.5,1.6,0,3.2-1.5c1.5-1.5,1.4-9,2.9-11.8c2.4-4.3,4.3-5.1,6.7-8.2
					c2.4-3.1,5.5-12.6,6.6-17.6s4.7-8,7.6-7.3c3.5-2.7,7.5-2.7,13,1.6c5.4,4.3,4.8,7.9,4.6,10.2c-1.5-1.1-0.2-0.8-2.4-2.3
					C74,46.2,73.3,45.8,71.7,45.5z"/>
			</g>
		</g>
	</g>
	<g class="weown16">
		<rect x="220.4" y="112.7" class="weown17" width="6.7" height="23.6"/>
		<g class="weown18">
			<path class="weown4" d="M219.5,172.5c0,0.8,2,1.4,4.5,1.4s4.5-0.6,4.5-1.4c0-0.8-2-1.4-4.5-1.4C221.5,171.2,219.5,171.8,219.5,172.5
				z"/>
			<rect x="220.9" y="148.8" class="weown2" width="6.2" height="35.2"/>
			<path class="weown4" d="M228.5,186.8c0,0-2.3,0.5-4.5,0.5s-4.5-0.5-4.5-0.5v-14.5c0,0,1.5,0.9,4.5,0.9s4.5-0.9,4.5-0.9V186.8z"/>
			<path class="weown4" d="M267.1,191.7c-3.5-2.6-29.2-2.7-34.6-4.2c-4.8-1.3-5.3-3.9-5.3-3.9h-6.5c0,0-0.6,2.6-5.3,3.9
				c-5.4,1.5-31.1,1.6-34.6,4.2c-3.5,2.6-5.3,10.9-5.3,10.9l3.4,0.9c0,0,1.9-5.2,6.2-8.3c2.8-2,33,0.3,33,0.3l3.6,10.4h0.7h1.7l0,0
				h2.3l3.6-10.4c0,0,30.2-2.3,33-0.3c4.2,3.1,6.2,8.3,6.2,8.3l3.4-0.9C272.4,202.6,270.6,194.3,267.1,191.7z"/>
			<path class="weown5" d="M229.2,206.2c0,2.9-2.3,5.2-5.2,5.2s-5.2-2.3-5.2-5.2s2.3-5.2,5.2-5.2C226.8,201,229.2,203.3,229.2,206.2z"
				/>
			<path class="weown5" d="M182.3,206.2c0,2.9-2.3,5.2-5.2,5.2s-5.2-2.3-5.2-5.2s2.3-5.2,5.2-5.2C179.9,201,182.3,203.3,182.3,206.2z"
				/>
			<path class="weown5" d="M275.9,206.2c0,2.9-2.3,5.2-5.2,5.2c-2.9,0-5.2-2.3-5.2-5.2s2.3-5.2,5.2-5.2
				C273.5,201,275.9,203.3,275.9,206.2z"/>
			<polygon class="weown4" points="234.2,150.9 213.7,150.8 211.9,144.6 236,144.5 			"/>
			<path class="weown6" d="M257.3,143.8c0,1-1,1.8-2.3,1.8h-58.2c-1.3,0-2.3-0.8-2.3-1.8l0,0c0-1,1-1.8,2.3-1.8H255
				C256.3,142.1,257.3,142.9,257.3,143.8L257.3,143.8z"/>
			<path class="weown7" d="M263,141.2c0,1.1-1.2,2.1-2.7,2.1h-70.1c-1.5,0-2.7-0.9-2.7-2.1v-9.1c0-1.1,0.7-2.6,5.7-2.2
				c6.3,0.5,13.4,1,32.4,1c18.4,0,25.7-1.7,31.3-1.4c4.5,0.2,6,1.4,6,2.6v9.1H263z"/>
		</g>
		<path class="weown19" d="M263,115.8c0,4-3.3,7.3-7.3,7.3h-59.4c-4,0-7.3-3.3-7.3-7.3V64.2c0-4,3.3-7.3,7.3-7.3h59.4
			c4,0,7.3,3.3,7.3,7.3L263,115.8L263,115.8z"/>
	</g>
	<g>
		<polygon class="weown20" points="283.9,206 293.8,207.5 296.3,194 286.4,192.6 		"/>
		<path class="weown21" d="M283.8,204.3c-5.6,2.8-25.2,1.1-25.1,6c1.5,4.4,8.9,6.8,14.4,6.8c10.2-1,14.2,5.3,18.7,2.9
			c1.4-1.3,3.6-10.3,2.4-10.8C294.3,209.3,283.8,204.3,283.8,204.3z"/>
		<path class="weown22" d="M284.8,208c6.6,2.6,11,2.8,11,2.8l3.5-14.3l-12.3-1.7C287,194.8,288,202.6,284.8,208z"/>
		<path class="weown23" d="M352.6,120.7c-0.1,4.7,1.3,8,1.1,12.7c-0.1,2.7-0.1,8-0.9,10.5c-1.7,5.3-20.9,2.8-25.4,3
			c-1.8,0.1-18-0.4-19.3,5.5l-12.9,51.9l-16.9-5.6c0,0,4.2-47.8,14.8-59.8c5.6-6.3,13.7-5.9,32-10l4.2-7.7L352.6,120.7z"/>
		<path class="weown24" d="M285.4,205.8c-5,3.7-24.6,5.4-23.7,10.2c2.2,4.1,9.9,5.2,15.3,4.3c9.9-2.7,14.9,2.8,18.9-0.3
			c1.1-1.5,1.8-10.8,0.6-11C296.5,209,285.4,205.8,285.4,205.8z"/>
	</g>
	<g>
		<path class="weown25" d="M358,120.9c0.4,5.9,2.3,18.3-1.9,23c-6.2,7-21.6,2.9-26.1,3.1c-1.8,0.1-14.7,1.4-22.6,3.1
			c-0.7,12.1-9.2,55.7-9.2,55.7l-15.7-3.1c0,0,1-58.9,9.7-67.6c5-4.9,16.3-5.4,35.4-8.1l2.9-6.2L358,120.9z"/>
		<path class="weown26" d="M328.1,123.6c0.7,0,27.6-1.6,29.9-2.4c0.1-0.6,0.7-2.1,0.1-3.6c-2.5-0.2-28.1,2-29,2.2
			C327.9,120.5,327.6,123.2,328.1,123.6z"/>
		<path class="weown25" d="M337.5,123.6l-1.7,0.2c0,0,0.1-2.7-0.2-4.3c0.3-0.1,1.2-0.2,1.7-0.1C337.7,120.4,337.7,122,337.5,123.6z"/>
		<path class="weown25" d="M351,122.6l-1.7,0.2c0,0-0.1-3.2-0.4-4.8c0.3-0.1,1.2-0.2,1.7-0.1C351.1,119.4,351,122.6,351,122.6z"/>
		<path class="weown23" d="M342,127.2l-14.1,5.4c0,0-0.1,0.9,1.8,0.8c2-0.2,10.8-4,11.9-4.6C342.6,128.2,342,127.2,342,127.2z"/>
	</g>
	<g>
		<path class="weown4" d="M342.5,187c0,0.7-2,1.3-4.4,1.3s-4.4-0.6-4.4-1.3s2-1.3,4.4-1.3S342.5,186.3,342.5,187z"/>
		<rect x="335.1" y="164" class="weown2" width="6" height="34"/>
		<rect x="335.3" y="164" class="weown3" width="1.4" height="34"/>
		<path class="weown4" d="M333.7,200.8c0,0,2.2,0.5,4.4,0.5c2.1,0,4.4-0.5,4.4-0.5v-14c0,0-1.4,0.9-4.4,0.9c-2.9,0-4.4-0.9-4.4-0.9
			V200.8z"/>
		<path class="weown4" d="M296.3,205.5c3.4-2.5,28.3-2.6,33.5-4c4.6-1.3,5.2-3.8,5.2-3.8h6.2c0,0,0.6,2.5,5.2,3.8
			c5.2,1.4,30.1,1.5,33.5,4s5.1,10.6,5.1,10.6l-3.3,0.8c0,0-1.9-5-6-8c-2.7-1.9-31.9,0.2-31.9,0.2l-3.4,10.1h-0.6h-1.6l0,0h-2.3
			l-3.4-10.1c0,0-29.2-2.2-31.9-0.2c-4.1,3-6,8-6,8l-3.3-0.8C291.2,216.1,292.9,208.1,296.3,205.5z"/>
		<path class="weown5" d="M333.1,219.6c0,2.8,2.3,5.1,5.1,5.1c2.8,0,5.1-2.3,5.1-5.1s-2.3-5.1-5.1-5.1
			C335.3,214.5,333.1,216.8,333.1,219.6z"/>
		<path class="weown5" d="M378.4,219.6c0,2.8,2.3,5.1,5.1,5.1c2.8,0,5.1-2.3,5.1-5.1s-2.3-5.1-5.1-5.1
			C380.7,214.5,378.4,216.8,378.4,219.6z"/>
		<path class="weown5" d="M287.8,219.6c0,2.8,2.3,5.1,5.1,5.1c2.8,0,5.1-2.3,5.1-5.1s-2.3-5.1-5.1-5.1
			C290.1,214.5,287.8,216.8,287.8,219.6z"/>
		<polygon class="weown4" points="328.2,166.1 348.1,166 349.7,159.9 326.4,159.9 		"/>
		<path class="weown6" d="M305.8,159.2c0,0.9,1,1.7,2.2,1.7h56.3c1.2,0,2.2-0.8,2.2-1.7l0,0c0-0.9-1-1.7-2.2-1.7H308
			C306.8,157.5,305.8,158.3,305.8,159.2L305.8,159.2z"/>
		<path class="weown6" d="M382.6,89.4c0.6,0.5,1,1.9,0.8,4.7c-0.2,2.8-0.9,23.8-1.8,26.7c-0.9,23.1-6.4,29.8-9.6,33.9
			c-1.2,1.6-2.1,3.9-5.8,3.8c0.6-1.6,1.7-7.7,1.6-11c5.2-0.7,7.9-15.5,7.8-23.4c-0.1-6.2,3.1-36,3.1-36S381.1,88.2,382.6,89.4z"/>
		<path class="weown7" d="M376.9,127.5c-0.6,2.9-10.4,0.7-11.3-1.6c-2.3-5.8-1.6-10.4,0.3-18.6c1.5-6.5,4-30.1,4.3-33.1
			c0.8-6.9,1.7-7.6,4.3-7.6c2.6,0,6.9,0.8,7.4,3.3c0.5,2.4-1.8,23.4-3,31.6c-0.3,1.9-0.4,3.6-0.4,4.7
			C378.4,112.3,377.2,126.2,376.9,127.5z"/>
		<path class="weown7" d="M302.7,156.6c0,1.1,1.2,2,2.6,2h60.1c1.4,0,2.6-0.9,2.6-2v-8.8c0-1.1-0.6-2.5-5.5-2.1
			c-6.1,0.5-11.1,1.6-28.9,1.1s-19.7-1.7-25-1.5c-4.4,0.2-5.8,1.4-5.8,2.5v8.8H302.7z"/>
	</g>
	<g>
		<path class="weown27" d="M123.8,67.8c0,0,26.6,8,37.2-3.8c0,0,2.6,63.9,2.6,65.4c0,0-42.6,2.3-48.6,0.4
			C115,129.8,113,77.5,123.8,67.8z"/>
		<path class="weown28" d="M168,88.6c6.4-21.7,2.1-57.9,2.1-57.9c-1.9-3.9-12.4-7.5-12.4-7.5l-1.9,4.3l-1.5,7.1
			c-3.6,2.1-9.9,10.5-9.9,10.5l-1.3-3.4c-0.4-2.6-4.5-3.6-4.5-3.6c-0.4-1.5,0.9-12.5,0.9-12.5c-5.1-7.4-19.2,6.1-19.2,6.1
			c-6.2,14.6-4.1,40.5-4.1,40.5c-1.7,7.1,3,17.8,3,17.8l9.4-1.9c-1.3-3.2,0.2-18.4,0.2-18.4c20.2,4.1,30-2.1,30-2.1
			c-0.4,5.1-0.6,15.7-0.6,15.7l0.6,6.6h8.8L168,88.6z"/>
		<path class="weown8" d="M138.5,25.4c0,0,0.2,8.2-0.2,9.8c0,0,2.3,6.1,6.8,9.8c0,0,11-5.9,10-13.8L138.5,25.4z"/>
		<path class="weown13" d="M149.8,41.5c2.5-2.4,5.7-6.8,5.3-10.5l-15.2-5.2C141,31,145,38.1,149.8,41.5z"/>
		<path class="weown29" d="M129,69.5l-1.6-25.2C127.4,44.4,130.5,65.2,129,69.5z"/>
		<path class="weown29" d="M159,67.4c0-12.5,5.1-28.3,5.1-28.3S159,69.7,159,67.4z"/>
		<path class="weown22" d="M138.2,24.4c0,0-1,10.6-4.8,15.4c0,0,6.1-2,11.1,5.3c0,0-5.8-16.5-5-19.6C138.6,25,140.4,24.5,138.2,24.4z"
			/>
		<path class="weown22" d="M156.3,25.6c0,0,2,11.1,4.4,13.2c0,0-4-0.5-6.1-1.2c0,0-6.5,7.3-10.1,7.3c0,0,7.3-9.6,9.3-9.9
			C153.9,34.9,155.3,25.6,156.3,25.6z"/>
		<path class="weown8" d="M157,10.9c0,0,4,18.9-6,22.3c0,0-6.6,0.6-11.4-7.7c0,0-4.9-2.9-1.7-6.3C137.9,19.2,142.1,3.2,157,10.9z"/>
		<path class="weown30" d="M157.7,16.3c0,0,1.1-3.9,0-6c0,0,1.7-1.5-0.9-3.9c0,0-3-8.6-16.1-6c0,0-7.9,2.8-6.9,14.6
			c0,0-4.5,8.6,5.6,10.4c0,0-3.3-3.4-0.7-4c0,0,3.9-1.1,4.5-4.3c0,0,0-4.1,8.4-3.2c0,0,3.4-0.6,4.5-2.6
			C156.2,11.4,157.5,12.9,157.7,16.3z"/>
		<path class="weown31" d="M120.4,101.1l1.2-0.9c2.8-1.8,8.9-3,8.9-3c-1.1-0.4-1.7-9.2-1.7-9.2l-9.4,1.9L120.4,101.1z"/>
		<path class="weown31" d="M165.7,99.7l2.1-10.1h-8.3h-1.1l-0.6,9.9C159.9,100.4,165.7,99.7,165.7,99.7z"/>
	</g>
	<g>
		<path class="weown32" d="M150.9,127.7c0,0-13.9,46.1-13,56.7c0,0,1.1,18.9,6.9,22.7c0,0-5.9,6.6-9.8,0.3l-3.8-21.1
			c0,0-8.2-29.8,1-47.1l3.4-10.6C135.5,128.7,142.2,119.1,150.9,127.7z"/>
		<path class="weown33" d="M133.8,187.3c0,0-4.2,0.5-5.5,11.6l1.3,13.1c0,0,1.9,1.1,1.3-9.4c0,0,1.6,13.4,5.8,13.7c0,0,7.9,0.1,9.4,0
			s2.9-5.4-1.3-9.4c0,0-3.9,4.5-7.8,0.7C133.1,203.7,133.8,187.3,133.8,187.3z"/>
		<path class="weown9" d="M127.8,188c0,0-2.3,0-3.6,11.1l1.3,13.1c0,0,1.9,1.1,1.3-9.4c0,0,1.6,13.4,5.8,13.7c0,0,8,0,9.4,0
			c2.5,0,2.6-3.1-1.3-9.4l-9.7,1.1L127.8,188z"/>
		<path class="weown8" d="M121.9,124.3c0,0-9.7,23.5,5.8,57.3c0,0-2.6,21.5,3.2,27.5c0,0,9.7,3.3,9.7-1.7c0,0-4.9-16-6.3-28.6
			c0,0-1.9-34.2,0-42.4c0,0,2.9-7.7,1-13.2C135.4,123.2,127.5,116.6,121.9,124.3z"/>
	</g>
	<g>
		<path class="weown5" d="M207.7,53.6c0,0-7.3,1.5-9.6,4.2c-2.7,3-3.5,14.7-3.5,14.7S189,86.2,180,90.3c0,0,8.6,1.5,4.1,11.8
			c0,0,7.7-1.7,18.2-13.3l0.6,12.6c0,0,34.9,1.9,37.1-0.2c2.1-2.1,3.9-27,3.9-27s-4.3-12.6,3-19.5c0,0-5.9-2.7-11.5-4.9
			c-4.7-1.9-9.4-3.3-9.7-3.9C225.7,45.9,216.3,60.7,207.7,53.6z"/>
		<path class="weown5" d="M243.7,53.3c0.7,0.3,4.1,1.5,4.7,1.8c2.2,1.1,3.9,3.3,6.6,14.5c0,0,9.3,15.5,6.6,19.7
			c-6.5,10.3-19.5,11.6-19.5,11.6s-1.5-5-7.7-5.9c7.1-5.7,13.5-6.1,14.4-10c-2.6-4.5-6.4-11.8-6.4-11.8S231.4,59.4,243.7,53.3z"/>
		<path class="weown9" d="M250.1,84.2c3.1-0.5,5.2-0.8,8.3-0.8c-3.7-0.9-6.9-1-10.2,0.4c0.2,0.4,0.4,0.7,0.6,1
			c-0.3,1.4-1.3,2.3-2.7,3.2c3.3-1.6,9.2-2.3,12,1.6C255.9,84.9,253.2,85.8,250.1,84.2z"/>
		<path class="weown34" d="M211.3,57.9v45.2h14.6l-0.6-48.8C225.3,54.3,216.5,64.8,211.3,57.9z"/>
		<polygon class="weown35" points="214.5,59.6 212,61.5 214.5,68.6 217.9,68.1 219.8,61.9 		"/>
		<path class="weown35" d="M214.8,65.5c0,0-2,33.2-1.3,35.2l8.6,0.3c0,0-3.1-32.5-5.1-35.8L214.8,65.5z"/>
		<path class="weown13" d="M210.4,52.7c0,0,1.8,3.5,1.6,7.2c3.7-0.4,11.6-2.8,13.7-14c0,0-1.1-0.4-1.9-1.7
			C216.2,55.4,210.4,52.7,210.4,52.7z"/>
		<path class="weown36" d="M197,73.5c0,0,5.5,8.6,5.5,15.3"/>
		<path class="weown37" d="M211.3,53.3l-5.2,6.8l2.2,5.3l-5.1,0.7c0,0,8.4,30.6,8.1,33c0,0,0.8-23.5,0.9-39.9
			C212.3,56.6,211.8,55.3,211.3,53.3z"/>
		<path class="weown37" d="M225.7,45.9c0,0-6,53.9,1.3,53.6c0,0-2.5-3.4,0.2-9c0,0,6.1-19.4,6.1-24.6l-3.1-1.3l3.4-3.7
			C233.6,60.9,227.2,50.1,225.7,45.9z"/>
		<path class="weown31" d="M211.3,55.8l0.4,8.3l2.6-3.6c0,0,7.5,3.3,8.9,3.6c1.5-2.4,3.8-15.6,3.8-17.3l-1.2-0.8
			c-3.6,11.4-11.5,13-11.5,13l-2.2-3.1L211.3,55.8z"/>
		<g>
			<path class="weown8" d="M201.1,32c0,0-0.7,2.1-0.6,5.4c0,1.2,0.2,0.5,0.3,1.9c0.1,0.8,0.7,1.4,0.8,2.2c0.2,0.9,0.4,2.2,0.6,3.2
				c0.4,1.6,1.5,3.2,2.2,4.7c1.6,3.3,3.2,5.7,5.9,6.4c2.6,0.6,6.2-0.3,10.2-5.6c1.3-1.7,1.8-2.3,2.9-5.7c2.5,0.3,5.4-11.1-1.3-8.4
				C222.3,36,218.7,23.6,201.1,32z"/>
			<path class="weown15" d="M223.6,26.6c-7.1-13.5-24.1-0.8-24.1-0.8c-6.9,3,1.6,14.3,1.6,14.3c-0.5-3.5,1.9-7.6,1.9-7.6
				c1.6,1.1,12.2-1.1,12.2-1.1c4.3,2.2,2.6,6.6,2.6,6.6s3.5,1.6,3.7,4.7h0.7l0.2-3.4c0.5-2,2-3.8,2-3.8
				C226.2,29.8,223.6,26.6,223.6,26.6z"/>
			<path class="weown13" d="M223.6,38.5c0.9-0.9,1.8,2.4,0,3.8C223.2,42.3,222.7,39.4,223.6,38.5z"/>
		</g>
		<path class="weown9" d="M243.7,77c0,0-2.4-3.7-1-7.4c0.2,1.5-0.2,1.8,0.3,3.2S243.7,77,243.7,77z"/>
	</g>
	<path class="weown37" d="M187.1,201.6c-2.5,0-4.7,2.7-6.8,3.9c-2.2,1.3-4.9,1.5-6.9,3.2c-1.1,0.9-3.4,4.6-2.7,6.2
		c1.3,2.9,20.7,0.1,23.9-0.7c1.4-0.4,5.1-0.8,5.9-2.1c0.6-0.9-0.5-10.5-0.9-10.5C199.7,201.6,187.1,201.6,187.1,201.6z"/>
	<path class="weown38" d="M209,201.6c-2.5,0-4.7,2.7-6.8,3.9c-2.2,1.3-4.9,1.5-6.9,3.2c-1.1,0.9-3.4,4.6-2.7,6.2
		c1.3,2.9,20.7,0.1,23.9-0.7c1.4-0.4,5.1-0.8,5.9-2.1c0.6-0.9-0.5-10.5-0.9-10.5C221.6,201.6,209,201.6,209,201.6z"/>
	<path class="weown5" d="M208.9,134.8c0,0-2.4,5.8-3.3,14.1c-0.9,8.4-1.2,53.4-1.2,53.4s14.6,1.3,18.2,0c0,0,2.9-41.4,2.2-52.2
		c1.6-6.9,5.4-15.3,5.4-15.3L208.9,134.8L208.9,134.8z"/>
	<path class="weown5" d="M184.6,136.3c0,0-4,4.3-4.8,14.1l2.8,50.8c0,0,14.6,2.4,18.2,1.1c0,0-0.3-38.8-1.9-51.1
		c4.2-7.7,6.8-14.4,6.8-14.4L184.6,136.3z"/>
	<g>
		<g>
			<polygon class="weown1" points="271.2,228.3 266.2,228.3 264.1,129.1 273.3,129.1 			"/>
			<polygon class="weown2" points="269.8,228.3 264.8,228.3 262.7,129.1 272,129.1 			"/>
			<polygon class="weown3" points="266.5,228 264.9,228 263.9,129.2 266.7,129.2 			"/>
		</g>
		<g>
			<polygon class="weown1" points="109.2,228.3 104.2,228.3 102.1,129.1 111.4,129.1 			"/>
			<polygon class="weown2" points="107.8,228.3 102.9,228.3 100.7,129.1 110,129.1 			"/>
			<polygon class="weown3" points="104.6,228 102.9,228 101.9,129.2 104.8,129.2 			"/>
		</g>
	</g>
	<g>
		<path class="weown39" d="M320.9,115c-11.6-7.1-67.1-11.7-133.9-11.7c-67.2,0-123,4.6-134.1,11.7v6.9c11.2,7.7,66.9,16.3,134.1,16.3
			c66.8,0,122.3-8.5,133.9-16.2V115z"/>
		<path class="weown40" d="M320.9,114.2c0,7.6-60,17.7-134,17.7s-134-10.1-134-17.7s60-14.9,134-14.9
			C260.9,99.3,320.9,106.6,320.9,114.2z"/>
	</g>
	<path class="weown31" d="M180,90.3c0,0-2.6,0.5-4,1.5c0,0,10.4-1.1,8.1,10.3C184.1,102.1,188.9,92.7,180,90.3z"/>
	<path class="weown34" d="M120.4,99.5c0.2-0.4,0.6-0.7,1.2-1l-1.2,0.4V99.5z"/>
	<path class="weown8" d="M130.5,97.2c0,0-6.1,1.2-8.9,3L130.5,97.2z"/>
	<g>
		
			<linearGradient id="SVGID_1_" gradientUnits="userSpaceOnUse" x1="166.8908" y1="134.2071" x2="235.6427" y2="123.61" gradientTransform="matrix(1 0 0 -1 0 241.3228)">
			<stop  offset="0.3697" style="stop-color:#343334"/>
			<stop  offset="1" style="stop-color:#FFFFFF"/>
		</linearGradient>
		<polygon class="weown41" points="180.9,104.8 166.1,119.9 223.6,119.9 235.6,104.8 		"/>
		<g>
			<polygon class="weown42" points="223.4,119.1 165.9,119.1 180.7,103.9 235.5,103.9 			"/>
			<line class="weown43" x1="205.7" y1="104.5" x2="194.5" y2="117.9"/>
			<polygon class="weown21" points="218,116.5 200.9,116.5 202.4,115.3 219.1,115.3 			"/>
			<polygon class="weown44" points="189.9,116.4 173.5,116.4 175.1,115.8 191.4,115.8 			"/>
			<polygon class="weown44" points="191.9,114.3 175.6,114.3 177.2,113.8 193.5,113.8 			"/>
			<polygon class="weown44" points="194,112.2 177.7,112.2 179.2,111.7 195.6,111.7 			"/>
			<polygon class="weown44" points="196.1,110.2 179.7,110.2 181.3,109.6 197.6,109.6 			"/>
			<path class="weown45" d="M182.1,105.5c1.3,2.2,1.9,1.4,3.8,1.6c0.1-0.6,0.6-1.3,0.7-1.8c0,1.4,1.4,4.4,2.3,1.3"/>
			<rect x="204.5" y="113.4" class="weown44" width="15.2" height="0.5"/>
			<rect x="205.8" y="111.8" class="weown44" width="15.2" height="0.5"/>
			<rect x="207.1" y="110.3" class="weown44" width="15.2" height="0.5"/>
			<rect x="208.4" y="108.7" class="weown44" width="15.2" height="0.5"/>
			<rect x="209.7" y="107.2" class="weown44" width="15.2" height="0.5"/>
			<rect x="211" y="105.6" class="weown44" width="15.2" height="0.5"/>
		</g>
	</g>
	<path class="weown46" d="M258.2,100l4.6-0.4l-0.5,0.9c0.1,0,0.2,0,0.4,0c0,0,1.8-1.2,0-3.5c0,0-2.9-0.5-4.4,1.1c0,0-0.9,2-2,3.6
		C257.1,100.8,258.2,100,258.2,100z"/>
	<path class="weown8" d="M256.3,106l0.1-0.1C256.3,106,256.3,106,256.3,106z"/>
	<polygon class="weown47" points="267.9,125.6 242.4,125.6 252.8,110.7 276.5,110.7 	"/>
	<polygon class="weown42" points="273.1,120.5 240.9,120.1 252.4,103.7 279,104.5 	"/>
	<g>
		<line class="weown48" x1="256.2" y1="105.9" x2="248.6" y2="117.8"/>
		<line class="weown48" x1="259.6" y1="105.9" x2="252.7" y2="117.8"/>
		<line class="weown48" x1="263" y1="105.9" x2="256.5" y2="117.6"/>
		<line class="weown48" x1="266.3" y1="105.8" x2="260.2" y2="117.8"/>
		<line class="weown48" x1="269.8" y1="105.9" x2="264" y2="117.8"/>
		<line class="weown48" x1="273.2" y1="105.8" x2="267.2" y2="118.1"/>
	</g>
	<g>
		
			<linearGradient id="SVGID_00000051341993168730396960000010407579521921052034_" gradientUnits="userSpaceOnUse" x1="344.9987" y1="85.9022" x2="355.5389" y2="85.9022" gradientTransform="matrix(0.174 -0.9848 -0.9848 -0.174 171.7955 483.0153)">
			<stop  offset="0" style="stop-color:#FFFFFF"/>
			<stop  offset="0.1785" style="stop-color:#CBCACB"/>
			<stop  offset="0.3842" style="stop-color:#959595"/>
			<stop  offset="0.5765" style="stop-color:#6B6B6B"/>
			<stop  offset="0.7492" style="stop-color:#4D4C4D"/>
			<stop  offset="0.8962" style="stop-color:#3B3A3B"/>
			<stop  offset="1" style="stop-color:#343334"/>
		</linearGradient>
		
			<polygon style="opacity:0.3;fill:url(#SVGID_00000051341993168730396960000010407579521921052034_);enable-background:new    ;" points="
			137.4,118.6 134.7,126.1 158.9,127.7 161.6,120.1 		"/>
		
			<linearGradient id="SVGID_00000067928603711388739190000012172249107967646877_" gradientUnits="userSpaceOnUse" x1="364.3225" y1="91.7925" x2="350.4755" y2="83.0952" gradientTransform="matrix(0.174 -0.9848 -0.9848 -0.174 171.7955 483.0153)">
			<stop  offset="0" style="stop-color:#FFFFFF"/>
			<stop  offset="0.1785" style="stop-color:#CBCACB"/>
			<stop  offset="0.3842" style="stop-color:#959595"/>
			<stop  offset="0.5765" style="stop-color:#6B6B6B"/>
			<stop  offset="0.7492" style="stop-color:#4D4C4D"/>
			<stop  offset="0.8962" style="stop-color:#3B3A3B"/>
			<stop  offset="1" style="stop-color:#343334"/>
		</linearGradient>
		
			<polygon style="opacity:0.3;fill:url(#SVGID_00000067928603711388739190000012172249107967646877_);enable-background:new    ;" points="
			134.6,116.1 139.6,123.4 163.1,120.4 158,113.1 		"/>
		<g>
			<g>
				<polygon class="weown51" points="133.8,125.8 136.5,118.3 160.6,119.9 158,127.4 				"/>
				<polygon class="weown52" points="142.8,125.5 144.9,119.6 145.2,119.6 143.1,125.6 				"/>
				<polygon class="weown52" points="148.5,122.2 149.3,119.9 149.6,119.9 148.8,122.3 				"/>
				<polygon class="weown52" points="147.2,122.4 148.1,119.8 148.4,119.8 147.5,122.4 				"/>
				<polygon class="weown52" points="141.3,125.4 143.4,119.5 143.8,119.5 141.6,125.5 				"/>
				<polygon class="weown52" points="139.8,125.3 141.9,119.4 142.3,119.4 140.2,125.4 				"/>
				<polygon class="weown52" points="138.4,125.2 140.5,119.3 140.8,119.3 138.7,125.3 				"/>
				<polygon class="weown52" points="136.9,125.1 139,119.2 139.3,119.2 137.2,125.2 				"/>
				<polygon class="weown52" points="135.4,125 137.5,119.1 137.8,119.1 135.7,125.1 				"/>
				<polygon class="weown52" points="156,125.5 157.4,121.3 158.4,121.3 156.9,125.5 				"/>
				<g>
					<g>
						<path class="weown53" d="M150.7,122.4c-1.9-0.1-3.7,0.4-4.1,1.2l3.7,0.2l1.7-1.3C151.6,122.5,151.2,122.4,150.7,122.4z"/>
						<path class="weown54" d="M152,122.6l-1.7,1.3l3.5,0.2C153.9,123.5,153.2,122.9,152,122.6z"/>
						<path class="weown55" d="M150.3,123.9l-3.7-0.2c0,0,0,0,0,0.1c-0.3,0.8,1.1,1.6,3,1.8c0.8,0.1,1.7,0,2.4-0.2L150.3,123.9z"/>
						<path class="weown56" d="M153.7,124.2C153.7,124.2,153.8,124.1,153.7,124.2l-3.4-0.3l1.6,1.4
							C152.9,125.1,153.6,124.7,153.7,124.2z"/>
					</g>
					<polyline class="weown57" points="152.4,123.3 154.1,122.9 155,120.3 					"/>
					<polyline class="weown58" points="153.1,124.6 154.3,124.9 153.8,126.1 					"/>
					<polyline class="weown58" points="147.2,124.4 148.4,124.7 148,125.9 					"/>
					<polyline class="weown57" points="149.5,123 151.1,122.6 152.1,120 					"/>
				</g>
			</g>
			<g>
				<polygon class="weown22" points="139.1,123.2 134,115.9 157.5,112.9 162.6,120.2 				"/>
				<g>
					<polygon class="weown59" points="144.4,116.1 144.2,115.9 155.3,114.5 155.4,114.7 					"/>
					<polygon class="weown59" points="148.9,121.3 149.4,121.2 145.3,115.4 144.9,115.5 					"/>
					<polygon class="weown60" points="146.4,116.9 146,116.3 151.2,115.7 151.6,116.3 					"/>
					<polygon class="weown61" points="147,117.9 146.6,117.3 150.3,116.8 150.7,117.4 					"/>
					<polygon class="weown62" points="147.8,119 147.4,118.4 154.6,117.5 155,118.1 					"/>
					<polygon class="weown55" points="148.5,120.2 148.1,119.6 153.5,118.9 154,119.5 					"/>
				</g>
				<g>
					<polygon class="weown52" points="146.9,121.2 143.2,115.9 143.5,115.8 147.2,121.1 					"/>
					<polygon class="weown52" points="145.4,121.3 141.8,116.1 142.1,116 145.8,121.3 					"/>
					<polygon class="weown52" points="144,121.5 140.3,116.3 140.7,116.2 144.3,121.5 					"/>
					<polygon class="weown52" points="142.6,121.7 138.9,116.4 139.2,116.4 142.9,121.7 					"/>
					<polygon class="weown52" points="141.1,121.9 137.5,116.6 137.8,116.6 141.4,121.8 					"/>
					<polygon class="weown52" points="139.7,122.1 136,116.8 136.4,116.8 140,122 					"/>
				</g>
				<polygon class="weown52" points="158.8,118.9 156.4,115.3 157.3,115.2 159.8,118.7 				"/>
			</g>
		</g>
	</g>
	<g>
		
			<linearGradient id="SVGID_00000029741864015441816810000002466206057320346285_" gradientUnits="userSpaceOnUse" x1="175.5903" y1="131.6517" x2="141.1416" y2="132.1737" gradientTransform="matrix(1 0 0 -1 0 241.3228)">
			<stop  offset="0" style="stop-color:#FFFFFF"/>
			<stop  offset="0.1785" style="stop-color:#CBCACB"/>
			<stop  offset="0.3842" style="stop-color:#959595"/>
			<stop  offset="0.5765" style="stop-color:#6B6B6B"/>
			<stop  offset="0.7492" style="stop-color:#4D4C4D"/>
			<stop  offset="0.8962" style="stop-color:#3B3A3B"/>
			<stop  offset="1" style="stop-color:#343334"/>
		</linearGradient>
		
			<polygon style="opacity:0.3;fill:url(#SVGID_00000029741864015441816810000002466206057320346285_);enable-background:new    ;" points="
			166.9,104.8 130.7,105.3 128.7,113.7 170.1,113.1 		"/>
		<g>
			<polygon class="weown64" points="168.5,112.1 127.1,112.6 129.1,104.2 165.3,103.8 			"/>
			<polygon class="weown65" points="129.1,111 130.4,105.8 164.2,105.3 166.3,110.5 			"/>
			<path class="weown44" d="M147.7,104.5c0,0.3-0.4,0.5-1,0.5c-0.5,0-1-0.2-1-0.4c0-0.3,0.4-0.5,1-0.5S147.7,104.3,147.7,104.5z"/>
		</g>
	</g>
	<g>
		<path class="weown8" d="M130.5,97.2c0,0,4.9,3.4,3.1,5.9c0,0-0.1,3-2.3,1.7c0,0-1.4,1.3-2.6-0.3c0,0-1.9,1.4-2.7-0.1
			c0,0-1.6,1.9-2.6,0.3c0,0-4-2-2.7-4.4C120.7,100.3,124.2,97.1,130.5,97.2z"/>
		<path class="weown8" d="M157.7,99.5c0,0-5.4,1.3-2.7,5.9c0,0,1.8,0.5,1.8-2.8c0,0,0.1,0.4,1,2.1c0,0,4.1,3.6,7.4-0.4
			c0,0,1.6,2,1.7-1.3c0,0-0.4-1.9-1.9-3.4L157.7,99.5z"/>
	</g>
	<g>
		<polygon class="weown21" points="122.3,114.1 107.2,114.1 108.8,110.2 123.8,110.2 		"/>
		<polygon class="weown31" points="109,113.6 110.2,110.6 123,110.6 121.9,113.6 		"/>
		<path class="weown31" d="M109.2,112.1c0,0.2-0.2,0.4-0.5,0.4c-0.2,0-0.5-0.2-0.5-0.4c0-0.2,0.2-0.4,0.5-0.4S109.2,111.9,109.2,112.1z
			"/>
	</g>
	<g>
		
			<rect x="108.9" y="98.2" transform="matrix(0.234 -0.9722 0.9722 0.234 0.8226 201.2227)" class="weown7" width="38.5" height="3.7"/>
		<rect x="81.4" y="114.3" class="weown6" width="44.6" height="4.9"/>
	</g>
	<path class="weown8" d="M181.5,96.9c0,0,0.1,5.3,1.3,5.8l0.9-0.8L181.5,96.9z"/>
	<g>
		<path class="weown47" d="M227.6,111.4L227.6,111.4L227.6,111.4C227.6,111.3,227.6,111.4,227.6,111.4z"/>
		<path class="weown47" d="M235.1,111.4L235.1,111.4L235.1,111.4L235.1,111.4z"/>
		<g>
			<path class="weown31" d="M231.4,112.2c-1.9,0-3.5-0.3-3.7-0.7l0.5,8.1l0,0c0.2,0.3,1.6,0.5,3.2,0.5c1.8,0,3.3-0.3,3.3-0.6
				c0,0,0.2-4.6,0.4-8C235,111.9,233.4,112.2,231.4,112.2z"/>
			<path class="weown47" d="M231.4,119.9c-1.8,0-2.9-0.2-3.1-0.4l-0.5-7.6c0.7,0.3,2.2,0.5,3.5,0.5c1.1,0,2.8-0.1,3.5-0.5
				c-0.4,7.6-0.4,7.6-0.4,7.6C234.4,119.6,233.4,119.9,231.4,119.9z"/>
			<path class="weown31" d="M231.4,110.6c2,0,3.6,0.3,3.7,0.7c0.1-2.2,0.2-3.9,0.2-3.9h-7.9l0.2,3.8
				C227.9,110.9,229.5,110.6,231.4,110.6z"/>
			<path class="weown47" d="M231.4,110.6c-1.9,0-3.5,0.3-3.7,0.7v0.2c0.2,0.4,1.8,0.7,3.7,0.7c2,0,3.6-0.3,3.7-0.7v-0.1
				C235,111,233.4,110.6,231.4,110.6z"/>
		</g>
		<path class="weown31" d="M235.4,107.5c0,0.4-1.8,0.8-4,0.8s-4-0.3-4-0.8c0-0.4,1.8-0.8,4-0.8C233.6,106.7,235.4,107,235.4,107.5z"/>
		<path class="weown51" d="M235.2,107.5c0,0.4-1.7,0.6-3.8,0.6s-3.8-0.3-3.8-0.6c0-0.4,1.7-0.7,3.8-0.7S235.2,107.1,235.2,107.5z"/>
	</g>
	<g>
		<path class="weown47" d="M98.3,100.1L98.3,100.1L98.3,100.1C98.3,100,98.3,100,98.3,100.1z"/>
		<path class="weown47" d="M105.8,100C105.8,100.1,105.8,100.1,105.8,100C105.8,100.1,105.8,100.1,105.8,100
			C105.8,100.1,105.8,100,105.8,100z"/>
		<g>
			<path class="weown31" d="M102,100.8c-1.9,0-3.5-0.3-3.7-0.7l0.5,8.1l0,0c0.2,0.3,1.6,0.5,3.2,0.5c1.8,0,3.3-0.3,3.3-0.6
				c0,0,0.2-4.6,0.4-8C105.6,100.5,104,100.8,102,100.8z"/>
			<path class="weown47" d="M102.1,108.6c-1.8,0-2.9-0.2-3.1-0.4l-0.5-7.6c0.7,0.3,2.2,0.5,3.5,0.5c1.1,0,2.8-0.1,3.5-0.5
				c-0.4,7.6-0.4,7.6-0.4,7.6C105.1,108.3,104,108.6,102.1,108.6z"/>
			<path class="weown31" d="M102,99.3c2,0,3.6,0.3,3.7,0.7c0.1-2.2,0.2-3.9,0.2-3.9H98l0.2,3.8C98.5,99.6,100.1,99.3,102,99.3z"/>
			<path class="weown47" d="M102,99.3c-1.9,0-3.5,0.3-3.7,0.7v0.2c0.2,0.4,1.8,0.7,3.7,0.7c2,0,3.6-0.3,3.7-0.7v-0.1
				C105.7,99.6,104.1,99.3,102,99.3z"/>
		</g>
		<path class="weown31" d="M106,96.1c0,0.4-1.8,0.8-4,0.8s-4-0.3-4-0.8c0-0.4,1.8-0.8,4-0.8C104.3,95.3,106,95.7,106,96.1z"/>
		<path class="weown51" d="M105.8,96.1c0,0.4-1.7,0.6-3.8,0.6c-2.1,0-3.8-0.3-3.8-0.6c0-0.4,1.7-0.7,3.8-0.7
			C104.2,95.5,105.8,95.8,105.8,96.1z"/>
	</g>
	<path class="weown66" d="M55.7,106.1c-0.6,0.3-1.2,0.6-1.8,0.9C54.4,106.7,55,106.4,55.7,106.1z"/>
	<g>
		<g>
			<path class="weown67" d="M271.8,97.3c0,0-5,1.9-4.9,3.7c0,0,0.1,0.7,1.2,0.7c0,0-1,1.7,0.7,1.9c0,0-0.3,1.7,1.4,1.2l3.7-1.4l1.6-3.9
				C275.5,99.5,273.1,96.9,271.8,97.3z"/>
			<path class="weown68" d="M281.1,98.5c-0.7,0.2-7.1-5.8-7.1-5.8c-1-0.8-3.6,1.1-4.4,1.6s-1.5,1-2.2,1.6c-0.8,0.6-0.9,1-1.2,2
				c-0.2,0.6-0.3,1.1-0.5,1.7c-0.2,0.7-0.5,1.5-0.7,2.2c-0.8,1.9,0.5,2.3,0.5,2.3c0.5-0.2,1.1-0.8,1.6-1.5l0.1-0.1
				c1.1-1.6,1.9-3.6,1.9-3.6c1.5-1.6,4.2-1.1,4.2-1.1c1.8,2.3,0,3.5,0,3.5c-0.1,0-0.2,0-0.3,0l-2.1,2.6c0.7,0.1,2.3,0.4,2.5,0.4
				c5.5,3,9.1-1.2,9.1-1.2l0.6-4.1L281.1,98.5z"/>
			<g>
				<path class="weown62" d="M265.8,105.8c0.1,0-0.1,0.3-0.1,0.3c0.2-0.3,0.3-0.3,0.3-0.3l-0.2,0.4c0.1-0.1,0.2-0.2,0.2-0.2
					c0.1,0,0,0.2-0.1,0.4l-0.1,0.1l-0.2,0.1l-0.2,0.1c0-0.1,0-0.2,0-0.2l0.1-0.2v-0.2C265.8,105.8,265.8,105.8,265.8,105.8z"/>
				<path class="weown69" d="M267.1,104.4c-0.1,0-0.3,0-0.6,0.4c0.1-0.1,0.2-0.5,0-0.6s-0.4,0.1-0.6,0.2l10.9-14.7
					c0.3,0,0.6,0.1,0.9,0.4l0,0L267.1,104.4z"/>
				<path class="weown70" d="M277.9,89.3C277.9,89.4,277.9,89.4,277.9,89.3c0.1,0.1,0.1,0.1,0.1,0.1l0.1,0.1l0,0l-0.4,0.5l0,0l0,0l0,0
					c-0.3-0.2-0.6-0.4-0.9-0.4l0.4-0.5l0,0c0,0,0,0,0,0.1C277.4,89.2,277.7,89.2,277.9,89.3z"/>
				<path class="weown71" d="M278.2,89.5l-0.1-0.1c0,0,0,0-0.1,0h-0.1c-0.1-0.1-0.2-0.1-0.4-0.1c-0.1,0-0.2,0-0.2,0v-0.1
					C277.5,89,277.9,89.1,278.2,89.5L278.2,89.5L278.2,89.5L278.2,89.5z"/>
				<path class="weown72" d="M267.1,104.4l-0.5,0.7L266,106l0,0c0,0-0.1,0-0.3,0.3c0,0,0.2-0.3,0.1-0.3c0,0,0,0-0.3,0.2l0.4-1.7
					c0,0,0,0,0.1,0c0.2-0.1,0.4-0.3,0.6-0.2c0.2,0.1,0.1,0.5,0,0.6C266.9,104.4,267.1,104.3,267.1,104.4z"/>
				<path class="weown73" d="M267.4,104.9c0,0-0.1,0-0.5,0.3c0,0,0.4-0.6,0.2-0.7l0,0L277.8,90c0.3,0.2,0.5,0.5,0.5,0.8l0,0l0,0
					l-11,14.7C267.4,105.5,267.6,104.9,267.4,104.9z"/>
				<path class="weown62" d="M278.2,89.5l0.1,0.1l0,0c0,0,0,0,0.1,0.1c0.2,0.2,0.3,0.4,0.3,0.6l0,0l0,0l-0.4,0.5
					c-0.1-0.3-0.2-0.6-0.5-0.8L278.2,89.5z"/>
				<path class="weown74" d="M278.8,90.3C278.8,90.3,278.7,90.3,278.8,90.3c-0.1,0-0.1-0.1-0.2-0.2s-0.1-0.2-0.2-0.3c0,0,0,0-0.1-0.1
					l0,0l-0.1-0.1l0.2-0.3C278.8,89.6,279,90,278.8,90.3z"/>
				<path class="weown75" d="M267.2,104.4c0.2,0.1-0.2,0.7-0.2,0.7c0.3-0.3,0.5-0.3,0.5-0.3c0.2,0,0,0.6-0.1,0.7l0,0l0,0l-1.5,0.8
					c0.1-0.2,0.2-0.4,0.1-0.4c0,0-0.1,0.1-0.2,0.2c0,0,0.2-0.3,0.2-0.4l0.6-0.9L267.2,104.4L267.2,104.4z"/>
			</g>
			<path class="weown68" d="M267.4,103.8c1.2,0.1,1.4-0.1,2.5,0.1s1.7,0.2,2.3,0.2l0.9-2.8C265.7,100.7,267.4,103.8,267.4,103.8z"/>
		</g>
		<path class="weown11" d="M327.3,67.4l-4,4.6c0,0-12.9,17.9-15.7,19.8c-3.1-0.1-25.4,6.7-25.4,6.7l-1.1,9.4c4.9,0.6,32.5-0.5,36-3.6
			c1.7-1.5,19.8-19.3,19.4-21C336.5,83.4,327.3,67.4,327.3,67.4z"/>
		<path class="weown8" d="M286.9,108.6c0,0-8-2-10.9-0.6c0,0-8.9,5.2-8.6,10.4l13.7-1.1c0,0,5.4,0.5,6.6-1.4L286.9,108.6z"/>
		<g>
			<path class="weown35" d="M326.1,96.8c0,0-0.2,8.7-2.8,18.9c1.2,2.8,3.4,7,3.4,7l4.2-5.5c0,0,0.5-17-1.1-22.6
				C328.3,88.8,326.1,96.8,326.1,96.8z"/>
			<g>
				<g>
					<g>
						<path class="weown8" d="M310.7,43.2c0.2,1.7,0.4,5.1,1.2,5.8c0.7,0.7,1.7,1.2,1.5,3.1c-0.1,1.7-1.1,4.3-0.6,5
							c0.8,1.2,1.9,0.3,2.5,0.6c0.8,0.4,0.2,0.8,0.6,1.3s0.9,0.3,0.9,0.3s-0.4,1,1.2,1.4c0.6,0.2-0.7,2.4,2,2.8
							c2.7,0.4,4.6-1.5,5.3-1c0.7,0.5,0.4,0.6,0.7,1.4c0.5,1.3,0.9,1,1.9,1.9c1,1,11.8-10.9,11.8-10.9s-3.4-3.7-3-6.9
							c0.7-6,2-16.8-8-18.8c-6.6-2.6-10.7,1.7-12.3,2.9C312.8,35.2,310.5,41.6,310.7,43.2z"/>
						<path class="weown76" d="M315.4,39.1c0,0.9,0.5,2.3,2,3.9c1.5,1.6,2.1,1.4,4.3,2.9c0.6,0.4,1.5,1.9,1.9,2.4
							c1,1.1,1.8,1.5,2.5,1.5c0.9-0.1,0.6-4,2-4.9c3.4-2.5,5.5,1.3,4.4,4.7c1.8,4.3,4.3,4.8,6.1,2.6c-0.2-1.7-0.5-4.9-0.2-7.1
							c0.7-6,0.1-14.7-9.8-16.7c-6.6-2.6-11.6,1.6-13.1,2.8c-3.7,2.9-8.3,10.3-6.6,12.8c0,0.1,0.1,0.1,0.1,0.1c0.3,0,0.5,0,0.8-0.1
							c0.5-0.3,1-0.8,1-0.8s0,0.1,0,0.3C312.4,42.3,312.9,39.3,315.4,39.1z"/>
						<path class="weown13" d="M329.9,53.1c0,0,0.2,1.7-0.1,2.7c-0.3,1-2,4.4-2.4,4.8c-0.4,0.4-1.5,1.9-2.6,2.1c0.3,0,0.4,0,0.6,0
							c1.1-0.5,2.2-1.3,2.6-2.2s1.7-3.7,1.9-4.2C330.4,55.1,329.9,53.1,329.9,53.1z"/>
					</g>
					<path class="weown13" d="M328.2,47.8c0.1,0.9,1.7,3.2,2.4,3c0.8-0.2,0.9-3.6,0.3-4.3C328.9,44.4,328.1,46.9,328.2,47.8z"/>
				</g>
				<g>
					<path class="weown77" d="M312.3,98.4c2.7-6.1,10.8-25.1,15.1-31c0-1.3-0.2-1.9-0.2-1.9s9.6-2.5,14.7-7.6
						c8.9,5.9,11.2,13.6,12.7,19c2.5,9.2,3.7,20.8,4.2,30.6c0.3,5.5,3.1,9.8-0.7,10.1c-0.6,0-4.5,0.3-5.7,0.4
						c-3.6,0.2-16.2,1.3-22.4,2.6c-2.4,1.1-3.3-0.2-2.1-5.7c0.8-3.6,0.8-7,0.2-13.8c-0.2-2.1-0.2-3.5-0.2-3.3
						c-1.5,3.6-7.2,10.4-9,11.5c-5.6,3.5-24,6.4-31.3,7.9c-0.6-3.1-1.9-9.6-1.9-9.6S304,102.5,312.3,98.4z"/>
					<path class="weown11" d="M327.9,97.8c0,0,0.1,0.7,0.1,1.6c2.1-0.4,3.7-1.2,7.1-6.9c-1.2,1.2-3,3.1-5,4.3c3.8-4.3,3.9-7.3,3.9-7.3
						S332.6,92.4,327.9,97.8z"/>
					<path class="weown51" d="M326.7,68.4c3.9-0.5,11.7-4.3,15.8-10c0-0.7-1.2-5-2.1-5.1c-0.9,0.1-2.1,4.1-6.2,7.7
						c-5.1,4.6-8.1,4.1-8.4,4.6C326.1,66.6,326.8,67.3,326.7,68.4z"/>
				</g>
			</g>
		</g>
	</g>
	<g>
		<path class="weown31" d="M233.6,94.8c0,0,7.7,0.4,8.6,6.2C242.2,101,239.4,97.5,233.6,94.8z"/>
		<g>
			<path class="weown8" d="M225.9,102c0,0,1.3-5.6,7.7-7.1c0,0,8.1,1.9,8.6,6.2C242.5,103.9,222.9,107,225.9,102z"/>
			<g>
				<path class="weown8" d="M176,91.8c0,0-5.6,3.7-5.9,6.1c0,0-0.3,4.9,1.1,4.9c0,0,1.9,0.3,3.1-0.3c0,0,3.3,1,4.3,0
					c0,0,1.6,1.3,2.7,0.1c0,0,2,0.9,2.9-1.1C184.3,101.5,186.7,90.4,176,91.8z"/>
				<path class="weown13" d="M175,95.1c0,0,0.9,6.7,3.7,7.4C178.7,102.5,176,99.7,175,95.1z"/>
				<path class="weown13" d="M179.2,95.8c0,0,0.5,4.6,1.9,5.1c-0.4-0.2,0-2.8,0.1-3.2c0.4-1,0.7-1.7,0.4-2.8
					C181.5,95,180.8,97.2,179.2,95.8z"/>
				<g>
					<path class="weown62" d="M182,104.2c0.1,0,0.2,0.3,0.2,0.3c-0.1-0.3-0.1-0.5-0.1-0.5l0.2,0.4c0-0.2,0-0.3,0-0.3s0.1,0.2,0.2,0.3
						v0.1v0.2c0,0,0,0.2-0.1,0.2s-0.1-0.1-0.2-0.2l-0.1-0.2l-0.1-0.1C182,104.2,182,104.2,182,104.2z"/>
					<path class="weown69" d="M181.8,102.2c-0.1,0-0.2,0.2-0.1,0.7c0-0.2-0.3-0.5-0.5-0.4s-0.2,0.4-0.2,0.6l-4-17.9
						c0.2-0.2,0.5-0.4,0.9-0.5l0,0L181.8,102.2z"/>
					<path class="weown70" d="M177.4,84.2L177.4,84.2c0.1,0,0.1,0,0.1-0.1c0.1,0,0.1,0,0.2,0l0,0l0.1,0.6l0,0l0,0l0,0
						c-0.4,0.1-0.7,0.3-0.9,0.5l-0.1-0.6l0,0l0,0C177,84.4,177.1,84.3,177.4,84.2z"/>
					<path class="weown71" d="M177.7,84.1c-0.1,0-0.1,0-0.2,0c0,0,0,0-0.1,0h-0.1c-0.1,0.1-0.3,0.1-0.4,0.2c-0.1,0.1-0.1,0.1-0.2,0.2
						c0,0,0-0.1-0.1-0.1c-0.1-0.3,0.3-0.6,0.8-0.7l0,0L177.7,84.1L177.7,84.1z"/>
					<path class="weown72" d="M181.8,102.2l0.2,0.8l0.2,1.1l0,0c0,0-0.1,0.1,0.1,0.5c0,0-0.1-0.3-0.2-0.3c0,0,0,0,0,0.3l-1-1.4
						c0,0,0,0,0-0.1c0-0.2,0-0.5,0.2-0.6s0.4,0.3,0.5,0.4C181.6,102.4,181.7,102.2,181.8,102.2z"/>
					<path class="weown73" d="M182.3,102.3c0,0-0.1,0.1-0.1,0.5c0,0-0.2-0.7-0.4-0.6c0,0,0,0-0.1,0l-3.9-17.5c0.4-0.1,0.7,0,1,0.1l0,0
						l0,0l4,18C182.8,102.7,182.5,102.1,182.3,102.3z"/>
					<path class="weown62" d="M177.7,84.1c0.1,0,0.1,0,0.2,0c0,0,0,0,0.1,0h0.1c0.3,0,0.5,0,0.6,0.2c0,0,0,0,0-0.1l0,0l0.1,0.6
						c-0.2-0.1-0.6-0.2-1-0.1L177.7,84.1z"/>
					<path class="weown74" d="M178.7,84L178.7,84c-0.1,0.1-0.1,0-0.2,0c-0.1,0-0.3,0-0.4,0H178c0,0,0,0-0.1,0s-0.1,0-0.2,0l-0.1-0.3
						C178.2,83.7,178.6,83.8,178.7,84z"/>
					<path class="weown75" d="M181.8,102.2c0.2-0.1,0.4,0.6,0.4,0.6c0-0.4,0.1-0.5,0.1-0.5c0.1-0.2,0.5,0.4,0.5,0.5l0,0l0,0l-0.3,1.7
						c-0.1-0.2-0.1-0.4-0.2-0.3c0,0,0,0.1,0,0.3c0,0-0.1-0.3-0.1-0.4L182,103L181.8,102.2L181.8,102.2z"/>
				</g>
			</g>
		</g>
	</g>
	<path class="weown12" d="M89,91.3c-1.4-4-3.8-13.4-5.4-19.5c-4.8,1.4-5.7,9-4.7,13.4c0.5,2.1,3.1,4.2,3.1,6.3
		c0.7,6.5-4.7,9.6-10.6,11.8c-1.4,1.1-2.9,1.8-2.9,3.9c0,7,3.9,9.4,3.9,9.4l4.7,0.5c0,0,10.6-9.5,12.7-13
		C91.9,100.6,90.9,96.9,89,91.3z"/>
	<path class="weown5" d="M79.6,76.6c0,0-2.3,3.7-0.5,7.7c0.9,2,1.3,5.7,2,7.8c1.9,5.8-6.6,20.1-6.6,20.1c2.9,1,4.7-6.6,6.8-9.2
		c1-1.3,2.4-2.4,7.2-1.4c-2.9-2.1-5.6-0.6-5.5-0.8c1-1.2,2.7-2.4,5.9-2.3c-0.7-0.8-3.9-0.9-5.8,0.6c1.7-7.1-2.2-11.4-3.3-14.4
		C78.7,81.7,79.6,76.6,79.6,76.6z"/>
	<g>
		<path class="weown8" d="M75.2,107.9c0,0,11.6,2.2,14.1,1.5c1.7-0.8,5.4-2,7.1-1.3c0,0,7.1,3.4,7.3,7.5c-0.3,0.9-3.7-0.1-6.6-0.4
			c-1.7-0.2-3.3,0.5-4,0.4c-2.4-0.4-1.7-1.3-3.2-1.2c-4.3,0.2-15.5,2-16.3,1L75.2,107.9z"/>
		<path class="weown14" d="M75.2,107.9c-2.6,0.8-1.6,7.5-1.6,7.5c0.3,0.4,2.2,0.8,4.7,0.6c0-2.8,0.9-5.2,2.2-7.2
			C78.7,107.9,77.9,107.1,75.2,107.9z"/>
		<path class="weown5" d="M41.5,92.1c0,0,0.3,15.6,7.2,22.7c3.4,3.5,26.9,2.5,29,1.2c-0.3-0.9-2.7-1.9-2.7-3.6c0-2.4,3.7-3.3,4.6-4.1
			c-2.5-1.3-17.3-2.4-19.1-3.7c-1.8-1.2-3.1-17.9-3.1-17.9s-1-10-5-13.4s-6.9-2.1-9.5,1C38,80.3,41.5,92.1,41.5,92.1z"/>
		<path class="weown12" d="M42.2,91.5c0,0,1.8,18.9,6.4,22c4.1,2.7,26.9,4.1,29,2.8c0.1-1.1-1.2-2.2-1.1-3.9c0-2.4,2.3-3.3,3.2-4
			c-4.4-4.1-17.3-2.4-19.1-3.7c-1.8-1.2-4.3-17.9-4.3-17.9s0.1-10-3.9-13.4s-6.9-2.1-9.5,1C38,80.3,42.2,91.5,42.2,91.5z"/>
		<path class="weown5" d="M48.6,106.4c3.1-0.5,5.7-1,8.9-1c-0.5,0.5-3.2,2.2-2.7,5.7c0.5-3.2,4.3-5.8,6.1-6.3c-0.1,0-0.2-0.1-0.3-0.1
			c-0.2-0.1-0.3-0.4-0.5-0.7C56.1,103.5,52.2,104.2,48.6,106.4z"/>
	</g>
</g>
</svg>
