<?xml version="1.0" encoding="utf-8"?>
<!-- Generator: Adobe Illustrator 26.1.0, SVG Export Plug-In . SVG Version: 6.00 Build 0)  -->
<svg version="1.1" id="Layer_1" xmlns="http://www.w3.org/2000/svg" xmlns:xlink="http://www.w3.org/1999/xlink" x="0px" y="0px"
	 viewBox="0 0 287.9 350" style="enable-background:new 0 0 287.9 350;" xml:space="preserve">
<style type="text/css">
	.st0{opacity:0.5;fill:#FFFFFF;}
	.st1{opacity:0.5;fill:#1F3F7A;}
	.st2{fill:#3B6DAB;}
	.st3{fill:#5793CE;}
	.st4{fill:#D4EAF9;}
	.st5{fill:#1F3F7A;}
	.st6{fill:#FFFFFF;}
	.st7{fill:#ED3995;}
</style>
<g>
	<path class="st0" d="M226.7,302.07c-2.01,0-3.94-0.42-5.42-1.27l-42.21-24.37c-1.76-1.02-2.77-2.58-2.77-4.3
		c0-1.94,1.27-3.78,3.49-5.06l40.76-23.53c3.61-2.08,8.94-2.27,12.14-0.42l42.21,24.37c1.76,1.02,2.77,2.58,2.77,4.3
		c0,1.94-1.27,3.78-3.49,5.06l-40.76,23.53C231.48,301.5,229.04,302.07,226.7,302.07z M227.31,245.91c-1.64,0-3.41,0.39-4.72,1.15
		l-40.76,23.53c-1.15,0.66-1.46,1.29-1.46,1.54c0,0.21,0.29,0.51,0.73,0.77l42.21,24.37c1.95,1.13,5.72,0.93,8.07-0.42l40.76-23.53
		c1.15-0.66,1.46-1.29,1.46-1.54c0-0.21-0.29-0.51-0.73-0.77l-42.21-24.37C229.8,246.15,228.59,245.91,227.31,245.91z"/>
	<path class="st0" d="M60.63,302.21c-2.01,0-3.94-0.42-5.42-1.27l0,0L13,276.56c-1.76-1.02-2.77-2.58-2.77-4.3
		c0-1.94,1.27-3.78,3.49-5.07l40.76-23.53c3.61-2.08,8.94-2.27,12.15-0.42l42.21,24.37c1.76,1.02,2.77,2.58,2.77,4.3
		c0,1.94-1.27,3.78-3.49,5.07l-40.76,23.53C65.41,301.63,62.97,302.21,60.63,302.21z M57.25,297.4c1.96,1.13,5.73,0.93,8.07-0.42
		l40.76-23.53c1.15-0.66,1.45-1.29,1.45-1.53c0-0.21-0.29-0.51-0.73-0.77l-42.21-24.37c-1.95-1.13-5.73-0.93-8.07,0.42l-40.76,23.53
		c-1.15,0.66-1.46,1.29-1.46,1.53c0,0.21,0.29,0.51,0.73,0.77L57.25,297.4z"/>
	<path class="st0" d="M143.66,350c-2.01,0-3.94-0.42-5.42-1.27l-42.21-24.37c-1.76-1.02-2.77-2.58-2.77-4.3
		c0-1.94,1.27-3.78,3.49-5.06l40.76-23.53c3.61-2.08,8.94-2.27,12.14-0.42l42.21,24.37c1.76,1.02,2.77,2.58,2.77,4.3
		c0,1.94-1.27,3.78-3.49,5.06l-40.76,23.53C148.44,349.43,146,350,143.66,350z M140.28,345.19c1.96,1.13,5.73,0.93,8.07-0.42
		l40.76-23.53c1.15-0.66,1.46-1.29,1.46-1.53c0-0.21-0.29-0.51-0.73-0.77l-42.21-24.37c-1.95-1.13-5.72-0.93-8.07,0.42l-40.76,23.53
		c-1.15,0.66-1.46,1.29-1.46,1.53c0,0.21,0.29,0.51,0.73,0.77L140.28,345.19z"/>
	<g>
		<path class="st1" d="M139.27,247.67L97.06,223.3c-2.59-1.5-2.27-4.11,0.73-5.84l40.76-23.53c2.99-1.73,7.52-1.91,10.11-0.42
			l42.21,24.37c2.59,1.5,2.27,4.11-0.73,5.84l-40.76,23.53C146.38,248.98,141.86,249.17,139.27,247.67z"/>
		<g>
			<path class="st2" d="M204.86,199.33L204.86,199.33v-18.24l-40.89-0.02l-14.13-8.16c-3.24-1.87-8.91-1.64-12.66,0.52l-13.19,7.61
				l-40.93-0.02v18.76c-0.09,1.27,0.61,2.49,2.17,3.39l52.86,30.52c3.24,1.87,8.91,1.64,12.66-0.52l51.04-29.47
				C203.94,202.45,204.98,200.83,204.86,199.33z"/>
			<path class="st2" d="M143.96,171.65c-2.37,0.06-4.84,0.66-6.78,1.78l-13.19,7.61l-40.93-0.02v18.76
				c-0.09,1.27,0.61,2.49,2.17,3.39l52.86,30.52c1.56,0.9,3.68,1.31,5.87,1.25V171.65z"/>
			<path class="st3" d="M87.69,181.03l-4.63,0v18.76c-0.09,1.27,0.61,2.49,2.17,3.39l2.46,1.42V181.03z"/>
			<path class="st3" d="M138.9,234.08c2.8,1.2,6.85,1.13,10.12-0.12v-21.3H138.9V234.08z"/>
			<path class="st4" d="M138.08,215l-52.86-30.52c-3.24-1.87-2.84-5.14,0.91-7.31l51.04-29.47c3.75-2.16,9.41-2.4,12.66-0.52
				l52.86,30.52c3.24,1.87,2.84,5.14-0.91,7.31l-51.04,29.47C146.99,216.64,141.33,216.87,138.08,215z"/>
			<path class="st3" d="M139.03,209.5l-44.29-25.57c-2.72-1.57-2.38-4.31,0.76-6.12l42.77-24.69c3.14-1.81,7.89-2.01,10.61-0.44
				l44.29,25.57c2.72,1.57,2.38,4.31-0.76,6.12l-42.77,24.69C146.5,210.88,141.75,211.07,139.03,209.5z"/>
			<g>
				<path class="st4" d="M185.42,204.14c0,1.36-0.96,3.02-2.13,3.7c-1.18,0.68-2.13,0.13-2.13-1.23c0-1.36,0.96-3.02,2.13-3.7
					C184.46,202.23,185.42,202.78,185.42,204.14z"/>
				<path class="st4" d="M192.28,200.18c0,1.36-0.96,3.02-2.13,3.7c-1.18,0.68-2.13,0.13-2.13-1.23c0-1.36,0.96-3.02,2.13-3.7
					C191.33,198.26,192.28,198.81,192.28,200.18z"/>
				<path class="st4" d="M199.15,196.21c0,1.36-0.96,3.02-2.13,3.7c-1.18,0.68-2.13,0.13-2.13-1.23c0-1.36,0.96-3.02,2.13-3.7
					C198.2,194.3,199.15,194.85,199.15,196.21z"/>
			</g>
		</g>
		<g>
			<path class="st2" d="M204.86,170.18L204.86,170.18v-18.24l-40.89-0.02l-14.13-8.16c-3.24-1.87-8.91-1.64-12.66,0.52l-13.19,7.61
				l-40.93-0.02v18.76c-0.09,1.27,0.61,2.49,2.17,3.39l52.86,30.52c3.24,1.87,8.91,1.64,12.66-0.52l51.04-29.47
				C203.94,173.3,204.98,171.69,204.86,170.18z"/>
			<path class="st2" d="M143.96,142.51c-2.37,0.06-4.84,0.66-6.78,1.78l-13.19,7.61l-40.93-0.02v18.76
				c-0.09,1.27,0.61,2.49,2.17,3.39l52.86,30.52c1.56,0.9,3.68,1.31,5.87,1.25V142.51z"/>
			<path class="st3" d="M87.69,151.88l-4.63,0v18.76c-0.09,1.27,0.61,2.49,2.17,3.39l2.46,1.42V151.88z"/>
			<path class="st3" d="M138.9,204.94c2.8,1.2,6.85,1.13,10.12-0.12v-21.3H138.9V204.94z"/>
			<path class="st4" d="M138.08,185.85l-52.86-30.52c-3.24-1.87-2.84-5.14,0.91-7.31l51.04-29.47c3.75-2.16,9.41-2.4,12.66-0.52
				l52.86,30.52c3.24,1.87,2.84,5.14-0.91,7.31l-51.04,29.47C146.99,187.49,141.33,187.73,138.08,185.85z"/>
			<path class="st3" d="M139.03,180.36l-44.29-25.57c-2.72-1.57-2.38-4.31,0.76-6.12l42.77-24.69c3.14-1.81,7.89-2.01,10.61-0.44
				l44.29,25.57c2.72,1.57,2.38,4.31-0.76,6.12l-42.77,24.69C146.5,181.73,141.75,181.93,139.03,180.36z"/>
			<g>
				<path class="st4" d="M185.42,175c0,1.36-0.96,3.02-2.13,3.7c-1.18,0.68-2.13,0.13-2.13-1.23c0-1.36,0.96-3.02,2.13-3.7
					C184.46,173.08,185.42,173.64,185.42,175z"/>
				<path class="st4" d="M192.28,171.03c0,1.36-0.96,3.02-2.13,3.7c-1.18,0.68-2.13,0.13-2.13-1.23c0-1.36,0.96-3.02,2.13-3.7
					C191.33,169.12,192.28,169.67,192.28,171.03z"/>
				<path class="st4" d="M199.15,167.07c0,1.36-0.96,3.02-2.13,3.7c-1.18,0.68-2.13,0.13-2.13-1.23c0-1.36,0.96-3.02,2.13-3.7
					C198.2,165.15,199.15,165.7,199.15,167.07z"/>
			</g>
		</g>
		<g>
			<path class="st2" d="M204.86,141.04L204.86,141.04V122.8l-40.89-0.02l-14.13-8.16c-3.24-1.87-8.91-1.64-12.66,0.52l-13.19,7.61
				l-40.93-0.02v18.76c-0.09,1.27,0.61,2.49,2.17,3.39l52.86,30.52c3.24,1.87,8.91,1.64,12.66-0.52l51.04-29.47
				C203.94,144.16,204.98,142.54,204.86,141.04z"/>
			<path class="st2" d="M143.96,113.36c-2.37,0.06-4.84,0.66-6.78,1.78l-13.19,7.61l-40.93-0.02v18.76
				c-0.09,1.27,0.61,2.49,2.17,3.39l52.86,30.52c1.56,0.9,3.68,1.31,5.87,1.25V113.36z"/>
			<path class="st3" d="M87.69,122.74l-4.63,0v18.76c-0.09,1.27,0.61,2.49,2.17,3.39l2.46,1.42V122.74z"/>
			<path class="st3" d="M138.9,175.8c2.8,1.2,6.85,1.13,10.12-0.12v-21.3H138.9V175.8z"/>
			<path class="st4" d="M138.08,156.71l-52.86-30.52c-3.24-1.87-2.84-5.14,0.91-7.31l51.04-29.47c3.75-2.16,9.41-2.4,12.66-0.52
				l52.86,30.52c3.24,1.87,2.84,5.14-0.91,7.31l-51.04,29.47C146.99,158.35,141.33,158.58,138.08,156.71z"/>
			<path class="st3" d="M139.03,151.22l-44.29-25.57c-2.72-1.57-2.38-4.31,0.76-6.12l42.77-24.69c3.14-1.81,7.89-2.01,10.61-0.44
				l44.29,25.57c2.72,1.57,2.38,4.31-0.76,6.12l-42.77,24.69C146.5,152.59,141.75,152.79,139.03,151.22z"/>
			<g>
				<path class="st4" d="M185.42,145.85c0,1.36-0.96,3.02-2.13,3.7c-1.18,0.68-2.13,0.13-2.13-1.23c0-1.36,0.96-3.02,2.13-3.7
					C184.46,143.94,185.42,144.49,185.42,145.85z"/>
				<path class="st4" d="M192.28,141.89c0,1.36-0.96,3.02-2.13,3.7c-1.18,0.68-2.13,0.13-2.13-1.23c0-1.36,0.96-3.02,2.13-3.7
					C191.33,139.97,192.28,140.53,192.28,141.89z"/>
				<path class="st4" d="M199.15,137.92c0,1.36-0.96,3.02-2.13,3.7c-1.18,0.68-2.13,0.13-2.13-1.23c0-1.36,0.96-3.02,2.13-3.7
					C198.2,136.01,199.15,136.56,199.15,137.92z"/>
			</g>
		</g>
		<g>
			<path class="st2" d="M204.86,111.9L204.86,111.9V93.66l-40.89-0.02l-14.13-8.16c-3.24-1.87-8.91-1.64-12.66,0.52l-13.19,7.61
				l-40.93-0.02v18.76c-0.09,1.27,0.61,2.49,2.17,3.39l52.86,30.52c3.24,1.87,8.91,1.64,12.66-0.52l51.04-29.47
				C203.94,115.02,204.98,113.4,204.86,111.9z"/>
			<path class="st2" d="M143.96,84.22c-2.37,0.06-4.84,0.66-6.78,1.78l-13.19,7.61l-40.93-0.02v18.76
				c-0.09,1.27,0.61,2.49,2.17,3.39l52.86,30.52c1.56,0.9,3.68,1.31,5.87,1.25V84.22z"/>
			<path class="st3" d="M87.69,93.59l-4.63,0v18.76c-0.09,1.27,0.61,2.49,2.17,3.39l2.46,1.42V93.59z"/>
			<path class="st3" d="M138.9,146.65c2.8,1.2,6.85,1.13,10.12-0.12v-21.3H138.9V146.65z"/>
			<path class="st4" d="M138.08,127.57L85.23,97.05c-3.24-1.87-2.84-5.14,0.91-7.31l51.04-29.47c3.75-2.16,9.41-2.4,12.66-0.52
				l52.86,30.52c3.24,1.87,2.84,5.14-0.91,7.31l-51.04,29.47C146.99,129.2,141.33,129.44,138.08,127.57z"/>
			<path class="st3" d="M139.03,122.07L94.74,96.5c-2.72-1.57-2.38-4.31,0.76-6.12l42.77-24.69c3.14-1.81,7.89-2.01,10.61-0.44
				l44.29,25.57c2.72,1.57,2.38,4.31-0.76,6.12l-42.77,24.69C146.5,123.45,141.75,123.64,139.03,122.07z"/>
			<g>
				<path class="st4" d="M185.42,116.71c0,1.36-0.96,3.02-2.13,3.7c-1.18,0.68-2.13,0.13-2.13-1.23c0-1.36,0.96-3.02,2.13-3.7
					C184.46,114.8,185.42,115.35,185.42,116.71z"/>
				<path class="st4" d="M192.28,112.74c0,1.36-0.96,3.02-2.13,3.7c-1.18,0.68-2.13,0.13-2.13-1.23c0-1.36,0.96-3.02,2.13-3.7
					C191.33,110.83,192.28,111.38,192.28,112.74z"/>
				<path class="st4" d="M199.15,108.78c0,1.36-0.96,3.02-2.13,3.7c-1.18,0.68-2.13,0.13-2.13-1.23c0-1.36,0.96-3.02,2.13-3.7
					C198.2,106.86,199.15,107.42,199.15,108.78z"/>
			</g>
		</g>
		<g>
			<path class="st2" d="M204.86,82.75L204.86,82.75V64.51l-40.89-0.02l-14.13-8.16c-3.24-1.87-8.91-1.64-12.66,0.52l-13.19,7.61
				l-40.93-0.02V83.2c-0.09,1.27,0.61,2.49,2.17,3.39l52.86,30.52c3.24,1.87,8.91,1.64,12.66-0.52l51.04-29.47
				C203.94,85.87,204.98,84.26,204.86,82.75z"/>
			<path class="st5" d="M143.96,55.08c-2.37,0.06-4.84,0.66-6.78,1.78l-13.19,7.61l-40.93-0.02V83.2c-0.09,1.27,0.61,2.49,2.17,3.39
				l52.86,30.52c1.56,0.9,3.68,1.31,5.87,1.25V55.08z"/>
			<path class="st3" d="M87.69,64.45l-4.63,0V83.2c-0.09,1.27,0.61,2.49,2.17,3.39l2.46,1.42V64.45z"/>
			<path class="st3" d="M138.9,117.51c2.8,1.2,6.85,1.13,10.12-0.12V96.1H138.9V117.51z"/>
			<path class="st4" d="M138.08,98.42L85.23,67.91c-3.24-1.87-2.84-5.14,0.91-7.31l51.04-29.47c3.75-2.16,9.41-2.4,12.66-0.52
				l52.86,30.52c3.24,1.87,2.84,5.14-0.91,7.31L150.74,97.9C146.99,100.06,141.33,100.29,138.08,98.42z"/>
			<path class="st3" d="M139.03,92.93L94.74,67.36c-2.72-1.57-2.38-4.31,0.76-6.12l42.77-24.69c3.14-1.81,7.89-2.01,10.61-0.44
				l44.29,25.57c2.72,1.57,2.38,4.31-0.76,6.12l-42.77,24.69C146.5,94.3,141.75,94.5,139.03,92.93z"/>
			<g>
				
					<rect x="160.61" y="94.71" transform="matrix(0.8659 -0.5002 0.5002 0.8659 -24.414 99.2061)" class="st6" width="24.48" height="0.86"/>
				<path class="st4" d="M185.42,87.56c0,1.36-0.96,3.02-2.13,3.7c-1.18,0.68-2.13,0.13-2.13-1.23s0.96-3.02,2.13-3.7
					C184.46,85.65,185.42,86.2,185.42,87.56z"/>
				<path class="st4" d="M192.28,83.6c0,1.36-0.96,3.02-2.13,3.7c-1.18,0.68-2.13,0.13-2.13-1.23c0-1.36,0.96-3.02,2.13-3.7
					C191.33,81.69,192.28,82.24,192.28,83.6z"/>
				<path class="st4" d="M199.15,79.63c0,1.36-0.96,3.02-2.13,3.7c-1.18,0.68-2.13,0.13-2.13-1.23s0.96-3.02,2.13-3.7
					C198.2,77.72,199.15,78.27,199.15,79.63z"/>
			</g>
		</g>
		<g>
			<path class="st2" d="M204.86,53.41L204.86,53.41V35.17l-40.89-0.02l-14.13-8.16c-3.24-1.87-8.91-1.64-12.66,0.52l-13.19,7.61
				L83.05,35.1v18.76c-0.09,1.27,0.61,2.49,2.17,3.39l52.86,30.52c3.24,1.87,8.91,1.64,12.66-0.52l51.04-29.47
				C203.94,56.53,204.98,54.91,204.86,53.41z"/>
			<path class="st5" d="M143.96,25.73c-2.37,0.06-4.84,0.66-6.78,1.78l-13.19,7.61L83.05,35.1v18.76c-0.09,1.27,0.61,2.49,2.17,3.39
				l52.86,30.52c1.56,0.9,3.68,1.31,5.87,1.25V25.73z"/>
			<path class="st3" d="M87.69,35.11l-4.63,0v18.76c-0.09,1.27,0.61,2.49,2.17,3.39l2.46,1.42V35.11z"/>
			<path class="st3" d="M138.9,88.16c2.8,1.2,6.85,1.13,10.12-0.12v-21.3H138.9V88.16z"/>
			<path class="st4" d="M138.08,69.08L85.23,38.56c-3.24-1.87-2.84-5.14,0.91-7.31l51.04-29.47c3.75-2.16,9.41-2.4,12.66-0.52
				l52.86,30.52c3.24,1.87,2.84,5.14-0.91,7.31l-51.04,29.47C146.99,70.72,141.33,70.95,138.08,69.08z"/>
			<path class="st6" d="M201.77,35.5l-51.04,29.47c-3.75,2.16-9.41,2.4-12.66,0.52L85.23,34.97c-0.72-0.42-1.25-0.91-1.62-1.44
				c-1.11,1.79-0.61,3.74,1.62,5.03l52.86,30.52c3.24,1.87,8.91,1.64,12.66-0.52l51.04-29.47c2.91-1.68,3.79-4.03,2.53-5.87
				C203.79,34.03,202.95,34.82,201.77,35.5z"/>
			<g>
				<path class="st4" d="M185.42,58.22c0,1.36-0.96,3.02-2.13,3.7c-1.18,0.68-2.13,0.13-2.13-1.23c0-1.36,0.96-3.02,2.13-3.7
					C184.46,56.31,185.42,56.86,185.42,58.22z"/>
				<path class="st4" d="M164.38,69.78c0,1.36-0.96,3.02-2.13,3.7c-1.18,0.68-2.13,0.13-2.13-1.23c0-1.36,0.96-3.02,2.13-3.7
					C163.42,67.87,164.38,68.42,164.38,69.78z"/>
				<path class="st6" d="M164.38,100.03c0,1.36-0.96,3.02-2.13,3.7c-1.18,0.68-2.13,0.13-2.13-1.23c0-1.36,0.96-3.02,2.13-3.7
					C163.42,98.11,164.38,98.66,164.38,100.03z"/>
				<path class="st4" d="M192.28,54.26c0,1.36-0.96,3.02-2.13,3.7c-1.18,0.68-2.13,0.13-2.13-1.23c0-1.36,0.96-3.02,2.13-3.7
					C191.33,52.34,192.28,52.89,192.28,54.26z"/>
				<path class="st4" d="M199.15,50.29c0,1.36-0.96,3.02-2.13,3.7c-1.18,0.68-2.13,0.13-2.13-1.23c0-1.36,0.96-3.02,2.13-3.7
					C198.2,48.38,199.15,48.93,199.15,50.29z"/>
			</g>
			<g>
				<path class="st5" d="M141.21,50.16l-24.73-14.28c-1.52-0.88-1.33-2.41,0.43-3.42l23.88-13.79c1.75-1.01,4.4-1.12,5.92-0.25
					l24.73,14.28c1.52,0.88,1.33,2.41-0.43,3.42l-23.88,13.79C145.38,50.92,142.73,51.03,141.21,50.16z"/>
				<path class="st4" d="M143.58,38.2l-3.42-1.98c-0.21-0.12-0.18-0.33,0.06-0.47l3.3-1.91c0.24-0.14,0.61-0.16,0.82-0.03l3.42,1.98
					c0.21,0.12,0.18,0.33-0.06,0.47l-3.3,1.91C144.15,38.31,143.79,38.32,143.58,38.2z"/>
				<path class="st2" d="M116.47,35.88l0.07,0.04c0.12-0.08,0.22-0.17,0.36-0.24l23.88-13.79c1.75-1.01,4.4-1.12,5.92-0.25
					l24.66,14.24c1.4-1,1.47-2.37,0.07-3.17L146.7,18.42c-1.52-0.88-4.17-0.77-5.92,0.25L116.9,32.46
					C115.15,33.47,114.96,35,116.47,35.88z"/>
			</g>
		</g>
		<g>
			<path class="st4" d="M136.03,73.4c0,1.43-1.01,2.02-2.25,1.3c-1.24-0.72-2.25-2.46-2.25-3.9c0-1.43,1.01-2.02,2.25-1.3
				C135.02,70.22,136.03,71.97,136.03,73.4z"/>
			<path class="st3" d="M129.05,69.4c0,1.43-1.01,2.02-2.25,1.3c-1.24-0.72-2.25-2.46-2.25-3.9c0-1.43,1.01-2.02,2.25-1.3
				C128.05,66.22,129.05,67.97,129.05,69.4z"/>
			<path class="st4" d="M136.03,81.82c0,1.43-1.01,2.02-2.25,1.3c-1.24-0.72-2.25-2.46-2.25-3.9c0-1.43,1.01-2.02,2.25-1.3
				C135.02,78.65,136.03,80.39,136.03,81.82z"/>
			<path class="st4" d="M129.05,77.82c0,1.43-1.01,2.02-2.25,1.3c-1.24-0.72-2.25-2.46-2.25-3.9c0-1.43,1.01-2.02,2.25-1.3
				C128.05,74.64,129.05,76.39,129.05,77.82z"/>
		</g>
		<g>
			<path class="st4" d="M136.03,102.35c0,1.43-1.01,2.02-2.25,1.3c-1.24-0.72-2.25-2.46-2.25-3.9c0-1.43,1.01-2.02,2.25-1.3
				C135.02,99.17,136.03,100.92,136.03,102.35z"/>
			<path class="st4" d="M129.05,98.35c0,1.43-1.01,2.02-2.25,1.3c-1.24-0.72-2.25-2.46-2.25-3.9c0-1.43,1.01-2.02,2.25-1.3
				C128.05,95.17,129.05,96.92,129.05,98.35z"/>
			<path class="st3" d="M136.03,110.77c0,1.43-1.01,2.02-2.25,1.3c-1.24-0.72-2.25-2.46-2.25-3.9c0-1.43,1.01-2.02,2.25-1.3
				C135.02,107.6,136.03,109.34,136.03,110.77z"/>
			<path class="st4" d="M129.05,106.77c0,1.43-1.01,2.02-2.25,1.3c-1.24-0.72-2.25-2.46-2.25-3.9c0-1.43,1.01-2.02,2.25-1.3
				C128.05,103.59,129.05,105.34,129.05,106.77z"/>
		</g>
		<g>
			<path class="st4" d="M136.03,131.34c0,1.43-1.01,2.02-2.25,1.3c-1.24-0.72-2.25-2.46-2.25-3.9c0-1.43,1.01-2.02,2.25-1.3
				C135.02,128.16,136.03,129.9,136.03,131.34z"/>
			<path class="st3" d="M129.05,127.34c0,1.43-1.01,2.02-2.25,1.3c-1.24-0.72-2.25-2.46-2.25-3.9c0-1.43,1.01-2.02,2.25-1.3
				C128.05,124.16,129.05,125.9,129.05,127.34z"/>
			<path class="st4" d="M136.03,139.76c0,1.43-1.01,2.02-2.25,1.3c-1.24-0.72-2.25-2.46-2.25-3.9c0-1.43,1.01-2.02,2.25-1.3
				C135.02,136.58,136.03,138.33,136.03,139.76z"/>
			<path class="st3" d="M129.05,135.76c0,1.43-1.01,2.02-2.25,1.3c-1.24-0.72-2.25-2.46-2.25-3.9c0-1.43,1.01-2.02,2.25-1.3
				C128.05,132.58,129.05,134.32,129.05,135.76z"/>
		</g>
		<g>
			<path class="st3" d="M136.03,160.61c0,1.43-1.01,2.02-2.25,1.3c-1.24-0.72-2.25-2.46-2.25-3.9c0-1.43,1.01-2.02,2.25-1.3
				C135.02,157.43,136.03,159.17,136.03,160.61z"/>
			<path class="st4" d="M129.05,156.6c0,1.43-1.01,2.02-2.25,1.3c-1.24-0.72-2.25-2.46-2.25-3.9c0-1.43,1.01-2.02,2.25-1.3
				C128.05,153.43,129.05,155.17,129.05,156.6z"/>
			<path class="st4" d="M136.03,169.03c0,1.43-1.01,2.02-2.25,1.3c-1.24-0.72-2.25-2.46-2.25-3.9c0-1.43,1.01-2.02,2.25-1.3
				C135.02,165.85,136.03,167.59,136.03,169.03z"/>
			<path class="st3" d="M129.05,165.03c0,1.43-1.01,2.02-2.25,1.3c-1.24-0.72-2.25-2.46-2.25-3.9c0-1.43,1.01-2.02,2.25-1.3
				C128.05,161.85,129.05,163.59,129.05,165.03z"/>
		</g>
		<g>
			<path class="st3" d="M136.03,189.59c0,1.43-1.01,2.02-2.25,1.3c-1.24-0.72-2.25-2.46-2.25-3.9c0-1.43,1.01-2.02,2.25-1.3
				C135.02,186.41,136.03,188.16,136.03,189.59z"/>
			<path class="st4" d="M129.05,185.59c0,1.43-1.01,2.02-2.25,1.3c-1.24-0.72-2.25-2.46-2.25-3.9c0-1.43,1.01-2.02,2.25-1.3
				C128.05,182.41,129.05,184.15,129.05,185.59z"/>
			<path class="st3" d="M136.03,198.01c0,1.43-1.01,2.02-2.25,1.3c-1.24-0.72-2.25-2.46-2.25-3.9c0-1.43,1.01-2.02,2.25-1.3
				C135.02,194.83,136.03,196.58,136.03,198.01z"/>
			<path class="st4" d="M129.05,194.01c0,1.43-1.01,2.02-2.25,1.3c-1.24-0.72-2.25-2.46-2.25-3.9c0-1.43,1.01-2.02,2.25-1.3
				C128.05,190.83,129.05,192.58,129.05,194.01z"/>
		</g>
		<g>
			<path class="st4" d="M136.03,218.94c0,1.43-1.01,2.02-2.25,1.3c-1.24-0.72-2.25-2.46-2.25-3.9c0-1.43,1.01-2.02,2.25-1.3
				C135.02,215.76,136.03,217.5,136.03,218.94z"/>
			<path class="st3" d="M129.05,214.94c0,1.43-1.01,2.02-2.25,1.3c-1.24-0.72-2.25-2.46-2.25-3.9c0-1.43,1.01-2.02,2.25-1.3
				C128.05,211.76,129.05,213.5,129.05,214.94z"/>
			<path class="st4" d="M136.03,227.36c0,1.43-1.01,2.02-2.25,1.3c-1.24-0.72-2.25-2.46-2.25-3.9c0-1.43,1.01-2.02,2.25-1.3
				C135.02,224.18,136.03,225.93,136.03,227.36z"/>
			<path class="st4" d="M129.05,223.36c0,1.43-1.01,2.02-2.25,1.3c-1.24-0.72-2.25-2.46-2.25-3.9c0-1.43,1.01-2.02,2.25-1.3
				C128.05,220.18,129.05,221.92,129.05,223.36z"/>
		</g>
	</g>
	<g>
		<g>
			<path class="st2" d="M287.89,247.12L287.89,247.12v-18.24l-40.89-0.02l-14.14-8.16c-3.24-1.87-8.91-1.64-12.66,0.52l-13.19,7.61
				l-40.93-0.02v18.76c-0.09,1.27,0.61,2.49,2.17,3.39l52.86,30.52c3.24,1.87,8.91,1.64,12.66-0.52l51.04-29.47
				C286.97,250.24,288.01,248.63,287.89,247.12z"/>
			<path class="st5" d="M226.99,219.45c-2.37,0.06-4.84,0.66-6.78,1.78l-13.19,7.61l-40.93-0.02v18.76
				c-0.09,1.27,0.61,2.49,2.17,3.39l52.86,30.52c1.56,0.9,3.68,1.31,5.87,1.25V219.45z"/>
			<path class="st3" d="M170.72,228.82l-4.63,0v18.76c-0.09,1.27,0.61,2.49,2.17,3.39l2.46,1.42V228.82z"/>
			<path class="st3" d="M221.93,281.88c2.8,1.2,6.85,1.13,10.12-0.12v-21.3h-10.12V281.88z"/>
			<path class="st4" d="M221.11,262.79l-52.86-30.52c-3.24-1.87-2.84-5.14,0.91-7.31l51.04-29.47c3.75-2.16,9.41-2.4,12.66-0.52
				l52.86,30.52c3.24,1.87,2.84,5.14-0.91,7.31l-51.04,29.47C230.02,264.43,224.36,264.66,221.11,262.79z"/>
			<path class="st3" d="M222.06,257.3l-44.29-25.57c-2.72-1.57-2.38-4.31,0.76-6.12l42.77-24.69c3.14-1.81,7.89-2.01,10.61-0.44
				l44.29,25.57c2.72,1.57,2.38,4.31-0.76,6.12l-42.77,24.69C229.53,258.67,224.78,258.87,222.06,257.3z"/>
			<g>
				<path class="st4" d="M268.45,251.93c0,1.36-0.96,3.02-2.13,3.7c-1.18,0.68-2.13,0.13-2.13-1.23c0-1.36,0.96-3.02,2.13-3.7
					C267.49,250.02,268.45,250.57,268.45,251.93z"/>
				<path class="st4" d="M275.31,247.97c0,1.36-0.96,3.02-2.13,3.7c-1.18,0.68-2.13,0.13-2.13-1.23s0.96-3.02,2.13-3.7
					C274.36,246.06,275.31,246.61,275.31,247.97z"/>
				<path class="st4" d="M282.18,244c0,1.36-0.96,3.02-2.13,3.7c-1.18,0.68-2.13,0.13-2.13-1.23c0-1.36,0.96-3.02,2.13-3.7
					C281.23,242.09,282.18,242.64,282.18,244z"/>
			</g>
		</g>
		<g>
			<path class="st2" d="M287.89,217.98L287.89,217.98v-18.24l-40.89-0.02l-14.14-8.16c-3.24-1.87-8.91-1.64-12.66,0.52l-13.19,7.61
				l-40.93-0.02v18.76c-0.09,1.27,0.61,2.49,2.17,3.39l52.86,30.52c3.24,1.87,8.91,1.64,12.66-0.52l51.04-29.47
				C286.97,221.1,288.01,219.48,287.89,217.98z"/>
			<path class="st5" d="M226.99,190.3c-2.37,0.06-4.84,0.66-6.78,1.78l-13.19,7.61l-40.93-0.02v18.76
				c-0.09,1.27,0.61,2.49,2.17,3.39l52.86,30.52c1.56,0.9,3.68,1.31,5.87,1.25V190.3z"/>
			<path class="st3" d="M170.72,199.68l-4.63,0v18.76c-0.09,1.27,0.61,2.49,2.17,3.39l2.46,1.42V199.68z"/>
			<path class="st3" d="M221.93,252.73c2.8,1.2,6.85,1.13,10.12-0.12v-21.3h-10.12V252.73z"/>
			<path class="st4" d="M221.11,233.65l-52.86-30.52c-3.24-1.87-2.84-5.14,0.91-7.31l51.04-29.47c3.75-2.16,9.41-2.4,12.66-0.52
				l52.86,30.52c3.24,1.87,2.84,5.14-0.91,7.31l-51.04,29.47C230.02,235.29,224.36,235.52,221.11,233.65z"/>
			<path class="st3" d="M222.06,228.15l-44.29-25.57c-2.72-1.57-2.38-4.31,0.76-6.12l42.77-24.69c3.14-1.81,7.89-2.01,10.61-0.44
				l44.29,25.57c2.72,1.57,2.38,4.31-0.76,6.12l-42.77,24.69C229.53,229.53,224.78,229.72,222.06,228.15z"/>
			<g>
				<path class="st4" d="M268.45,222.79c0,1.36-0.96,3.02-2.13,3.7c-1.18,0.68-2.13,0.13-2.13-1.23c0-1.36,0.96-3.02,2.13-3.7
					C267.49,220.88,268.45,221.43,268.45,222.79z"/>
				<path class="st4" d="M275.31,218.83c0,1.36-0.96,3.02-2.13,3.7c-1.18,0.68-2.13,0.13-2.13-1.23c0-1.36,0.96-3.02,2.13-3.7
					C274.36,216.91,275.31,217.46,275.31,218.83z"/>
				<path class="st4" d="M282.18,214.86c0,1.36-0.96,3.02-2.13,3.7c-1.18,0.68-2.13,0.13-2.13-1.23c0-1.36,0.96-3.02,2.13-3.7
					C281.23,212.95,282.18,213.5,282.18,214.86z"/>
			</g>
		</g>
		<g>
			<path class="st2" d="M287.89,188.83L287.89,188.83V170.6l-40.89-0.02l-14.14-8.16c-3.24-1.87-8.91-1.64-12.66,0.52l-13.19,7.61
				l-40.93-0.02v18.76c-0.09,1.27,0.61,2.49,2.17,3.39l52.86,30.52c3.24,1.87,8.91,1.64,12.66-0.52l51.04-29.47
				C286.97,191.95,288.01,190.34,287.89,188.83z"/>
			<path class="st5" d="M226.99,161.16c-2.37,0.06-4.84,0.66-6.78,1.78l-13.19,7.61l-40.93-0.02v18.76
				c-0.09,1.27,0.61,2.49,2.17,3.39l52.86,30.52c1.56,0.9,3.68,1.31,5.87,1.25V161.16z"/>
			<path class="st3" d="M170.72,170.53l-4.63,0v18.76c-0.09,1.27,0.61,2.49,2.17,3.39l2.46,1.42V170.53z"/>
			<path class="st3" d="M221.93,223.59c2.8,1.2,6.85,1.13,10.12-0.12v-21.3h-10.12V223.59z"/>
			<path class="st4" d="M221.11,204.5l-52.86-30.52c-3.24-1.87-2.84-5.14,0.91-7.31l51.04-29.47c3.75-2.16,9.41-2.4,12.66-0.52
				l52.86,30.52c3.24,1.87,2.84,5.14-0.91,7.31l-51.04,29.47C230.02,206.14,224.36,206.38,221.11,204.5z"/>
			<path class="st3" d="M222.06,199.01l-44.29-25.57c-2.72-1.57-2.38-4.31,0.76-6.12l42.77-24.69c3.14-1.81,7.89-2.01,10.61-0.44
				l44.29,25.57c2.72,1.57,2.38,4.31-0.76,6.12l-42.77,24.69C229.53,200.38,224.78,200.58,222.06,199.01z"/>
			<g>
				<path class="st4" d="M268.45,193.65c0,1.36-0.96,3.02-2.13,3.7c-1.18,0.68-2.13,0.13-2.13-1.23c0-1.36,0.96-3.02,2.13-3.7
					C267.49,191.73,268.45,192.29,268.45,193.65z"/>
				<path class="st4" d="M275.31,189.68c0,1.36-0.96,3.02-2.13,3.7c-1.18,0.68-2.13,0.13-2.13-1.23c0-1.36,0.96-3.02,2.13-3.7
					C274.36,187.77,275.31,188.32,275.31,189.68z"/>
				<path class="st4" d="M282.18,185.72c0,1.36-0.96,3.02-2.13,3.7c-1.18,0.68-2.13,0.13-2.13-1.23c0-1.36,0.96-3.02,2.13-3.7
					C281.23,183.8,282.18,184.35,282.18,185.72z"/>
			</g>
		</g>
		<g>
			<path class="st2" d="M287.89,159.69L287.89,159.69v-18.24l-40.89-0.02l-14.14-8.16c-3.24-1.87-8.91-1.64-12.66,0.52l-13.19,7.61
				l-40.93-0.02v18.76c-0.09,1.27,0.61,2.49,2.17,3.39l52.86,30.52c3.24,1.87,8.91,1.64,12.66-0.52l51.04-29.47
				C286.97,162.81,288.01,161.19,287.89,159.69z"/>
			<path class="st5" d="M226.99,132.01c-2.37,0.06-4.84,0.66-6.78,1.78l-13.19,7.61l-40.93-0.02v18.76
				c-0.09,1.27,0.61,2.49,2.17,3.39l52.86,30.52c1.56,0.9,3.68,1.31,5.87,1.25V132.01z"/>
			<path class="st3" d="M170.72,141.39l-4.63,0v18.76c-0.09,1.27,0.61,2.49,2.17,3.39l2.46,1.42V141.39z"/>
			<path class="st3" d="M221.93,194.45c2.8,1.2,6.85,1.13,10.12-0.12v-21.3h-10.12V194.45z"/>
			<path class="st4" d="M221.11,175.36l-52.86-30.52c-3.24-1.87-2.84-5.14,0.91-7.31l51.04-29.47c3.75-2.16,9.41-2.4,12.66-0.52
				l52.86,30.52c3.24,1.87,2.84,5.14-0.91,7.31l-51.04,29.47C230.02,177,224.36,177.23,221.11,175.36z"/>
			<path class="st3" d="M222.06,169.87l-44.29-25.57c-2.72-1.57-2.38-4.31,0.76-6.12l42.77-24.69c3.14-1.81,7.89-2.01,10.61-0.44
				l44.29,25.57c2.72,1.57,2.38,4.31-0.76,6.12l-42.77,24.69C229.53,171.24,224.78,171.44,222.06,169.87z"/>
			<g>
				<path class="st4" d="M268.45,164.5c0,1.36-0.96,3.02-2.13,3.7c-1.18,0.68-2.13,0.13-2.13-1.23c0-1.36,0.96-3.02,2.13-3.7
					C267.49,162.59,268.45,163.14,268.45,164.5z"/>
				<path class="st4" d="M275.31,160.54c0,1.36-0.96,3.02-2.13,3.7c-1.18,0.68-2.13,0.13-2.13-1.23c0-1.36,0.96-3.02,2.13-3.7
					C274.36,158.62,275.31,159.18,275.31,160.54z"/>
				<path class="st4" d="M282.18,156.57c0,1.36-0.96,3.02-2.13,3.7c-1.18,0.68-2.13,0.13-2.13-1.23s0.96-3.02,2.13-3.7
					C281.23,154.66,282.18,155.21,282.18,156.57z"/>
			</g>
		</g>
		<g>
			<path class="st2" d="M287.89,130.55L287.89,130.55v-18.24l-40.89-0.02l-14.14-8.16c-3.24-1.87-8.91-1.64-12.66,0.52l-13.19,7.61
				l-40.93-0.02V131c-0.09,1.27,0.61,2.49,2.17,3.39l52.86,30.52c3.24,1.87,8.91,1.64,12.66-0.52l51.04-29.47
				C286.97,133.67,288.01,132.05,287.89,130.55z"/>
			<path class="st5" d="M226.99,102.87c-2.37,0.06-4.84,0.66-6.78,1.78l-13.19,7.61l-40.93-0.02V131c-0.09,1.27,0.61,2.49,2.17,3.39
				l52.86,30.52c1.56,0.9,3.68,1.31,5.87,1.25V102.87z"/>
			<path class="st3" d="M170.72,112.24l-4.63,0V131c-0.09,1.27,0.61,2.49,2.17,3.39l2.46,1.42V112.24z"/>
			<path class="st3" d="M221.93,165.3c2.8,1.2,6.85,1.13,10.12-0.12v-21.3h-10.12V165.3z"/>
			<path class="st4" d="M221.11,146.22l-52.86-30.52c-3.24-1.87-2.84-5.14,0.91-7.31l51.04-29.47c3.75-2.16,9.41-2.4,12.66-0.52
				l52.86,30.52c3.24,1.87,2.84,5.14-0.91,7.31l-51.04,29.47C230.02,147.85,224.36,148.09,221.11,146.22z"/>
			<path class="st3" d="M222.06,140.72l-44.29-25.57c-2.72-1.57-2.38-4.31,0.76-6.12l42.77-24.69c3.14-1.81,7.89-2.01,10.61-0.44
				l44.29,25.57c2.72,1.57,2.38,4.31-0.76,6.12l-42.77,24.69C229.53,142.1,224.78,142.29,222.06,140.72z"/>
			<g>
				
					<rect x="243.64" y="142.51" transform="matrix(0.8659 -0.5003 0.5003 0.8659 -37.1864 147.1791)" class="st6" width="24.48" height="0.86"/>
				<path class="st4" d="M268.45,135.36c0,1.36-0.96,3.02-2.13,3.7c-1.18,0.68-2.13,0.13-2.13-1.23c0-1.36,0.96-3.02,2.13-3.7
					C267.49,133.45,268.45,134,268.45,135.36z"/>
				<path class="st4" d="M275.31,131.39c0,1.36-0.96,3.02-2.13,3.7c-1.18,0.68-2.13,0.13-2.13-1.23c0-1.36,0.96-3.02,2.13-3.7
					C274.36,129.48,275.31,130.03,275.31,131.39z"/>
				<path class="st4" d="M282.18,127.43c0,1.36-0.96,3.02-2.13,3.7c-1.18,0.68-2.13,0.13-2.13-1.23c0-1.36,0.96-3.02,2.13-3.7
					C281.23,125.51,282.18,126.07,282.18,127.43z"/>
			</g>
		</g>
		<g>
			<path class="st2" d="M287.89,101.2L287.89,101.2V82.96l-40.89-0.02l-14.14-8.16c-3.24-1.87-8.91-1.64-12.66,0.52l-13.19,7.61
				l-40.93-0.02v18.76c-0.09,1.27,0.61,2.49,2.17,3.39l52.86,30.52c3.24,1.87,8.91,1.64,12.66-0.52l51.04-29.47
				C286.97,104.32,288.01,102.71,287.89,101.2z"/>
			<path class="st5" d="M226.99,73.53c-2.37,0.06-4.84,0.66-6.78,1.78l-13.19,7.61l-40.93-0.02v18.76
				c-0.09,1.27,0.61,2.49,2.17,3.39l52.86,30.52c1.56,0.9,3.68,1.31,5.87,1.25V73.53z"/>
			<path class="st3" d="M170.72,82.9l-4.63,0v18.76c-0.09,1.27,0.61,2.49,2.17,3.39l2.46,1.42V82.9z"/>
			<path class="st3" d="M221.93,135.96c2.8,1.2,6.85,1.13,10.12-0.12v-21.3h-10.12V135.96z"/>
			<path class="st4" d="M221.11,116.87l-52.86-30.52c-3.24-1.87-2.84-5.14,0.91-7.31l51.04-29.47c3.75-2.16,9.41-2.4,12.66-0.52
				l52.86,30.52c3.24,1.87,2.84,5.14-0.91,7.31l-51.04,29.47C230.02,118.51,224.36,118.74,221.11,116.87z"/>
			<path class="st6" d="M284.8,83.29l-51.04,29.47c-3.75,2.16-9.41,2.4-12.66,0.52l-52.85-30.52c-0.72-0.42-1.25-0.91-1.62-1.44
				c-1.11,1.79-0.61,3.74,1.62,5.03l52.85,30.52c3.24,1.87,8.91,1.64,12.66-0.52l51.04-29.47c2.91-1.68,3.79-4.03,2.53-5.87
				C286.82,81.83,285.98,82.61,284.8,83.29z"/>
			<g>
				<path class="st4" d="M268.45,106.01c0,1.36-0.96,3.02-2.13,3.7c-1.18,0.68-2.13,0.13-2.13-1.23c0-1.36,0.96-3.02,2.13-3.7
					C267.49,104.1,268.45,104.65,268.45,106.01z"/>
				<path class="st4" d="M247.41,117.58c0,1.36-0.96,3.02-2.13,3.7c-1.18,0.68-2.13,0.13-2.13-1.23s0.96-3.02,2.13-3.7
					C246.45,115.66,247.41,116.22,247.41,117.58z"/>
				<path class="st6" d="M247.41,147.82c0,1.36-0.96,3.02-2.13,3.7c-1.18,0.68-2.13,0.13-2.13-1.23c0-1.36,0.96-3.02,2.13-3.7
					C246.45,145.91,247.41,146.46,247.41,147.82z"/>
				<path class="st4" d="M275.31,102.05c0,1.36-0.96,3.02-2.13,3.7c-1.18,0.68-2.13,0.13-2.13-1.23c0-1.36,0.96-3.02,2.13-3.7
					C274.36,100.14,275.31,100.69,275.31,102.05z"/>
				<path class="st4" d="M282.18,98.08c0,1.36-0.96,3.02-2.13,3.7c-1.18,0.68-2.13,0.13-2.13-1.23c0-1.36,0.96-3.02,2.13-3.7
					C281.23,96.17,282.18,96.72,282.18,98.08z"/>
			</g>
			<g>
				<path class="st5" d="M224.24,97.95L199.5,83.67c-1.52-0.88-1.33-2.41,0.43-3.42l23.88-13.79c1.75-1.01,4.4-1.12,5.92-0.25
					l24.73,14.28c1.52,0.88,1.33,2.41-0.43,3.42l-23.88,13.79C228.41,98.72,225.76,98.83,224.24,97.95z"/>
				<path class="st4" d="M226.61,86l-3.42-1.98c-0.21-0.12-0.18-0.33,0.06-0.47l3.3-1.91c0.24-0.14,0.61-0.16,0.82-0.03l3.42,1.98
					c0.21,0.12,0.18,0.33-0.06,0.47l-3.3,1.91C227.18,86.1,226.82,86.12,226.61,86z"/>
				<path class="st2" d="M199.5,83.67l0.07,0.04c0.12-0.08,0.22-0.17,0.36-0.24l23.88-13.79c1.75-1.01,4.4-1.12,5.92-0.25
					l24.66,14.24c1.4-1,1.47-2.37,0.07-3.17l-24.73-14.28c-1.52-0.88-4.17-0.77-5.92,0.25l-23.88,13.79
					C198.18,81.26,197.99,82.8,199.5,83.67z"/>
			</g>
		</g>
		<g>
			<path class="st4" d="M219.06,121.2c0,1.43-1.01,2.02-2.25,1.3c-1.24-0.72-2.25-2.46-2.25-3.9c0-1.43,1.01-2.02,2.25-1.3
				C218.05,118.02,219.06,119.76,219.06,121.2z"/>
			<path class="st3" d="M212.08,117.19c0,1.43-1.01,2.02-2.25,1.3c-1.24-0.72-2.25-2.46-2.25-3.9c0-1.43,1.01-2.02,2.25-1.3
				C211.08,114.01,212.08,115.76,212.08,117.19z"/>
			<path class="st4" d="M219.06,129.62c0,1.43-1.01,2.02-2.25,1.3c-1.24-0.72-2.25-2.46-2.25-3.9c0-1.43,1.01-2.02,2.25-1.3
				C218.05,126.44,219.06,128.18,219.06,129.62z"/>
			<path class="st4" d="M212.08,125.62c0,1.43-1.01,2.02-2.25,1.3c-1.24-0.72-2.25-2.46-2.25-3.9c0-1.43,1.01-2.02,2.25-1.3
				C211.08,122.44,212.08,124.18,212.08,125.62z"/>
		</g>
		<g>
			<path class="st4" d="M219.06,150.15c0,1.43-1.01,2.02-2.25,1.3c-1.24-0.72-2.25-2.46-2.25-3.9c0-1.43,1.01-2.02,2.25-1.3
				C218.05,146.97,219.06,148.71,219.06,150.15z"/>
			<path class="st4" d="M212.08,146.14c0,1.43-1.01,2.02-2.25,1.3c-1.24-0.72-2.25-2.46-2.25-3.9c0-1.43,1.01-2.02,2.25-1.3
				C211.08,142.97,212.08,144.71,212.08,146.14z"/>
			<path class="st3" d="M219.06,158.57c0,1.43-1.01,2.02-2.25,1.3c-1.24-0.72-2.25-2.46-2.25-3.9c0-1.43,1.01-2.02,2.25-1.3
				C218.05,155.39,219.06,157.13,219.06,158.57z"/>
			<path class="st4" d="M212.08,154.57c0,1.43-1.01,2.02-2.25,1.3c-1.24-0.72-2.25-2.46-2.25-3.9c0-1.43,1.01-2.02,2.25-1.3
				C211.08,151.39,212.08,153.13,212.08,154.57z"/>
		</g>
		<g>
			<path class="st4" d="M219.06,179.13c0,1.43-1.01,2.02-2.25,1.3c-1.24-0.72-2.25-2.46-2.25-3.9c0-1.43,1.01-2.02,2.25-1.3
				C218.05,175.95,219.06,177.7,219.06,179.13z"/>
			<path class="st3" d="M212.08,175.13c0,1.43-1.01,2.02-2.25,1.3c-1.24-0.72-2.25-2.46-2.25-3.9c0-1.43,1.01-2.02,2.25-1.3
				C211.08,171.95,212.08,173.7,212.08,175.13z"/>
			<path class="st4" d="M219.06,187.55c0,1.43-1.01,2.02-2.25,1.3c-1.24-0.72-2.25-2.46-2.25-3.9c0-1.43,1.01-2.02,2.25-1.3
				C218.05,184.38,219.06,186.12,219.06,187.55z"/>
			<path class="st3" d="M212.08,183.55c0,1.43-1.01,2.02-2.25,1.3c-1.24-0.72-2.25-2.46-2.25-3.9c0-1.43,1.01-2.02,2.25-1.3
				C211.08,180.37,212.08,182.12,212.08,183.55z"/>
		</g>
		<g>
			<path class="st3" d="M219.06,208.4c0,1.43-1.01,2.02-2.25,1.3c-1.24-0.72-2.25-2.46-2.25-3.9c0-1.43,1.01-2.02,2.25-1.3
				C218.05,205.22,219.06,206.97,219.06,208.4z"/>
			<path class="st4" d="M212.08,204.4c0,1.43-1.01,2.02-2.25,1.3c-1.24-0.72-2.25-2.46-2.25-3.9c0-1.43,1.01-2.02,2.25-1.3
				C211.08,201.22,212.08,202.96,212.08,204.4z"/>
			<path class="st4" d="M219.06,216.82c0,1.43-1.01,2.02-2.25,1.3c-1.24-0.72-2.25-2.46-2.25-3.9c0-1.43,1.01-2.02,2.25-1.3
				C218.05,213.64,219.06,215.39,219.06,216.82z"/>
			<path class="st3" d="M212.08,212.82c0,1.43-1.01,2.02-2.25,1.3c-1.24-0.72-2.25-2.46-2.25-3.9c0-1.43,1.01-2.02,2.25-1.3
				C211.08,209.64,212.08,211.39,212.08,212.82z"/>
		</g>
		<g>
			<path class="st3" d="M219.06,237.39c0,1.43-1.01,2.02-2.25,1.3c-1.24-0.72-2.25-2.46-2.25-3.9c0-1.43,1.01-2.02,2.25-1.3
				C218.05,234.21,219.06,235.95,219.06,237.39z"/>
			<path class="st4" d="M212.08,233.38c0,1.43-1.01,2.02-2.25,1.3c-1.24-0.72-2.25-2.46-2.25-3.9c0-1.43,1.01-2.02,2.25-1.3
				C211.08,230.2,212.08,231.95,212.08,233.38z"/>
			<path class="st3" d="M219.06,245.81c0,1.43-1.01,2.02-2.25,1.3c-1.24-0.72-2.25-2.46-2.25-3.9c0-1.43,1.01-2.02,2.25-1.3
				C218.05,242.63,219.06,244.37,219.06,245.81z"/>
			<path class="st4" d="M212.08,241.81c0,1.43-1.01,2.02-2.25,1.3c-1.24-0.72-2.25-2.46-2.25-3.9c0-1.43,1.01-2.02,2.25-1.3
				C211.08,238.63,212.08,240.37,212.08,241.81z"/>
		</g>
		<g>
			<path class="st4" d="M219.06,266.73c0,1.43-1.01,2.02-2.25,1.3c-1.24-0.72-2.25-2.46-2.25-3.9c0-1.43,1.01-2.02,2.25-1.3
				C218.05,263.55,219.06,265.3,219.06,266.73z"/>
			<path class="st3" d="M212.08,262.73c0,1.43-1.01,2.02-2.25,1.3c-1.24-0.72-2.25-2.46-2.25-3.9c0-1.43,1.01-2.02,2.25-1.3
				C211.08,259.55,212.08,261.3,212.08,262.73z"/>
			<path class="st4" d="M219.06,275.15c0,1.43-1.01,2.02-2.25,1.3c-1.24-0.72-2.25-2.46-2.25-3.9c0-1.43,1.01-2.02,2.25-1.3
				C218.05,271.98,219.06,273.72,219.06,275.15z"/>
			<path class="st4" d="M212.08,271.15c0,1.43-1.01,2.02-2.25,1.3c-1.24-0.72-2.25-2.46-2.25-3.9c0-1.43,1.01-2.02,2.25-1.3
				C211.08,267.97,212.08,269.72,212.08,271.15z"/>
		</g>
	</g>
	<g>
		<g>
			<path class="st2" d="M121.82,247.25L121.82,247.25v-18.24l-40.89-0.02l-14.14-8.16c-3.24-1.87-8.91-1.64-12.66,0.52l-13.19,7.61
				l-40.93-0.02v18.76c-0.09,1.27,0.61,2.49,2.17,3.39l52.86,30.52c3.24,1.87,8.91,1.64,12.66-0.52l51.04-29.47
				C120.9,250.37,121.94,248.76,121.82,247.25z"/>
			<path class="st5" d="M60.92,219.58c-2.37,0.06-4.84,0.66-6.78,1.78l-13.19,7.61l-40.93-0.02v18.76
				c-0.09,1.27,0.61,2.49,2.17,3.39l52.86,30.52c1.56,0.9,3.68,1.31,5.87,1.25V219.58z"/>
			<path class="st3" d="M4.65,228.95l-4.63,0v18.76c-0.09,1.27,0.61,2.49,2.17,3.39l2.46,1.42V228.95z"/>
			<path class="st3" d="M55.86,282.01c2.8,1.2,6.85,1.13,10.12-0.12v-21.3H55.86V282.01z"/>
			<path class="st4" d="M55.05,262.92L2.19,232.41c-3.24-1.87-2.84-5.14,0.91-7.31l51.04-29.47c3.75-2.16,9.41-2.4,12.66-0.52
				l52.86,30.52c3.24,1.87,2.84,5.14-0.91,7.31L67.7,262.4C63.96,264.56,58.29,264.8,55.05,262.92z"/>
			<path class="st3" d="M56,257.43L11.7,231.86c-2.72-1.57-2.38-4.31,0.76-6.12l42.77-24.69c3.14-1.81,7.89-2.01,10.61-0.44
				l44.29,25.57c2.72,1.57,2.38,4.31-0.76,6.12L66.6,256.99C63.46,258.8,58.71,259,56,257.43z"/>
			<g>
				<path class="st4" d="M102.38,252.07c0,1.36-0.96,3.02-2.13,3.7c-1.18,0.68-2.13,0.13-2.13-1.23c0-1.36,0.96-3.02,2.13-3.7
					C101.42,250.15,102.38,250.71,102.38,252.07z"/>
				<path class="st4" d="M109.25,248.1c0,1.36-0.96,3.02-2.13,3.7c-1.18,0.68-2.13,0.13-2.13-1.23c0-1.36,0.96-3.02,2.13-3.7
					C108.29,246.19,109.25,246.74,109.25,248.1z"/>
				<path class="st4" d="M116.12,244.14c0,1.36-0.96,3.02-2.13,3.7c-1.18,0.68-2.13,0.13-2.13-1.23c0-1.36,0.96-3.02,2.13-3.7
					C115.16,242.22,116.12,242.77,116.12,244.14z"/>
			</g>
		</g>
		<g>
			<path class="st2" d="M121.82,218.11L121.82,218.11v-18.24l-40.89-0.02l-14.14-8.16c-3.24-1.87-8.91-1.64-12.66,0.52l-13.19,7.61
				l-40.93-0.02v18.76c-0.09,1.27,0.61,2.49,2.17,3.39l52.86,30.52c3.24,1.87,8.91,1.64,12.66-0.52l51.04-29.47
				C120.9,221.23,121.94,219.61,121.82,218.11z"/>
			<path class="st5" d="M60.92,190.44c-2.37,0.06-4.84,0.66-6.78,1.78l-13.19,7.61l-40.93-0.02v18.76
				c-0.09,1.27,0.61,2.49,2.17,3.39l52.86,30.52c1.56,0.9,3.68,1.31,5.87,1.25V190.44z"/>
			<path class="st3" d="M4.65,199.81l-4.63,0v18.76c-0.09,1.27,0.61,2.49,2.17,3.39l2.46,1.42V199.81z"/>
			<path class="st3" d="M55.86,252.87c2.8,1.2,6.85,1.13,10.12-0.12v-21.3H55.86V252.87z"/>
			<path class="st4" d="M55.05,233.78L2.19,203.26c-3.24-1.87-2.84-5.14,0.91-7.31l51.04-29.47c3.75-2.16,9.41-2.4,12.66-0.52
				l52.86,30.52c3.24,1.87,2.84,5.14-0.91,7.31L67.7,233.26C63.96,235.42,58.29,235.65,55.05,233.78z"/>
			<path class="st3" d="M56,228.29L11.7,202.71c-2.72-1.57-2.38-4.31,0.76-6.12l42.77-24.69c3.14-1.81,7.89-2.01,10.61-0.44
				l44.29,25.57c2.72,1.57,2.38,4.31-0.76,6.12L66.6,227.85C63.46,229.66,58.71,229.86,56,228.29z"/>
			<g>
				<path class="st4" d="M102.38,222.92c0,1.36-0.96,3.02-2.13,3.7c-1.18,0.68-2.13,0.13-2.13-1.23c0-1.36,0.96-3.02,2.13-3.7
					C101.42,221.01,102.38,221.56,102.38,222.92z"/>
				<path class="st4" d="M109.25,218.96c0,1.36-0.96,3.02-2.13,3.7c-1.18,0.68-2.13,0.13-2.13-1.23c0-1.36,0.96-3.02,2.13-3.7
					C108.29,217.04,109.25,217.6,109.25,218.96z"/>
				<path class="st4" d="M116.12,214.99c0,1.36-0.96,3.02-2.13,3.7c-1.18,0.68-2.13,0.13-2.13-1.23c0-1.36,0.96-3.02,2.13-3.7
					C115.16,213.08,116.12,213.63,116.12,214.99z"/>
			</g>
		</g>
		<g>
			<path class="st2" d="M121.82,188.97L121.82,188.97v-18.24l-40.89-0.02l-14.14-8.16c-3.24-1.87-8.91-1.64-12.66,0.52l-13.19,7.61
				l-40.93-0.02v18.76c-0.09,1.27,0.61,2.49,2.17,3.39l52.86,30.52c3.24,1.87,8.91,1.64,12.66-0.52l51.04-29.47
				C120.9,192.09,121.94,190.47,121.82,188.97z"/>
			<path class="st5" d="M60.92,161.29c-2.37,0.06-4.84,0.66-6.78,1.78l-13.19,7.61l-40.93-0.02v18.76
				c-0.09,1.27,0.61,2.49,2.17,3.39l52.86,30.52c1.56,0.9,3.68,1.31,5.87,1.25V161.29z"/>
			<path class="st3" d="M4.65,170.66l-4.63,0v18.76c-0.09,1.27,0.61,2.49,2.17,3.39l2.46,1.42V170.66z"/>
			<path class="st3" d="M55.86,223.72c2.8,1.2,6.85,1.13,10.12-0.12v-21.3H55.86V223.72z"/>
			<path class="st4" d="M55.05,204.64L2.19,174.12c-3.24-1.87-2.84-5.14,0.91-7.31l51.04-29.47c3.75-2.16,9.41-2.4,12.66-0.52
				l52.86,30.52c3.24,1.87,2.84,5.14-0.91,7.31L67.7,204.11C63.96,206.27,58.29,206.51,55.05,204.64z"/>
			<path class="st3" d="M56,199.14L11.7,173.57c-2.72-1.57-2.38-4.31,0.76-6.12l42.77-24.69c3.14-1.81,7.89-2.01,10.61-0.44
				l44.29,25.57c2.72,1.57,2.38,4.31-0.76,6.12L66.6,198.7C63.46,200.52,58.71,200.71,56,199.14z"/>
			<g>
				<path class="st4" d="M102.38,193.78c0,1.36-0.96,3.02-2.13,3.7c-1.18,0.68-2.13,0.13-2.13-1.23c0-1.36,0.96-3.02,2.13-3.7
					C101.42,191.87,102.38,192.42,102.38,193.78z"/>
				<path class="st4" d="M109.25,189.81c0,1.36-0.96,3.02-2.13,3.7c-1.18,0.68-2.13,0.13-2.13-1.23c0-1.36,0.96-3.02,2.13-3.7
					C108.29,187.9,109.25,188.45,109.25,189.81z"/>
				<path class="st4" d="M116.12,185.85c0,1.36-0.96,3.02-2.13,3.7c-1.18,0.68-2.13,0.13-2.13-1.23c0-1.36,0.96-3.02,2.13-3.7
					C115.16,183.93,116.12,184.49,116.12,185.85z"/>
			</g>
		</g>
		<g>
			<path class="st2" d="M121.82,159.82L121.82,159.82v-18.24l-40.89-0.02l-14.14-8.16c-3.24-1.87-8.91-1.64-12.66,0.52l-13.19,7.61
				l-40.93-0.02v18.76c-0.09,1.27,0.61,2.49,2.17,3.39l52.86,30.52c3.24,1.87,8.91,1.64,12.66-0.52l51.04-29.47
				C120.9,162.94,121.94,161.33,121.82,159.82z"/>
			<path class="st5" d="M60.92,132.15c-2.37,0.06-4.84,0.66-6.78,1.78l-13.19,7.61l-40.93-0.02v18.76
				c-0.09,1.27,0.61,2.49,2.17,3.39l52.86,30.52c1.56,0.9,3.68,1.31,5.87,1.25V132.15z"/>
			<path class="st3" d="M4.65,141.52l-4.63,0v18.76c-0.09,1.27,0.61,2.49,2.17,3.39l2.46,1.42V141.52z"/>
			<path class="st3" d="M55.86,194.58c2.8,1.2,6.85,1.13,10.12-0.12v-21.3H55.86V194.58z"/>
			<path class="st4" d="M55.05,175.49L2.19,144.98c-3.24-1.87-2.84-5.14,0.91-7.31l51.04-29.47c3.75-2.16,9.41-2.4,12.66-0.52
				l52.86,30.52c3.24,1.87,2.84,5.14-0.91,7.31L67.7,174.97C63.96,177.13,58.29,177.36,55.05,175.49z"/>
			<path class="st3" d="M56,170L11.7,144.43c-2.72-1.57-2.38-4.31,0.76-6.12l42.77-24.69c3.14-1.81,7.89-2.01,10.61-0.44
				l44.29,25.57c2.72,1.57,2.38,4.31-0.76,6.12L66.6,169.56C63.46,171.37,58.71,171.57,56,170z"/>
			<g>
				<path class="st4" d="M102.38,164.64c0,1.36-0.96,3.02-2.13,3.7c-1.18,0.68-2.13,0.13-2.13-1.23c0-1.36,0.96-3.02,2.13-3.7
					C101.42,162.72,102.38,163.27,102.38,164.64z"/>
				<path class="st4" d="M109.25,160.67c0,1.36-0.96,3.02-2.13,3.7c-1.18,0.68-2.13,0.13-2.13-1.23c0-1.36,0.96-3.02,2.13-3.7
					C108.29,158.76,109.25,159.31,109.25,160.67z"/>
				<path class="st4" d="M116.12,156.7c0,1.36-0.96,3.02-2.13,3.7c-1.18,0.68-2.13,0.13-2.13-1.23c0-1.36,0.96-3.02,2.13-3.7
					C115.16,154.79,116.12,155.34,116.12,156.7z"/>
			</g>
		</g>
		<g>
			<path class="st2" d="M121.82,130.68L121.82,130.68v-18.24l-40.89-0.02l-14.14-8.16c-3.24-1.87-8.91-1.64-12.66,0.52l-13.19,7.61
				l-40.93-0.02v18.76c-0.09,1.27,0.61,2.49,2.17,3.39l52.86,30.52c3.24,1.87,8.91,1.64,12.66-0.52l51.04-29.47
				C120.9,133.8,121.94,132.18,121.82,130.68z"/>
			<path class="st5" d="M60.92,103c-2.37,0.06-4.84,0.66-6.78,1.78l-13.19,7.61l-40.93-0.02v18.76c-0.09,1.27,0.61,2.49,2.17,3.39
				l52.86,30.52c1.56,0.9,3.68,1.31,5.87,1.25V103z"/>
			<path class="st3" d="M4.65,112.38l-4.63,0v18.76c-0.09,1.27,0.61,2.49,2.17,3.39l2.46,1.42V112.38z"/>
			<path class="st3" d="M55.86,165.43c2.8,1.2,6.85,1.13,10.12-0.12v-21.3H55.86V165.43z"/>
			<path class="st4" d="M55.05,146.35L2.19,115.83c-3.24-1.87-2.84-5.14,0.91-7.31l51.04-29.47c3.75-2.16,9.41-2.4,12.66-0.52
				l52.86,30.52c3.24,1.87,2.84,5.14-0.91,7.31L67.7,145.82C63.96,147.99,58.29,148.22,55.05,146.35z"/>
			<path class="st3" d="M56,140.86L11.7,115.28c-2.72-1.57-2.38-4.31,0.76-6.12l42.77-24.69c3.14-1.81,7.89-2.01,10.61-0.44
				l44.29,25.57c2.72,1.57,2.38,4.31-0.76,6.12L66.6,140.42C63.46,142.23,58.71,142.42,56,140.86z"/>
			<g>
				
					<rect x="77.57" y="142.64" transform="matrix(0.8659 -0.5002 0.5002 0.8659 -59.5208 64.1082)" class="st6" width="24.48" height="0.86"/>
				<path class="st4" d="M102.38,135.49c0,1.36-0.96,3.02-2.13,3.7c-1.18,0.68-2.13,0.13-2.13-1.23s0.96-3.02,2.13-3.7
					C101.42,133.58,102.38,134.13,102.38,135.49z"/>
				<path class="st4" d="M109.25,131.53c0,1.36-0.96,3.02-2.13,3.7c-1.18,0.68-2.13,0.13-2.13-1.23c0-1.36,0.96-3.02,2.13-3.7
					C108.29,129.61,109.25,130.16,109.25,131.53z"/>
				<path class="st4" d="M116.12,127.56c0,1.36-0.96,3.02-2.13,3.7c-1.18,0.68-2.13,0.13-2.13-1.23c0-1.36,0.96-3.02,2.13-3.7
					C115.16,125.65,116.12,126.2,116.12,127.56z"/>
			</g>
		</g>
		<g>
			<path class="st2" d="M121.82,101.33L121.82,101.33V83.1l-40.89-0.02l-14.14-8.16c-3.24-1.87-8.91-1.64-12.66,0.52l-13.19,7.61
				L0.02,83.03v18.76c-0.09,1.27,0.61,2.49,2.17,3.39l52.86,30.52c3.24,1.87,8.91,1.64,12.66-0.52l51.04-29.47
				C120.9,104.45,121.94,102.84,121.82,101.33z"/>
			<path class="st5" d="M60.92,73.66c-2.37,0.06-4.84,0.66-6.78,1.78l-13.19,7.61L0.02,83.03v18.76c-0.09,1.27,0.61,2.49,2.17,3.39
				l52.86,30.52c1.56,0.9,3.68,1.31,5.87,1.25V73.66z"/>
			<path class="st3" d="M4.65,83.03l-4.63,0v18.76c-0.09,1.27,0.61,2.49,2.17,3.39l2.46,1.42V83.03z"/>
			<path class="st3" d="M55.86,136.09c2.8,1.2,6.85,1.13,10.12-0.12v-21.3H55.86V136.09z"/>
			<path class="st4" d="M55.05,117L2.19,86.49c-3.24-1.87-2.84-5.14,0.91-7.31l51.04-29.47c3.75-2.16,9.41-2.4,12.66-0.52
				l52.86,30.52c3.24,1.87,2.84,5.14-0.91,7.31L67.7,116.48C63.96,118.64,58.29,118.88,55.05,117z"/>
			<path class="st6" d="M118.74,83.42L67.7,112.89c-3.75,2.16-9.41,2.4-12.66,0.52L2.19,82.9c-0.72-0.42-1.25-0.91-1.62-1.44
				c-1.11,1.79-0.61,3.74,1.62,5.03L55.05,117c3.24,1.87,8.91,1.64,12.66-0.52l51.04-29.47c2.91-1.68,3.79-4.03,2.53-5.87
				C120.76,81.96,119.91,82.75,118.74,83.42z"/>
			<g>
				<path class="st4" d="M102.38,106.15c0,1.36-0.96,3.02-2.13,3.7c-1.18,0.68-2.13,0.13-2.13-1.23c0-1.36,0.96-3.02,2.13-3.7
					C101.42,104.23,102.38,104.79,102.38,106.15z"/>
				<path class="st4" d="M81.34,117.71c0,1.36-0.96,3.02-2.13,3.7c-1.18,0.68-2.13,0.13-2.13-1.23s0.96-3.02,2.13-3.7
					C80.39,115.8,81.34,116.35,81.34,117.71z"/>
				<path class="st6" d="M81.34,147.95c0,1.36-0.96,3.02-2.13,3.7c-1.18,0.68-2.13,0.13-2.13-1.23c0-1.36,0.96-3.02,2.13-3.7
					C80.39,146.04,81.34,146.59,81.34,147.95z"/>
				<path class="st4" d="M109.25,102.18c0,1.36-0.96,3.02-2.13,3.7c-1.18,0.68-2.13,0.13-2.13-1.23c0-1.36,0.96-3.02,2.13-3.7
					C108.29,100.27,109.25,100.82,109.25,102.18z"/>
				<path class="st4" d="M116.12,98.22c0,1.36-0.96,3.02-2.13,3.7c-1.18,0.68-2.13,0.13-2.13-1.23c0-1.36,0.96-3.02,2.13-3.7
					C115.16,96.3,116.12,96.85,116.12,98.22z"/>
			</g>
			<g>
				<path class="st5" d="M58.17,98.08L33.44,83.8c-1.52-0.88-1.33-2.41,0.43-3.42L57.74,66.6c1.75-1.01,4.4-1.12,5.92-0.25
					L88.4,80.63c1.52,0.88,1.33,2.41-0.43,3.42L64.09,97.84C62.34,98.85,59.69,98.96,58.17,98.08z"/>
				<path class="st4" d="M60.54,86.13l-3.42-1.98c-0.21-0.12-0.18-0.33,0.06-0.47l3.3-1.91c0.24-0.14,0.61-0.16,0.82-0.03l3.42,1.98
					c0.21,0.12,0.18,0.33-0.06,0.47l-3.3,1.91C61.12,86.23,60.75,86.25,60.54,86.13z"/>
				<path class="st2" d="M33.44,83.8l0.07,0.04c0.12-0.08,0.22-0.17,0.36-0.24l23.88-13.79c1.75-1.01,4.4-1.12,5.92-0.25
					l24.66,14.24c1.4-1,1.47-2.37,0.07-3.17L63.67,66.35c-1.52-0.88-4.17-0.77-5.92,0.25L33.86,80.39
					C32.11,81.4,31.92,82.93,33.44,83.8z"/>
			</g>
		</g>
		<g>
			<path class="st4" d="M52.99,121.33c0,1.43-1.01,2.02-2.25,1.3c-1.24-0.72-2.25-2.46-2.25-3.9c0-1.43,1.01-2.02,2.25-1.3
				C51.99,118.15,52.99,119.89,52.99,121.33z"/>
			<path class="st3" d="M46.02,117.33c0,1.43-1.01,2.02-2.25,1.3c-1.24-0.72-2.25-2.46-2.25-3.9c0-1.43,1.01-2.02,2.25-1.3
				C45.01,114.15,46.02,115.89,46.02,117.33z"/>
			<path class="st4" d="M52.99,129.75c0,1.43-1.01,2.02-2.25,1.3c-1.24-0.72-2.25-2.46-2.25-3.9c0-1.43,1.01-2.02,2.25-1.3
				C51.99,126.57,52.99,128.32,52.99,129.75z"/>
			<path class="st4" d="M46.02,125.75c0,1.43-1.01,2.02-2.25,1.3c-1.24-0.72-2.25-2.46-2.25-3.9c0-1.43,1.01-2.02,2.25-1.3
				C45.01,122.57,46.02,124.31,46.02,125.75z"/>
		</g>
		<g>
			<path class="st4" d="M52.99,150.28c0,1.43-1.01,2.02-2.25,1.3c-1.24-0.72-2.25-2.46-2.25-3.9c0-1.43,1.01-2.02,2.25-1.3
				C51.99,147.1,52.99,148.84,52.99,150.28z"/>
			<path class="st7" d="M46.02,146.28c0,1.43-1.01,2.02-2.25,1.3c-1.24-0.72-2.25-2.46-2.25-3.9c0-1.43,1.01-2.02,2.25-1.3
				C45.01,143.1,46.02,144.84,46.02,146.28z"/>
			<path class="st3" d="M52.99,158.7c0,1.43-1.01,2.02-2.25,1.3c-1.24-0.72-2.25-2.46-2.25-3.9c0-1.43,1.01-2.02,2.25-1.3
				C51.99,155.52,52.99,157.27,52.99,158.7z"/>
			<path class="st4" d="M46.02,154.7c0,1.43-1.01,2.02-2.25,1.3c-1.24-0.72-2.25-2.46-2.25-3.9c0-1.43,1.01-2.02,2.25-1.3
				C45.01,151.52,46.02,153.26,46.02,154.7z"/>
		</g>
		<g>
			<path class="st4" d="M52.99,179.26c0,1.43-1.01,2.02-2.25,1.3c-1.24-0.72-2.25-2.46-2.25-3.9c0-1.43,1.01-2.02,2.25-1.3
				C51.99,176.09,52.99,177.83,52.99,179.26z"/>
			<path class="st3" d="M46.02,175.26c0,1.43-1.01,2.02-2.25,1.3c-1.24-0.72-2.25-2.46-2.25-3.9c0-1.43,1.01-2.02,2.25-1.3
				C45.01,172.08,46.02,173.83,46.02,175.26z"/>
			<path class="st7" d="M52.99,187.69c0,1.43-1.01,2.02-2.25,1.3c-1.24-0.72-2.25-2.46-2.25-3.9c0-1.43,1.01-2.02,2.25-1.3
				C51.99,184.51,52.99,186.25,52.99,187.69z"/>
			<path class="st3" d="M46.02,183.68c0,1.43-1.01,2.02-2.25,1.3c-1.24-0.72-2.25-2.46-2.25-3.9c0-1.43,1.01-2.02,2.25-1.3
				C45.01,180.51,46.02,182.25,46.02,183.68z"/>
		</g>
		<g>
			<path class="st3" d="M52.99,208.53c0,1.43-1.01,2.02-2.25,1.3c-1.24-0.72-2.25-2.46-2.25-3.9c0-1.43,1.01-2.02,2.25-1.3
				C51.99,205.35,52.99,207.1,52.99,208.53z"/>
			<path class="st4" d="M46.02,204.53c0,1.43-1.01,2.02-2.25,1.3c-1.24-0.72-2.25-2.46-2.25-3.9c0-1.43,1.01-2.02,2.25-1.3
				C45.01,201.35,46.02,203.1,46.02,204.53z"/>
			<path class="st4" d="M52.99,216.96c0,1.43-1.01,2.02-2.25,1.3c-1.24-0.72-2.25-2.46-2.25-3.9c0-1.43,1.01-2.02,2.25-1.3
				C51.99,213.78,52.99,215.52,52.99,216.96z"/>
			<path class="st3" d="M46.02,212.95c0,1.43-1.01,2.02-2.25,1.3c-1.24-0.72-2.25-2.46-2.25-3.9c0-1.43,1.01-2.02,2.25-1.3
				C45.01,209.77,46.02,211.52,46.02,212.95z"/>
		</g>
		<g>
			<path class="st7" d="M52.99,237.52c0,1.43-1.01,2.02-2.25,1.3c-1.24-0.72-2.25-2.46-2.25-3.9c0-1.43,1.01-2.02,2.25-1.3
				C51.99,234.34,52.99,236.08,52.99,237.52z"/>
			<path class="st7" d="M46.02,233.52c0,1.43-1.01,2.02-2.25,1.3c-1.24-0.72-2.25-2.46-2.25-3.9c0-1.43,1.01-2.02,2.25-1.3
				C45.01,230.34,46.02,232.08,46.02,233.52z"/>
			<path class="st7" d="M52.99,245.94c0,1.43-1.01,2.02-2.25,1.3c-1.24-0.72-2.25-2.46-2.25-3.9c0-1.43,1.01-2.02,2.25-1.3
				C51.99,242.76,52.99,244.51,52.99,245.94z"/>
			<path class="st4" d="M46.02,241.94c0,1.43-1.01,2.02-2.25,1.3c-1.24-0.72-2.25-2.46-2.25-3.9c0-1.43,1.01-2.02,2.25-1.3
				C45.01,238.76,46.02,240.5,46.02,241.94z"/>
		</g>
		<g>
			<path class="st4" d="M52.99,266.86c0,1.43-1.01,2.02-2.25,1.3c-1.24-0.72-2.25-2.46-2.25-3.9c0-1.43,1.01-2.02,2.25-1.3
				C51.99,263.69,52.99,265.43,52.99,266.86z"/>
			<path class="st3" d="M46.02,262.86c0,1.43-1.01,2.02-2.25,1.3c-1.24-0.72-2.25-2.46-2.25-3.9c0-1.43,1.01-2.02,2.25-1.3
				C45.01,259.68,46.02,261.43,46.02,262.86z"/>
			<path class="st4" d="M52.99,275.29c0,1.43-1.01,2.02-2.25,1.3c-1.24-0.72-2.25-2.46-2.25-3.9c0-1.43,1.01-2.02,2.25-1.3
				C51.99,272.11,52.99,273.85,52.99,275.29z"/>
			<path class="st4" d="M46.02,271.28c0,1.43-1.01,2.02-2.25,1.3c-1.24-0.72-2.25-2.46-2.25-3.9c0-1.43,1.01-2.02,2.25-1.3
				C45.01,268.11,46.02,269.85,46.02,271.28z"/>
		</g>
	</g>
	<g>
		<g>
			<path class="st2" d="M204.85,295.05L204.85,295.05v-18.24l-40.89-0.02l-14.13-8.16c-3.24-1.87-8.91-1.64-12.66,0.52l-13.19,7.61
				l-40.93-0.02v18.76c-0.09,1.27,0.61,2.49,2.17,3.39l52.86,30.52c3.24,1.87,8.91,1.64,12.66-0.52l51.04-29.47
				C203.93,298.17,204.97,296.55,204.85,295.05z"/>
			<path class="st5" d="M143.95,267.37c-2.37,0.06-4.84,0.66-6.78,1.78l-13.19,7.61l-40.93-0.02v18.76
				c-0.09,1.27,0.61,2.49,2.17,3.39l52.86,30.52c1.56,0.9,3.68,1.31,5.87,1.25V267.37z"/>
			<path class="st3" d="M87.68,276.75l-4.63,0v18.76c-0.09,1.27,0.61,2.49,2.17,3.39l2.46,1.42V276.75z"/>
			<path class="st3" d="M138.89,329.81c2.8,1.2,6.85,1.13,10.12-0.12v-21.3h-10.12V329.81z"/>
			<path class="st4" d="M138.08,310.72L85.22,280.2c-3.24-1.87-2.84-5.14,0.91-7.31l51.04-29.47c3.75-2.16,9.41-2.4,12.66-0.52
				l52.86,30.52c3.24,1.87,2.84,5.14-0.91,7.31l-51.04,29.47C146.99,312.36,141.32,312.59,138.08,310.72z"/>
			<path class="st3" d="M139.03,305.23l-44.29-25.57c-2.72-1.57-2.38-4.31,0.76-6.12l42.77-24.69c3.14-1.81,7.89-2.01,10.61-0.44
				l44.29,25.57c2.72,1.57,2.38,4.31-0.76,6.12l-42.77,24.69C146.49,306.6,141.74,306.8,139.03,305.23z"/>
			<g>
				<path class="st4" d="M185.41,299.86c0,1.36-0.96,3.02-2.13,3.7c-1.18,0.68-2.13,0.13-2.13-1.23s0.96-3.02,2.13-3.7
					C184.45,297.95,185.41,298.5,185.41,299.86z"/>
				<path class="st4" d="M192.28,295.9c0,1.36-0.96,3.02-2.13,3.7c-1.18,0.68-2.13,0.13-2.13-1.23c0-1.36,0.96-3.02,2.13-3.7
					C191.32,293.98,192.28,294.53,192.28,295.9z"/>
				<path class="st4" d="M199.15,291.93c0,1.36-0.96,3.02-2.13,3.7c-1.18,0.68-2.13,0.13-2.13-1.23c0-1.36,0.96-3.02,2.13-3.7
					C198.19,290.02,199.15,290.57,199.15,291.93z"/>
			</g>
		</g>
		<g>
			<path class="st2" d="M204.85,265.9L204.85,265.9v-18.24l-40.89-0.02l-14.13-8.16c-3.24-1.87-8.91-1.64-12.66,0.52l-13.19,7.61
				l-40.93-0.02v18.76c-0.09,1.27,0.61,2.49,2.17,3.39l52.86,30.52c3.24,1.87,8.91,1.64,12.66-0.52l51.04-29.47
				C203.93,269.02,204.97,267.41,204.85,265.9z"/>
			<path class="st5" d="M143.95,238.23c-2.37,0.06-4.84,0.66-6.78,1.78l-13.19,7.61l-40.93-0.02v18.76
				c-0.09,1.27,0.61,2.49,2.17,3.39l52.86,30.52c1.56,0.9,3.68,1.31,5.87,1.25V238.23z"/>
			<path class="st3" d="M87.68,247.6l-4.63,0v18.76c-0.09,1.27,0.61,2.49,2.17,3.39l2.46,1.42V247.6z"/>
			<path class="st3" d="M138.89,300.66c2.8,1.2,6.85,1.13,10.12-0.12v-21.3h-10.12V300.66z"/>
			<path class="st4" d="M138.08,281.57l-52.86-30.52c-3.24-1.87-2.84-5.14,0.91-7.31l51.04-29.47c3.75-2.16,9.41-2.4,12.66-0.52
				l52.86,30.52c3.24,1.87,2.84,5.14-0.91,7.31l-51.04,29.47C146.99,283.21,141.32,283.45,138.08,281.57z"/>
			<path class="st3" d="M139.03,276.08l-44.29-25.57c-2.72-1.57-2.38-4.31,0.76-6.12l42.77-24.69c3.14-1.81,7.89-2.01,10.61-0.44
				l44.29,25.57c2.72,1.57,2.38,4.31-0.76,6.12l-42.77,24.69C146.49,277.45,141.74,277.65,139.03,276.08z"/>
			<g>
				<path class="st4" d="M185.41,270.72c0,1.36-0.96,3.02-2.13,3.7c-1.18,0.68-2.13,0.13-2.13-1.23c0-1.36,0.96-3.02,2.13-3.7
					C184.45,268.8,185.41,269.36,185.41,270.72z"/>
				<path class="st4" d="M192.28,266.75c0,1.36-0.96,3.02-2.13,3.7c-1.18,0.68-2.13,0.13-2.13-1.23c0-1.36,0.96-3.02,2.13-3.7
					C191.32,264.84,192.28,265.39,192.28,266.75z"/>
				<path class="st4" d="M199.15,262.79c0,1.36-0.96,3.02-2.13,3.7c-1.18,0.68-2.13,0.13-2.13-1.23c0-1.36,0.96-3.02,2.13-3.7
					C198.19,260.87,199.15,261.42,199.15,262.79z"/>
			</g>
		</g>
		<g>
			<path class="st2" d="M204.85,236.76L204.85,236.76v-18.24l-40.89-0.02l-14.13-8.16c-3.24-1.87-8.91-1.64-12.66,0.52l-13.19,7.61
				l-40.93-0.02v18.76c-0.09,1.27,0.61,2.49,2.17,3.39l52.86,30.52c3.24,1.87,8.91,1.64,12.66-0.52l51.04-29.47
				C203.93,239.88,204.97,238.26,204.85,236.76z"/>
			<path class="st5" d="M143.95,209.08c-2.37,0.06-4.84,0.66-6.78,1.78l-13.19,7.61l-40.93-0.02v18.76
				c-0.09,1.27,0.61,2.49,2.17,3.39l52.86,30.52c1.56,0.9,3.68,1.31,5.87,1.25V209.08z"/>
			<path class="st3" d="M87.68,218.46l-4.63,0v18.76c-0.09,1.27,0.61,2.49,2.17,3.39l2.46,1.42V218.46z"/>
			<path class="st3" d="M138.89,271.52c2.8,1.2,6.85,1.13,10.12-0.12v-21.3h-10.12V271.52z"/>
			<path class="st4" d="M138.08,252.43l-52.86-30.52c-3.24-1.87-2.84-5.14,0.91-7.31l51.04-29.47c3.75-2.16,9.41-2.4,12.66-0.52
				l52.86,30.52c3.24,1.87,2.84,5.14-0.91,7.31l-51.04,29.47C146.99,254.07,141.32,254.3,138.08,252.43z"/>
			<path class="st3" d="M139.03,246.94l-44.29-25.57c-2.72-1.57-2.38-4.31,0.76-6.12l42.77-24.69c3.14-1.81,7.89-2.01,10.61-0.44
				l44.29,25.57c2.72,1.57,2.38,4.31-0.76,6.12l-42.77,24.69C146.49,248.31,141.74,248.51,139.03,246.94z"/>
			<g>
				<path class="st4" d="M185.41,241.57c0,1.36-0.96,3.02-2.13,3.7c-1.18,0.68-2.13,0.13-2.13-1.23c0-1.36,0.96-3.02,2.13-3.7
					C184.45,239.66,185.41,240.21,185.41,241.57z"/>
				<path class="st4" d="M192.28,237.61c0,1.36-0.96,3.02-2.13,3.7c-1.18,0.68-2.13,0.13-2.13-1.23c0-1.36,0.96-3.02,2.13-3.7
					C191.32,235.69,192.28,236.25,192.28,237.61z"/>
				<path class="st4" d="M199.15,233.64c0,1.36-0.96,3.02-2.13,3.7c-1.18,0.68-2.13,0.13-2.13-1.23s0.96-3.02,2.13-3.7
					C198.19,231.73,199.15,232.28,199.15,233.64z"/>
			</g>
		</g>
		<g>
			<path class="st2" d="M204.85,207.62L204.85,207.62v-18.24l-40.89-0.02l-14.13-8.16c-3.24-1.87-8.91-1.64-12.66,0.52l-13.19,7.61
				l-40.93-0.02v18.76c-0.09,1.27,0.61,2.49,2.17,3.39l52.86,30.52c3.24,1.87,8.91,1.64,12.66-0.52l51.04-29.47
				C203.93,210.74,204.97,209.12,204.85,207.62z"/>
			<path class="st5" d="M143.95,179.94c-2.37,0.06-4.84,0.66-6.78,1.78l-13.19,7.61l-40.93-0.02v18.76
				c-0.09,1.27,0.61,2.49,2.17,3.39l52.86,30.52c1.56,0.9,3.68,1.31,5.87,1.25V179.94z"/>
			<path class="st3" d="M87.68,189.31l-4.63,0v18.76c-0.09,1.27,0.61,2.49,2.17,3.39l2.46,1.42V189.31z"/>
			<path class="st3" d="M138.89,242.37c2.8,1.2,6.85,1.13,10.12-0.12v-21.3h-10.12V242.37z"/>
			<path class="st4" d="M138.08,223.29l-52.86-30.52c-3.24-1.87-2.84-5.14,0.91-7.31L137.16,156c3.75-2.16,9.41-2.4,12.66-0.52
				l52.86,30.52c3.24,1.87,2.84,5.14-0.91,7.31l-51.04,29.47C146.99,224.92,141.32,225.16,138.08,223.29z"/>
			<path class="st3" d="M139.03,217.79l-44.29-25.57c-2.72-1.57-2.38-4.31,0.76-6.12l42.77-24.69c3.14-1.81,7.89-2.01,10.61-0.44
				l44.29,25.57c2.72,1.57,2.38,4.31-0.76,6.12l-42.77,24.69C146.49,219.17,141.74,219.36,139.03,217.79z"/>
			<g>
				<path class="st4" d="M185.41,212.43c0,1.36-0.96,3.02-2.13,3.7c-1.18,0.68-2.13,0.13-2.13-1.23c0-1.36,0.96-3.02,2.13-3.7
					C184.45,210.52,185.41,211.07,185.41,212.43z"/>
				<path class="st4" d="M192.28,208.46c0,1.36-0.96,3.02-2.13,3.7c-1.18,0.68-2.13,0.13-2.13-1.23c0-1.36,0.96-3.02,2.13-3.7
					C191.32,206.55,192.28,207.1,192.28,208.46z"/>
				<path class="st4" d="M199.15,204.5c0,1.36-0.96,3.02-2.13,3.7c-1.18,0.68-2.13,0.13-2.13-1.23s0.96-3.02,2.13-3.7
					C198.19,202.58,199.15,203.14,199.15,204.5z"/>
			</g>
		</g>
		<g>
			<path class="st2" d="M204.85,178.47L204.85,178.47v-18.24l-40.89-0.02l-14.13-8.16c-3.24-1.87-8.91-1.64-12.66,0.52l-13.19,7.61
				l-40.93-0.02v18.76c-0.09,1.27,0.61,2.49,2.17,3.39l52.86,30.52c3.24,1.87,8.91,1.64,12.66-0.52l51.04-29.47
				C203.93,181.59,204.97,179.98,204.85,178.47z"/>
			<path class="st5" d="M143.95,150.8c-2.37,0.06-4.84,0.66-6.78,1.78l-13.19,7.61l-40.93-0.02v18.76
				c-0.09,1.27,0.61,2.49,2.17,3.39l52.86,30.52c1.56,0.9,3.68,1.31,5.87,1.25V150.8z"/>
			<path class="st3" d="M87.68,160.17l-4.63,0v18.76c-0.09,1.27,0.61,2.49,2.17,3.39l2.46,1.42V160.17z"/>
			<path class="st3" d="M138.89,213.23c2.8,1.2,6.85,1.13,10.12-0.12v-21.3h-10.12V213.23z"/>
			<path class="st4" d="M138.08,194.14l-52.86-30.52c-3.24-1.87-2.84-5.14,0.91-7.31l51.04-29.47c3.75-2.16,9.41-2.4,12.66-0.52
				l52.86,30.52c3.24,1.87,2.84,5.14-0.91,7.31l-51.04,29.47C146.99,195.78,141.32,196.01,138.08,194.14z"/>
			<path class="st3" d="M139.03,188.65l-44.29-25.57c-2.72-1.57-2.38-4.31,0.76-6.12l42.77-24.69c3.14-1.81,7.89-2.01,10.61-0.44
				l44.29,25.57c2.72,1.57,2.38,4.31-0.76,6.12l-42.77,24.69C146.49,190.02,141.74,190.22,139.03,188.65z"/>
			<g>
				
					<rect x="160.6" y="190.43" transform="matrix(0.8659 -0.5003 0.5003 0.8659 -72.2997 112.0668)" class="st6" width="24.48" height="0.86"/>
				<path class="st4" d="M185.41,183.28c0,1.36-0.96,3.02-2.13,3.7c-1.18,0.68-2.13,0.13-2.13-1.23c0-1.36,0.96-3.02,2.13-3.7
					C184.45,181.37,185.41,181.92,185.41,183.28z"/>
				<path class="st4" d="M192.28,179.32c0,1.36-0.96,3.02-2.13,3.7c-1.18,0.68-2.13,0.13-2.13-1.23c0-1.36,0.96-3.02,2.13-3.7
					C191.32,177.41,192.28,177.96,192.28,179.32z"/>
				<path class="st4" d="M199.15,175.35c0,1.36-0.96,3.02-2.13,3.7c-1.18,0.68-2.13,0.13-2.13-1.23c0-1.36,0.96-3.02,2.13-3.7
					C198.19,173.44,199.15,173.99,199.15,175.35z"/>
			</g>
		</g>
		<g>
			<path class="st2" d="M204.85,149.13L204.85,149.13v-18.24l-40.89-0.02l-14.13-8.16c-3.24-1.87-8.91-1.64-12.66,0.52l-13.19,7.61
				l-40.93-0.02v18.76c-0.09,1.27,0.61,2.49,2.17,3.39l52.86,30.52c3.24,1.87,8.91,1.64,12.66-0.52l51.04-29.47
				C203.93,152.25,204.97,150.63,204.85,149.13z"/>
			<path class="st5" d="M143.95,121.45c-2.37,0.06-4.84,0.66-6.78,1.78l-13.19,7.61l-40.93-0.02v18.76
				c-0.09,1.27,0.61,2.49,2.17,3.39l52.86,30.52c1.56,0.9,3.68,1.31,5.87,1.25V121.45z"/>
			<path class="st3" d="M87.68,130.83l-4.63,0v18.76c-0.09,1.27,0.61,2.49,2.17,3.39l2.46,1.42V130.83z"/>
			<path class="st3" d="M138.89,183.89c2.8,1.2,6.85,1.13,10.12-0.12v-21.3h-10.12V183.89z"/>
			<path class="st4" d="M138.08,164.8l-52.86-30.52c-3.24-1.87-2.84-5.14,0.91-7.31l51.04-29.47c3.75-2.16,9.41-2.4,12.66-0.52
				l52.86,30.52c3.24,1.87,2.84,5.14-0.91,7.31l-51.04,29.47C146.99,166.44,141.32,166.67,138.08,164.8z"/>
			<path class="st6" d="M201.77,131.22l-51.04,29.47c-3.75,2.16-9.41,2.4-12.66,0.52l-52.86-30.52c-0.72-0.42-1.25-0.91-1.62-1.44
				c-1.11,1.79-0.61,3.74,1.62,5.03l52.86,30.52c3.24,1.87,8.91,1.64,12.66-0.52l51.04-29.47c2.91-1.68,3.79-4.03,2.53-5.87
				C203.79,129.76,202.94,130.54,201.77,131.22z"/>
			<g>
				<path class="st4" d="M185.41,153.94c0,1.36-0.96,3.02-2.13,3.7c-1.18,0.68-2.13,0.13-2.13-1.23c0-1.36,0.96-3.02,2.13-3.7
					C184.45,152.03,185.41,152.58,185.41,153.94z"/>
				<path class="st4" d="M164.37,165.5c0,1.36-0.96,3.02-2.13,3.7c-1.18,0.68-2.13,0.13-2.13-1.23c0-1.36,0.96-3.02,2.13-3.7
					C163.42,163.59,164.37,164.14,164.37,165.5z"/>
				<path class="st6" d="M164.37,195.75c0,1.36-0.96,3.02-2.13,3.7c-1.18,0.68-2.13,0.13-2.13-1.23s0.96-3.02,2.13-3.7
					C163.42,193.83,164.37,194.38,164.37,195.75z"/>
				<path class="st4" d="M192.28,149.98c0,1.36-0.96,3.02-2.13,3.7c-1.18,0.68-2.13,0.13-2.13-1.23c0-1.36,0.96-3.02,2.13-3.7
					C191.32,148.06,192.28,148.61,192.28,149.98z"/>
				<path class="st4" d="M199.15,146.01c0,1.36-0.96,3.02-2.13,3.7c-1.18,0.68-2.13,0.13-2.13-1.23c0-1.36,0.96-3.02,2.13-3.7
					C198.19,144.1,199.15,144.65,199.15,146.01z"/>
			</g>
			<g>
				<path class="st5" d="M141.2,145.88l-24.73-14.28c-1.52-0.88-1.33-2.41,0.43-3.42l23.88-13.79c1.75-1.01,4.4-1.12,5.92-0.25
					l24.73,14.28c1.52,0.88,1.33,2.41-0.43,3.42l-23.88,13.79C145.37,146.65,142.72,146.76,141.2,145.88z"/>
				<path class="st4" d="M143.57,133.92l-3.42-1.98c-0.21-0.12-0.18-0.33,0.06-0.47l3.3-1.91c0.24-0.14,0.61-0.16,0.82-0.03
					l3.42,1.98c0.21,0.12,0.18,0.33-0.06,0.47l-3.3,1.91C144.15,134.03,143.78,134.04,143.57,133.92z"/>
				<path class="st2" d="M116.47,131.6l0.07,0.04c0.12-0.08,0.22-0.17,0.36-0.24l23.88-13.79c1.75-1.01,4.4-1.12,5.92-0.25
					l24.66,14.24c1.4-1,1.47-2.37,0.07-3.18l-24.73-14.28c-1.52-0.88-4.17-0.77-5.92,0.25l-23.88,13.79
					C115.14,129.19,114.95,130.72,116.47,131.6z"/>
			</g>
		</g>
		<g>
			<path class="st4" d="M136.02,169.12c0,1.43-1.01,2.02-2.25,1.3c-1.24-0.72-2.25-2.46-2.25-3.9c0-1.43,1.01-2.02,2.25-1.3
				C135.02,165.94,136.02,167.69,136.02,169.12z"/>
			<path class="st3" d="M129.05,165.12c0,1.43-1.01,2.02-2.25,1.3c-1.24-0.72-2.25-2.46-2.25-3.9c0-1.43,1.01-2.02,2.25-1.3
				C128.04,161.94,129.05,163.69,129.05,165.12z"/>
			<path class="st7" d="M136.02,177.54c0,1.43-1.01,2.02-2.25,1.3c-1.24-0.72-2.25-2.46-2.25-3.9c0-1.43,1.01-2.02,2.25-1.3
				C135.02,174.37,136.02,176.11,136.02,177.54z"/>
			<path class="st4" d="M129.05,173.54c0,1.43-1.01,2.02-2.25,1.3c-1.24-0.72-2.25-2.46-2.25-3.9c0-1.43,1.01-2.02,2.25-1.3
				C128.04,170.36,129.05,172.11,129.05,173.54z"/>
		</g>
		<g>
			<path class="st4" d="M136.02,198.07c0,1.43-1.01,2.02-2.25,1.3c-1.24-0.72-2.25-2.46-2.25-3.9c0-1.43,1.01-2.02,2.25-1.3
				C135.02,194.89,136.02,196.64,136.02,198.07z"/>
			<path class="st4" d="M129.05,194.07c0,1.43-1.01,2.02-2.25,1.3c-1.24-0.72-2.25-2.46-2.25-3.9c0-1.43,1.01-2.02,2.25-1.3
				C128.04,190.89,129.05,192.64,129.05,194.07z"/>
			<path class="st3" d="M136.02,206.5c0,1.43-1.01,2.02-2.25,1.3c-1.24-0.72-2.25-2.46-2.25-3.9c0-1.43,1.01-2.02,2.25-1.3
				C135.02,203.32,136.02,205.06,136.02,206.5z"/>
			<path class="st4" d="M129.05,202.49c0,1.43-1.01,2.02-2.25,1.3c-1.24-0.72-2.25-2.46-2.25-3.9c0-1.43,1.01-2.02,2.25-1.3
				C128.04,199.31,129.05,201.06,129.05,202.49z"/>
		</g>
		<g>
			<path class="st4" d="M136.02,227.06c0,1.43-1.01,2.02-2.25,1.3c-1.24-0.72-2.25-2.46-2.25-3.9c0-1.43,1.01-2.02,2.25-1.3
				C135.02,223.88,136.02,225.62,136.02,227.06z"/>
			<path class="st3" d="M129.05,223.06c0,1.43-1.01,2.02-2.25,1.3c-1.24-0.72-2.25-2.46-2.25-3.9c0-1.43,1.01-2.02,2.25-1.3
				C128.04,219.88,129.05,221.62,129.05,223.06z"/>
			<path class="st4" d="M136.02,235.48c0,1.43-1.01,2.02-2.25,1.3c-1.24-0.72-2.25-2.46-2.25-3.9c0-1.43,1.01-2.02,2.25-1.3
				C135.02,232.3,136.02,234.05,136.02,235.48z"/>
			<path class="st7" d="M129.05,231.48c0,1.43-1.01,2.02-2.25,1.3c-1.24-0.72-2.25-2.46-2.25-3.9c0-1.43,1.01-2.02,2.25-1.3
				C128.04,228.3,129.05,230.04,129.05,231.48z"/>
		</g>
		<g>
			<path class="st7" d="M136.02,256.33c0,1.43-1.01,2.02-2.25,1.3c-1.24-0.72-2.25-2.46-2.25-3.9c0-1.43,1.01-2.02,2.25-1.3
				C135.02,253.15,136.02,254.89,136.02,256.33z"/>
			<path class="st4" d="M129.05,252.32c0,1.43-1.01,2.02-2.25,1.3c-1.24-0.72-2.25-2.46-2.25-3.9c0-1.43,1.01-2.02,2.25-1.3
				C128.04,249.15,129.05,250.89,129.05,252.32z"/>
			<path class="st7" d="M136.02,264.75c0,1.43-1.01,2.02-2.25,1.3c-1.24-0.72-2.25-2.46-2.25-3.9c0-1.43,1.01-2.02,2.25-1.3
				C135.02,261.57,136.02,263.31,136.02,264.75z"/>
			<path class="st3" d="M129.05,260.75c0,1.43-1.01,2.02-2.25,1.3c-1.24-0.72-2.25-2.46-2.25-3.9c0-1.43,1.01-2.02,2.25-1.3
				C128.04,257.57,129.05,259.31,129.05,260.75z"/>
		</g>
		<g>
			<path class="st7" d="M136.02,285.31c0,1.43-1.01,2.02-2.25,1.3c-1.24-0.72-2.25-2.46-2.25-3.9c0-1.43,1.01-2.02,2.25-1.3
				C135.02,282.13,136.02,283.88,136.02,285.31z"/>
			<path class="st4" d="M129.05,281.31c0,1.43-1.01,2.02-2.25,1.3c-1.24-0.72-2.25-2.46-2.25-3.9c0-1.43,1.01-2.02,2.25-1.3
				C128.04,278.13,129.05,279.88,129.05,281.31z"/>
			<path class="st3" d="M136.02,293.73c0,1.43-1.01,2.02-2.25,1.3c-1.24-0.72-2.25-2.46-2.25-3.9c0-1.43,1.01-2.02,2.25-1.3
				C135.02,290.56,136.02,292.3,136.02,293.73z"/>
			<path class="st7" d="M129.05,289.73c0,1.43-1.01,2.02-2.25,1.3c-1.24-0.72-2.25-2.46-2.25-3.9c0-1.43,1.01-2.02,2.25-1.3
				C128.04,286.55,129.05,288.3,129.05,289.73z"/>
		</g>
		<g>
			<path class="st4" d="M136.02,314.66c0,1.43-1.01,2.02-2.25,1.3c-1.24-0.72-2.25-2.46-2.25-3.9c0-1.43,1.01-2.02,2.25-1.3
				C135.02,311.48,136.02,313.22,136.02,314.66z"/>
			<path class="st3" d="M129.05,310.66c0,1.43-1.01,2.02-2.25,1.3c-1.24-0.72-2.25-2.46-2.25-3.9c0-1.43,1.01-2.02,2.25-1.3
				C128.04,307.48,129.05,309.22,129.05,310.66z"/>
			<path class="st4" d="M136.02,323.08c0,1.43-1.01,2.02-2.25,1.3c-1.24-0.72-2.25-2.46-2.25-3.9c0-1.43,1.01-2.02,2.25-1.3
				C135.02,319.9,136.02,321.65,136.02,323.08z"/>
			<path class="st7" d="M129.05,319.08c0,1.43-1.01,2.02-2.25,1.3c-1.24-0.72-2.25-2.46-2.25-3.9c0-1.43,1.01-2.02,2.25-1.3
				C128.04,315.9,129.05,317.64,129.05,319.08z"/>
		</g>
	</g>
</g>
</svg>
