<?xml version="1.0" encoding="utf-8"?>
<!-- Generator: Adobe Illustrator 26.0.3, SVG Export Plug-In . SVG Version: 6.00 Build 0)  -->
<svg version="1.1" id="Layer_1" xmlns="http://www.w3.org/2000/svg" xmlns:xlink="http://www.w3.org/1999/xlink" x="0px" y="0px"
	 viewBox="0 0 32.5 2.05" style="enable-background:new 0 0 32.5 2.05;" xml:space="preserve">
<g>
	<g>
		<g>
			<path class="st0" d="M5.31,1.22c-0.13,0.08-0.3,0.11-0.5,0.11H4.16v0.68H3.81V0.08h0.99c0.2,0,0.37,0.03,0.5,0.11
				C5.49,0.3,5.58,0.5,5.58,0.7S5.49,1.11,5.31,1.22z M5.11,0.47c-0.07-0.04-0.18-0.05-0.3-0.05H4.16v0.57h0.65
				c0.12,0,0.23-0.01,0.3-0.05C5.18,0.89,5.23,0.81,5.23,0.7C5.23,0.59,5.18,0.52,5.11,0.47z"/>
			<path class="st0" d="M8.58,2.01V1.18H7.5v0.83H7.15V0.08H7.5v0.75h1.08V0.08h0.35v1.93H8.58z"/>
			<path class="st0" d="M10.7,2.01V0.08h0.36v1.93H10.7z"/>
			<path class="st0" d="M14.34,2.01l-1.19-1.53v1.53h-0.32V0.08h0.42l1.07,1.36V0.08h0.32v1.93H14.34z"/>
			<path class="st0" d="M17.92,2.01l-1.19-1.53v1.53H16.4V0.08h0.42l1.07,1.36V0.08h0.32v1.93H17.92z"/>
			<path class="st0" d="M21.38,2.01l-0.16-0.4h-1.03l-0.16,0.4h-0.38l0.81-1.93h0.5l0.81,1.93H21.38z M20.71,0.34l-0.38,0.95h0.77
				L20.71,0.34z"/>
			<path class="st0" d="M24.08,2.05c-0.61,0-1.05-0.45-1.05-1s0.44-1,1.05-1c0.43,0,0.74,0.22,0.92,0.51l-0.3,0.17
				c-0.14-0.22-0.34-0.33-0.62-0.33c-0.41,0-0.69,0.28-0.69,0.65c0,0.37,0.28,0.65,0.69,0.65c0.28,0,0.48-0.11,0.62-0.33L25,1.54
				C24.82,1.83,24.5,2.05,24.08,2.05z"/>
			<path class="st0" d="M26.5,2.01V0.08h0.34v1.59h0.9v0.34H26.5z"/>
			<path class="st0" d="M29.25,2.01V0.08h1.49v0.33h-1.15v0.44h0.98v0.33h-0.98v0.5h1.17v0.33H29.25z"/>
			<path class="st0" d="M31.85,1.24c-0.39,0-0.65-0.28-0.65-0.62S31.47,0,31.85,0s0.65,0.28,0.65,0.62S32.24,1.24,31.85,1.24z
				 M31.85,0.16c-0.3,0-0.48,0.2-0.48,0.46s0.18,0.46,0.48,0.46s0.48-0.2,0.48-0.46S32.16,0.16,31.85,0.16z M31.99,0.91l-0.17-0.2
				h-0.08v0.2h-0.13V0.33h0.28c0.06,0,0.12,0.01,0.16,0.03c0.05,0.03,0.09,0.09,0.09,0.15c0,0.09-0.07,0.15-0.16,0.17l0.18,0.22
				H31.99z M31.89,0.45h-0.15v0.14h0.15c0.06,0,0.1-0.02,0.1-0.07C31.99,0.46,31.94,0.45,31.89,0.45z"/>
		</g>
	</g>
	<g>
		<g>
			<g>
				<polygon class="st0" points="1.51,2.02 2.24,2.02 1.7,1.08 1.51,1.08 				"/>
				<polygon class="st0" points="0.34,1.44 0,2.02 0.34,2.02 				"/>
				<polygon class="st0" points="1.27,1.08 0.81,1.08 0.81,0.85 1.56,0.85 1.12,0.08 0.58,1.02 0.58,2.02 1.12,2.02 1.27,2.02 				
					"/>
			</g>
		</g>
	</g>
</g>
</svg>
