<?xml version="1.0" encoding="utf-8"?>
<!-- Generator: Adobe Illustrator 26.0.3, SVG Export Plug-In . SVG Version: 6.00 Build 0)  -->
<svg version="1.1" id="Layer_1" xmlns="http://www.w3.org/2000/svg" xmlns:xlink="http://www.w3.org/1999/xlink" x="0px" y="0px"
	 viewBox="0 0 710.82 707.03" style="enable-background:new 0 0 710.82 707.03;" xml:space="preserve">
<g>
	<g>
		<g>
			<path class="st1" d="M38.92,686.49c-3.26,1.97-7.34,2.65-12.38,2.65H10.49v16.87H2.06v-47.61h24.48c5.03,0,9.11,0.68,12.38,2.65
				c4.42,2.72,6.67,7.62,6.67,12.72S43.34,683.77,38.92,686.49z M33.95,668c-1.7-1.02-4.35-1.29-7.41-1.29H10.49v14.15h16.05
				c3.06,0,5.71-0.27,7.41-1.29c1.9-1.16,3.06-3.06,3.06-5.78C37.01,671.05,35.86,669.15,33.95,668z"/>
			<path class="st1" d="M119.85,706.01v-20.4H93.05v20.4h-8.71v-47.61h8.71v18.5h26.79v-18.5h8.71v47.61H119.85z"/>
			<path class="st1" d="M172.07,706.01v-47.61h8.98v47.61H172.07z"/>
			<path class="st1" d="M262.12,706.01l-29.52-37.74v37.74h-8.03v-47.61h10.47l26.39,33.66v-33.66h8.02v47.61H262.12z"/>
			<path class="st1" d="M350.52,706.01l-29.52-37.74v37.74h-8.03v-47.61h10.47l26.39,33.66v-33.66h8.02v47.61H350.52z"/>
			<path class="st1" d="M436.14,706.01l-4.01-10H406.7l-4.01,10h-9.45l20.06-47.61h12.24l20.06,47.61H436.14z M419.41,664.66
				l-9.45,23.46h18.91L419.41,664.66z"/>
			<path class="st1" d="M502.72,707.03c-14.96,0-25.84-11.22-25.84-24.82s10.88-24.82,25.84-24.82c10.54,0,18.36,5.44,22.78,12.58
				l-7.48,4.28c-3.4-5.44-8.5-8.16-15.3-8.16c-10.2,0-17.14,6.94-17.14,16.12c0,9.18,6.94,16.12,17.14,16.12
				c6.8,0,11.9-2.72,15.3-8.16l7.48,4.29C521.08,701.59,513.26,707.03,502.72,707.03z"/>
			<path class="st1" d="M562.57,706.01v-47.61H571v39.17h22.17v8.43H562.57z"/>
			<path class="st1" d="M630.57,706.01v-47.61h36.72v8.16h-28.29v10.88h24.21v8.16h-24.21v12.24h28.97v8.16H630.57z"/>
			<path class="st1" d="M694.84,686.97c-9.52,0-15.98-6.8-15.98-15.3s6.46-15.3,15.98-15.3s15.98,6.8,15.98,15.3
				S704.36,686.97,694.84,686.97z M694.84,660.31c-7.48,0-11.9,4.9-11.9,11.36s4.42,11.36,11.9,11.36s11.9-4.9,11.9-11.36
				S702.32,660.31,694.84,660.31z M698.24,678.81l-4.15-5.03h-2.04v5.03h-3.33v-14.28h7.01c1.5,0,2.92,0.2,3.94,0.82
				c1.29,0.82,2.11,2.11,2.11,3.81c0,2.24-1.63,3.81-4.01,4.28l4.49,5.37H698.24z M695.72,667.38h-3.67v3.54h3.67
				c1.36,0,2.52-0.41,2.52-1.77C698.24,667.79,697.08,667.38,695.72,667.38z"/>
		</g>
	</g>
	<g>
		<g>
			<g>
				<g>
					<polygon class="st1" points="476.61,613.72 708.66,613.72 536.58,315.67 476.61,315.67 					"/>
				</g>
				<g>
					<polygon class="st1" points="106.05,430.03 0,613.72 106.05,613.72 					"/>
				</g>
				<g>
					<polygon class="st1" points="402.5,315.67 257.75,315.67 257.75,243.87 495.13,243.87 354.33,0 182.48,297.65 182.48,613.72 
						354.33,613.72 402.5,613.72 					"/>
				</g>
			</g>
		</g>
	</g>
</g>
</svg>
